<svg width="60" height="60" viewBox="0 0 60 60" fill="none" xmlns="http://www.w3.org/2000/svg">
<path d="M58.5 30.1918C58.5 45.8364 45.75 58.501 30 58.501C14.25 58.501 1.5 45.8364 1.5 30.1918C1.5 14.5473 14.25 1.88263 30 1.88263C45.75 1.88263 58.5 14.5473 58.5 30.1918Z" fill="url(#paint0_linear)" stroke="white" stroke-width="2.03415"/>
<path d="M58.5 29.8092C58.5 45.4537 45.75 58.1184 30 58.1184C14.25 58.1184 1.5 45.4537 1.5 29.8092C1.5 14.1646 14.25 1.5 30 1.5C45.75 1.5 58.5 14.1646 58.5 29.8092Z" stroke="white" stroke-width="2.68734"/>
<path fill-rule="evenodd" clip-rule="evenodd" d="M39.869 14.3635C39.8221 13.991 36.1659 14.4101 32.5565 15.062C28.9471 15.7138 25.3846 16.5519 25.4784 16.971C26.0409 19.8577 26.6034 22.6514 27.1659 25.4451C27.7284 28.1922 28.244 30.8927 28.8065 33.5933C28.8065 34.3383 29.0877 36.061 29.4627 38.0632C29.5565 38.6219 30.494 38.8547 31.7596 38.9013C33.0721 38.9478 34.7596 38.7616 36.4471 38.4822C37.1971 38.3425 37.9471 38.2028 38.6503 38.0166C40.0096 37.6907 41.2753 37.2716 42.119 36.8526C43.0096 36.4335 43.5252 35.9679 43.4784 35.5023C43.2909 34.152 42.9628 32.1965 42.5878 30.9859C42.1659 28.2853 41.744 25.5848 41.3221 22.8377C40.8534 20.044 40.3846 17.2038 39.869 14.3635Z" fill="white"/>
<path fill-rule="evenodd" clip-rule="evenodd" d="M26.4629 20.0439C26.9785 22.5582 27.4473 24.9328 27.916 27.4006C28.4316 29.9615 28.9473 32.5689 29.5098 35.316C29.6504 35.9678 32.9316 35.6885 36.166 35.1297C39.4004 34.5244 42.541 33.5932 42.4473 32.9879C42.0254 30.2408 41.6504 27.6334 41.2754 25.026C40.9004 22.6048 40.4316 19.9042 40.0566 17.6693C40.0098 17.5296 36.6348 18.0418 33.2129 18.6471C29.8379 19.2058 26.5098 19.8577 26.4629 20.0439Z" fill="#BFD457"/>
<path fill-rule="evenodd" clip-rule="evenodd" d="M39.6821 15.4344C39.6353 15.1551 36.2134 15.5276 32.7915 16.1329C29.3696 16.7382 25.9946 17.4831 26.0415 17.7625C26.2759 18.8334 26.2759 19.0197 26.5102 20.044C26.4634 19.9043 29.8384 19.2059 33.2603 18.6006C36.6353 17.9953 40.0571 17.4366 40.104 17.6228C39.8696 16.5985 39.8696 16.5053 39.6821 15.4344Z" fill="white"/>
<path fill-rule="evenodd" clip-rule="evenodd" d="M29.6035 16.7381C28.7129 16.9243 27.8691 17.1106 27.2598 17.2503L27.7285 19.6249C28.3379 19.4852 29.1816 19.299 30.0723 19.1593L29.6035 16.7381Z" fill="white"/>
<path fill-rule="evenodd" clip-rule="evenodd" d="M28.9941 35.5488C29.0879 36.2938 29.2754 37.1319 29.416 38.0631C29.5098 38.6219 30.4473 38.8547 31.7129 38.9012C33.0254 38.9478 34.7129 38.7616 36.4004 38.4822C37.1504 38.3425 37.9004 38.2028 38.6035 38.0166C39.9629 37.6906 41.2285 37.2716 42.0723 36.8525C42.9629 36.4335 43.4785 35.9679 43.4316 35.5023C43.3379 34.7573 43.1973 33.8261 43.0098 32.9414C42.7754 33.2208 42.3535 33.5001 41.791 33.7795C40.8535 34.1986 39.5879 34.6176 38.1348 34.9901C37.3848 35.1763 36.5879 35.316 35.791 35.4557C34.0098 35.7816 32.2285 35.9213 30.8691 35.9213C30.0723 35.8748 29.416 35.7816 28.9941 35.5488Z" fill="white"/>
<path fill-rule="evenodd" clip-rule="evenodd" d="M31.4316 38.8546C31.5254 38.8546 31.6191 38.8546 31.7598 38.8546C32.3691 38.8546 33.0723 38.8547 33.8691 38.8081C33.8691 38.8081 33.8691 38.8081 33.8691 38.7615C33.4473 37.6441 33.4004 36.7128 33.2598 35.7816C32.416 35.8747 31.666 35.8747 31.0098 35.8747C30.9629 35.8747 30.916 35.8747 30.8691 35.8747C30.916 36.8525 31.291 38.6684 31.4316 38.8546Z" fill="white"/>
<path fill-rule="evenodd" clip-rule="evenodd" d="M48.8226 21.208C49.1507 24.0017 48.5413 27.0282 44.4163 31.6843C43.6663 32.4293 43.6663 33.2674 43.1507 33.2674C42.6351 33.1277 41.9788 29.7753 42.4007 29.4493C42.7757 29.3097 42.9632 30.2409 43.4319 29.8218C45.9163 27.6335 47.4632 24.2345 47.2288 21.5805C46.9476 18.0884 42.9163 16.5985 41.8851 20.2768C42.1194 22.4652 41.6038 22.698 41.2288 22.7911C40.7132 21.7668 40.1976 19.5318 40.3851 17.8556C40.6194 17.6228 40.8538 18.3212 41.3226 17.9022C44.2757 15.2947 48.4007 17.2038 48.8226 21.208Z" fill="white"/>
<path fill-rule="evenodd" clip-rule="evenodd" d="M43.1981 33.5001C43.1981 33.407 43.1512 33.3139 43.1512 33.2673C42.6356 33.1276 41.9793 29.7752 42.4012 29.4493L42.3543 29.0768C42.3075 29.0768 42.2606 29.0302 42.2137 29.0768C41.8387 29.1233 41.745 30.1943 41.9793 31.4514C42.2137 32.7086 42.7293 33.6398 43.1043 33.5932C43.1043 33.5467 43.1512 33.5467 43.1981 33.5001Z" fill="white"/>
<path fill-rule="evenodd" clip-rule="evenodd" d="M40.2914 14.5963C40.3383 14.8292 40.4321 15.5741 40.1039 15.7604C40.0571 15.5741 40.0571 15.3879 40.0102 15.2482C39.9633 15.1085 39.4008 15.1085 38.5102 15.1551C37.0571 15.2948 33.2602 15.7138 31.9477 17.9488C31.2914 19.0662 31.1977 21.208 29.9789 21.3943C28.6196 21.6271 26.9321 18.0884 26.6508 17.3435C26.0414 17.5297 25.6664 17.7159 25.6664 17.8556C25.7133 18.0419 25.7602 18.2281 25.7602 18.4144C25.2446 18.3212 25.1039 17.5763 25.0102 17.3435C24.8696 16.7382 24.9164 16.1329 25.3852 15.6207C25.7133 15.2482 26.2758 14.9223 26.9321 14.5498C27.4008 14.317 28.3383 14.1773 28.9477 13.9445C30.0258 13.572 31.0102 13.1995 32.1352 13.0133C32.8383 12.8736 33.6352 12.8736 34.4321 12.827C35.5102 12.7339 36.4946 12.5942 37.3383 12.6408C37.9946 12.6873 38.5102 13.0133 38.9321 13.1995C39.6821 13.5254 40.1508 13.7117 40.2914 14.5963Z" fill="white"/>
<path fill-rule="evenodd" clip-rule="evenodd" d="M25.6191 17.809L25.666 17.9487V17.9952V18.0418V18.0884V18.1349V18.228C25.3848 18.1815 25.1973 17.9487 25.1035 17.7159L25.5254 17.6227L25.6191 17.809Z" fill="white"/>
<path fill-rule="evenodd" clip-rule="evenodd" d="M40.1035 15.7603C40.291 15.6672 40.3379 15.3878 40.3379 15.1085L40.0098 15.2016C40.0566 15.4344 40.0566 15.5741 40.1035 15.7603Z" fill="white"/>
<path fill-rule="evenodd" clip-rule="evenodd" d="M31.291 19.5783C31.291 19.6714 31.2441 19.7646 31.2441 19.8577C31.1504 20.3233 30.5879 22.0926 30.6816 22.5582C30.7285 22.8376 30.8691 23.0238 30.8691 23.3032C30.916 23.536 30.4473 23.7688 30.4004 23.3498C30.3066 22.9307 30.4473 22.8841 30.3066 22.5117C30.166 22.1392 29.3223 21.3476 29.1348 21.1614C28.9941 21.0217 29.1348 21.1614 29.1348 21.1614C29.416 21.3476 29.6973 21.4408 29.9316 21.3942C30.6816 21.2545 31.0098 20.463 31.291 19.5783Z" fill="white"/>
<path fill-rule="evenodd" clip-rule="evenodd" d="M36.4004 16.4588L36.6816 17.9953C36.7754 17.9953 36.916 17.9487 37.0097 17.9487L36.7754 16.5985C36.4941 15.481 36.3066 15.2947 36.4004 16.4588Z" fill="white"/>
<path fill-rule="evenodd" clip-rule="evenodd" d="M38.4166 13.6185C38.6979 13.3392 38.7447 13.246 38.3229 12.9201C38.3229 12.5942 37.8541 12.4545 37.6666 12.5942C37.526 11.9889 37.3385 11.8958 36.9635 11.8026C36.5885 11.7561 36.0729 11.7095 36.026 11.9889C35.8385 11.4302 34.9479 11.2439 34.4791 11.8492C34.151 11.4302 33.0729 11.7561 33.2135 12.2683C32.4635 11.337 31.1041 12.3614 31.4791 12.6407C31.1979 12.1751 30.026 12.6407 30.2604 13.1995C29.6979 12.6873 29.1353 12.5476 28.4791 13.4323C28.2447 13.2926 27.6822 13.6651 27.776 13.8979C27.026 13.9445 26.5103 14.0841 26.3697 14.7826C25.9478 14.8291 25.6666 15.0619 26.0416 15.3879C27.0729 15.4344 28.526 15.481 29.5104 15.5275C30.401 15.3879 31.2447 15.2947 32.1354 15.155C33.3541 15.0619 34.5729 14.9688 35.7447 14.8291C36.6354 14.4566 37.526 14.0376 38.4166 13.6185Z" fill="white"/>
<path fill-rule="evenodd" clip-rule="evenodd" d="M37.4322 17.9487L38.0885 21.953L38.9791 31.2186L37.151 22.0926L36.401 18.3678C36.2604 17.6228 36.4478 17.6693 36.6822 17.5297C37.0103 17.4365 37.2916 16.9709 37.4322 17.9487Z" fill="white"/>
<path fill-rule="evenodd" clip-rule="evenodd" d="M18.8233 23.0704C18.8701 22.698 22.5264 23.117 26.1357 23.7689C29.7451 24.4207 33.3076 25.2588 33.2139 25.6779C32.6514 28.5647 32.0889 31.3583 31.5264 34.152C30.9639 36.8991 30.4482 39.5997 29.8857 42.3002C29.8857 43.0452 29.6045 44.7679 29.2295 46.7701C29.1358 47.3288 28.1983 47.5616 26.9326 47.6082C25.6201 47.6547 23.9326 47.4685 22.2451 47.1891C21.4951 47.0494 20.7451 46.9098 20.042 46.7235C18.6826 46.3976 17.417 45.9785 16.5733 45.5595C15.6826 45.1404 15.167 44.6748 15.2139 44.2092C15.4014 42.8589 15.7295 40.9034 16.1045 39.6928C16.5264 36.9922 16.9483 34.2917 17.3701 31.5446C17.792 28.7509 18.3076 25.9572 18.8233 23.0704Z" fill="white"/>
<path fill-rule="evenodd" clip-rule="evenodd" d="M32.2286 28.7509C31.713 31.2652 31.2442 33.6864 30.7755 36.1076C30.2599 38.715 29.7442 41.2758 29.1817 44.023C29.0411 44.6748 25.7599 44.3954 22.5255 43.8367C19.2911 43.2314 16.1505 42.3002 16.2442 41.6949C16.6661 38.9478 17.0411 36.3404 17.463 33.7329C17.838 31.3118 18.3067 28.6112 18.6817 26.3763C18.7286 26.2366 22.1036 26.7488 25.5255 27.3541C28.8536 27.9128 32.1817 28.6112 32.2286 28.7509Z" fill="#BFD457"/>
<path fill-rule="evenodd" clip-rule="evenodd" d="M19.0098 24.1414C19.0566 23.862 22.4785 24.2345 25.9004 24.8398C29.3223 25.4451 32.6973 26.19 32.6504 26.4694C32.416 27.5403 32.416 27.7266 32.1816 28.7509C32.2285 28.6112 28.8066 27.9128 25.4316 27.3075C22.0566 26.7022 18.6348 26.1435 18.5879 26.3297C18.8223 25.3054 18.8223 25.2588 19.0098 24.1414Z" fill="white"/>
<path fill-rule="evenodd" clip-rule="evenodd" d="M29.0879 25.4916C29.9785 25.6779 30.8223 25.8641 31.4316 26.0038L30.9629 28.3784C30.3535 28.2387 29.5098 28.0525 28.6191 27.9128L29.0879 25.4916Z" fill="white"/>
<path fill-rule="evenodd" clip-rule="evenodd" d="M29.6983 44.2558C29.6045 45.0008 29.417 45.8389 29.2764 46.7701C29.1826 47.3288 28.2451 47.5616 26.9795 47.6082C25.667 47.6548 23.9795 47.4685 22.292 47.1892C21.542 47.0495 20.792 46.9098 20.0889 46.7235C18.7295 46.3976 17.4639 45.9786 16.6201 45.5595C15.7295 45.1405 15.2139 44.6749 15.2608 44.2092C15.3545 43.4643 15.4951 42.533 15.6826 41.6484C15.917 41.9277 16.3389 42.2071 16.9014 42.4865C17.8389 42.9521 19.1514 43.3246 20.5576 43.6971C21.3076 43.8833 22.1045 44.023 22.9014 44.1627C24.6826 44.4886 26.4639 44.6283 27.8233 44.6283C28.5733 44.5817 29.2764 44.4886 29.6983 44.2558Z" fill="white"/>
<path fill-rule="evenodd" clip-rule="evenodd" d="M27.2598 47.6082C27.166 47.6082 27.0723 47.6082 26.9316 47.6082C26.3223 47.6082 25.6191 47.6082 24.8223 47.5616C24.8223 47.5616 24.8223 47.5616 24.8223 47.5151C25.2441 46.3976 25.291 45.4664 25.4316 44.5352C26.2754 44.6283 27.0254 44.6283 27.6816 44.6283C27.7285 44.6283 27.7754 44.6283 27.8223 44.6283C27.7285 45.5595 27.4004 47.3754 27.2598 47.6082Z" fill="white"/>
<path fill-rule="evenodd" clip-rule="evenodd" d="M9.86969 29.9149C9.54156 32.7086 10.1509 35.7351 14.2759 40.3912C15.0259 41.1362 15.0259 41.9743 15.5416 41.9743C16.0572 41.8346 16.7134 38.4822 16.2916 38.1562C15.9166 38.0166 15.7291 38.9478 15.2603 38.5287C12.7759 36.3404 11.2291 32.9414 11.4634 30.2874C11.7447 26.7953 15.7759 25.2588 16.8072 28.9837C16.5728 31.1721 17.0884 31.4049 17.4634 31.498C17.9791 30.4737 18.4947 28.2387 18.3072 26.5625C18.0728 26.3297 17.8384 27.0281 17.3697 26.6091C14.4166 24.0482 10.2916 25.9572 9.86969 29.9149Z" fill="white"/>
<path fill-rule="evenodd" clip-rule="evenodd" d="M15.4941 42.2536C15.4941 42.1605 15.541 42.0674 15.541 42.0208C16.0566 41.8811 16.7129 38.5287 16.291 38.2028L16.3379 37.8303C16.3848 37.8303 16.4316 37.7838 16.4785 37.8303C16.8535 37.8769 16.9473 38.9478 16.7129 40.2049C16.4785 41.4621 15.9629 42.3933 15.5879 42.3468C15.541 42.3002 15.541 42.2536 15.4941 42.2536Z" fill="white"/>
<path fill-rule="evenodd" clip-rule="evenodd" d="M18.4008 23.3498C18.3539 23.5826 18.2601 24.3276 18.5883 24.5138C18.6351 24.3276 18.6351 24.1413 18.682 24.0016C18.7289 23.8619 19.2914 23.8619 20.182 23.9085C21.6351 24.0016 25.432 24.4672 26.7445 26.7022C27.4008 27.8196 27.4945 29.9615 28.7133 30.1477C30.0726 30.3805 31.7601 26.8419 32.0883 26.0969C32.6976 26.2831 33.0726 26.4694 33.0726 26.6091C33.0258 26.7953 32.9789 26.9815 32.9789 27.1678C33.4945 27.0747 33.682 26.3297 33.7289 26.0969C33.8695 25.4916 33.8226 24.8863 33.3539 24.3741C33.0258 24.0016 32.4633 23.6757 31.807 23.3498C31.3383 23.117 30.4008 22.9773 29.7914 22.7445C28.7133 22.372 27.7289 21.9995 26.6039 21.8133C25.9008 21.6736 25.1039 21.6736 24.307 21.627C23.2289 21.5339 22.2445 21.3942 21.4008 21.4408C20.7445 21.4873 20.2289 21.8133 19.807 21.9995C19.0101 22.2789 18.5414 22.4651 18.4008 23.3498Z" fill="white"/>
<path fill-rule="evenodd" clip-rule="evenodd" d="M33.0723 26.5625L33.0254 26.7021V26.7487V26.7953V26.8418V26.8884V26.9815C33.3066 26.935 33.4941 26.7021 33.5879 26.4693L33.166 26.3762L33.0723 26.5625Z" fill="white"/>
<path fill-rule="evenodd" clip-rule="evenodd" d="M18.5879 24.4672C18.4004 24.3741 18.3535 24.0947 18.3535 23.8154L18.6816 23.9085C18.6348 24.1413 18.6348 24.281 18.5879 24.4672Z" fill="white"/>
<path fill-rule="evenodd" clip-rule="evenodd" d="M27.4004 28.2853C27.4004 28.3785 27.4473 28.4716 27.4473 28.5647C27.541 29.0303 28.1035 30.7996 28.0098 31.2653C27.9629 31.5446 27.8223 31.7309 27.8223 32.0102C27.7754 32.243 28.2441 32.4758 28.291 32.0568C28.3848 31.6377 28.2441 31.5912 28.3848 31.2187C28.5254 30.8462 29.3691 30.0547 29.5566 29.8684C29.6973 29.6822 29.5566 29.8684 29.5566 29.8684C29.2754 30.0547 28.9941 30.1478 28.7598 30.1012C27.9629 30.0081 27.6816 29.17 27.4004 28.2853Z" fill="white"/>
<path fill-rule="evenodd" clip-rule="evenodd" d="M22.2441 25.1657L21.9629 26.7022C21.8691 26.7022 21.7285 26.6557 21.6348 26.6557L21.8691 25.3054C22.1973 24.2345 22.3848 24.0483 22.2441 25.1657Z" fill="white"/>
<path fill-rule="evenodd" clip-rule="evenodd" d="M20.2757 22.3254C19.9944 22.0461 19.9476 21.953 20.3694 21.627C20.3694 21.3011 20.8382 21.1614 21.0257 21.3011C21.1663 20.6958 21.3538 20.6027 21.7288 20.5096C22.1038 20.463 22.6194 20.4164 22.7132 20.6958C22.9007 20.1371 23.7913 19.9508 24.2601 20.5561C24.5882 20.1371 25.6663 20.463 25.4788 20.9752C26.2288 20.0439 27.5882 21.0683 27.2132 21.3477C27.4944 20.882 28.6663 21.3477 28.4319 21.9064C28.9944 21.3942 29.5569 21.2545 30.2132 22.1392C30.4476 21.9995 31.0101 22.372 30.9163 22.6048C31.6663 22.6514 32.1819 22.7911 32.3226 23.4895C32.7444 23.536 33.0257 23.7688 32.6507 24.0948C31.6194 24.1413 30.1663 24.1879 29.1819 24.2344C28.2913 24.0948 27.4476 24.0016 26.5569 23.862C25.3382 23.7688 24.1194 23.6757 22.9476 23.536C22.0101 23.2101 21.1663 22.7445 20.2757 22.3254Z" fill="white"/>
<path fill-rule="evenodd" clip-rule="evenodd" d="M21.2598 26.6557L20.6035 30.6599L19.7129 39.9256L21.541 30.7996L22.291 27.0747C22.4316 26.3297 22.2441 26.3297 22.0098 26.2366C21.6348 26.1435 21.4004 25.7244 21.2598 26.6557Z" fill="white"/>
<defs>
<linearGradient id="paint0_linear" x1="30.0078" y1="1.88174" x2="30.0078" y2="58.524" gradientUnits="userSpaceOnUse">
<stop stop-color="#C1D552"/>
<stop offset="0.1986" stop-color="#B9D052"/>
<stop offset="0.4889" stop-color="#A6C553"/>
<stop offset="0.834" stop-color="#8CB655"/>
<stop offset="1" stop-color="#7FAF55"/>
</linearGradient>
</defs>
</svg>
