<svg width="16" height="16" viewBox="0 0 16 16" fill="none" xmlns="http://www.w3.org/2000/svg">
<path fill-rule="evenodd" clip-rule="evenodd" d="M2 0C0.895431 0 0 0.895431 0 2V14C0 15.1046 0.895431 16 2 16H14C15.1046 16 16 15.1046 16 14V2C16 0.895431 15.1046 0 14 0H2ZM13.5714 4.48582C13.8397 4.17024 13.8014 3.69692 13.4858 3.42862C13.1702 3.16032 12.6969 3.19864 12.4286 3.51421L6.9841 9.91799L3.50966 6.69978C3.20577 6.41831 2.73124 6.43648 2.44977 6.74036C2.1683 7.04425 2.18647 7.51877 2.49035 7.80025L7.11307 12.082L13.5714 4.48582Z" fill="#333333"/>
</svg>
