<svg width="82" height="82" viewBox="0 0 82 82" fill="none" xmlns="http://www.w3.org/2000/svg">
<path d="M26.4195 53.0123H26.4233C26.4264 53.0123 26.4295 53.0117 26.4327 53.0117H69.9883C71.0606 53.0117 72.0034 52.3004 72.298 51.2694L81.9074 17.6366C82.1145 16.9115 81.9693 16.132 81.5158 15.5302C81.0616 14.9283 80.3515 14.5742 79.5977 14.5742H20.8791L19.1618 6.84605C18.9172 5.74686 17.9425 4.96484 16.8164 4.96484H2.40234C1.07542 4.96484 0 6.04027 0 7.36719C0 8.69411 1.07542 9.76953 2.40234 9.76953H14.8895C15.1936 11.139 23.1075 46.7525 23.563 48.8014C21.0099 49.9112 19.2188 52.4568 19.2188 55.4141C19.2188 59.3879 22.4519 62.6211 26.4258 62.6211H69.9883C71.3152 62.6211 72.3906 61.5457 72.3906 60.2188C72.3906 58.8918 71.3152 57.8164 69.9883 57.8164H26.4258C25.1014 57.8164 24.0234 56.7385 24.0234 55.4141C24.0234 54.0915 25.0976 53.0155 26.4195 53.0123ZM76.4127 19.3789L68.1759 48.207H28.3527L21.9464 19.3789H76.4127Z" fill="#A4A4A4"/>
<path d="M24.0234 69.8281C24.0234 73.802 27.2566 77.0352 31.2305 77.0352C35.2043 77.0352 38.4375 73.802 38.4375 69.8281C38.4375 65.8542 35.2043 62.6211 31.2305 62.6211C27.2566 62.6211 24.0234 65.8542 24.0234 69.8281ZM31.2305 67.4258C32.5549 67.4258 33.6328 68.5037 33.6328 69.8281C33.6328 71.1525 32.5549 72.2305 31.2305 72.2305C29.9061 72.2305 28.8281 71.1525 28.8281 69.8281C28.8281 68.5037 29.9061 67.4258 31.2305 67.4258Z" fill="#A4A4A4"/>
<path d="M57.9766 69.8281C57.9766 73.802 61.2097 77.0352 65.1836 77.0352C69.1575 77.0352 72.3906 73.802 72.3906 69.8281C72.3906 65.8542 69.1575 62.6211 65.1836 62.6211C61.2097 62.6211 57.9766 65.8542 57.9766 69.8281ZM65.1836 67.4258C66.508 67.4258 67.5859 68.5037 67.5859 69.8281C67.5859 71.1525 66.508 72.2305 65.1836 72.2305C63.8592 72.2305 62.7813 71.1525 62.7813 69.8281C62.7813 68.5037 63.8592 67.4258 65.1836 67.4258Z" fill="#A4A4A4"/>
<circle cx="40.5" cy="27.5" r="2.75" stroke="#A4A4A4" stroke-width="1.5"/>
<circle cx="53.5" cy="27.5" r="2.75" stroke="#A4A4A4" stroke-width="1.5"/>
<path d="M37.5 40C37.5 40 39.5 36.5 47 36.5C54.5 36.5 56.5 40 56.5 40" stroke="#A4A4A4" stroke-width="2" stroke-linecap="round"/>
</svg>
