<svg width="12" height="12" viewBox="0 0 12 12" fill="none" xmlns="http://www.w3.org/2000/svg">
<path d="M10.9284 10.7143C11.1982 10.7143 11.4319 10.6253 11.6306 10.4494L8.2308 7.04947C8.14923 7.10788 8.07017 7.16468 7.99549 7.21869C7.74106 7.40614 7.53457 7.55241 7.376 7.65723C7.21746 7.76229 7.00652 7.86937 6.74321 7.97869C6.47972 8.08815 6.23425 8.1427 6.00654 8.1427H5.99987H5.9932C5.76547 8.1427 5.51999 8.08817 5.25653 7.97869C4.99306 7.86937 4.78212 7.76229 4.62373 7.65723C4.46519 7.55241 4.25881 7.40616 4.00425 7.21869C3.93331 7.16668 3.85464 7.10962 3.76959 7.04855L0.369141 10.4494C0.567813 10.6253 0.801694 10.7143 1.07141 10.7143H10.9284Z" fill="#95BB54"/>
<path d="M0.676411 4.90853C0.422008 4.73892 0.196407 4.54467 0 4.32587V9.49857L2.99656 6.50201C2.39708 6.08349 1.62468 5.55294 0.676411 4.90853Z" fill="#95BB54"/>
<path d="M11.3306 4.90853C10.4185 5.52588 9.64329 6.05734 9.00488 6.50321L12.0002 9.4987V4.32587C11.8082 4.54027 11.585 4.73439 11.3306 4.90853Z" fill="#95BB54"/>
<path d="M10.9284 1.28571H1.07136C0.727481 1.28571 0.463099 1.40183 0.27789 1.63383C0.0925282 1.86595 0 2.15624 0 2.50437C0 2.78557 0.12279 3.09025 0.368261 3.41851C0.613732 3.74664 0.874933 4.00438 1.15173 4.19185C1.30348 4.29907 1.76109 4.6172 2.52456 5.14613C2.9367 5.43173 3.29511 5.68067 3.60311 5.89549C3.86564 6.07841 4.09205 6.23682 4.27898 6.36828C4.30044 6.38333 4.33419 6.40747 4.37898 6.4395C4.42724 6.47416 4.48831 6.51815 4.56365 6.57255C4.70872 6.67748 4.82925 6.76229 4.92524 6.82708C5.0211 6.8919 5.13725 6.9643 5.2735 7.04469C5.40965 7.12497 5.53806 7.18535 5.65858 7.2255C5.77913 7.26563 5.89072 7.28576 5.99338 7.28576H6.00004H6.00671C6.10935 7.28576 6.22096 7.26563 6.34153 7.2255C6.46203 7.18535 6.59033 7.1251 6.72659 7.04469C6.86271 6.9643 6.9787 6.89175 7.07487 6.82708C7.17086 6.76229 7.29139 6.6775 7.43649 6.57255C7.51167 6.51815 7.57274 6.47414 7.621 6.43961C7.66581 6.40745 7.69954 6.38346 7.72113 6.36828C7.86675 6.26695 8.09368 6.10919 8.39879 5.89734C8.95395 5.5116 9.77157 4.94387 10.8551 4.19185C11.1809 3.96425 11.4532 3.68958 11.672 3.36825C11.8904 3.04692 11.9999 2.70986 11.9999 2.35717C11.9999 2.06251 11.8937 1.81037 11.6819 1.60037C11.4697 1.39063 11.2186 1.28571 10.9284 1.28571Z" fill="#95BB54"/>
</svg>
