<svg width="24" height="24" viewBox="0 0 24 24" fill="none" xmlns="http://www.w3.org/2000/svg">
<path d="M5.57617 14.9998V8.65479H9.99517V9.95078H7.20517V11.1208H9.81517V12.4168H7.20517V14.9998H5.57617Z" fill="black"/>
<path d="M16.0353 14.9998H14.2173L13.1193 12.9748C12.9813 12.7408 12.7623 12.6238 12.4623 12.6238H11.9583V14.9998H10.3293V8.65479H13.3533C14.1213 8.65479 14.6973 8.82278 15.0813 9.15878C15.4713 9.48878 15.6663 9.96879 15.6663 10.5988C15.6663 11.0788 15.5343 11.4868 15.2703 11.8228C15.0063 12.1528 14.6343 12.3748 14.1543 12.4888C14.5203 12.5668 14.8113 12.8038 15.0273 13.1998L16.0353 14.9998ZM13.0923 11.3818C13.4583 11.3818 13.7193 11.3248 13.8753 11.2108C14.0373 11.0968 14.1183 10.9108 14.1183 10.6528C14.1183 10.3888 14.0373 10.1998 13.8753 10.0858C13.7193 9.96579 13.4583 9.90579 13.0923 9.90579H11.9403V11.3818H13.0923Z" fill="black"/>
<path d="M16.2426 14.9998V8.65479H17.8986V14.9998H16.2426Z" fill="black"/>
<path fill-rule="evenodd" clip-rule="evenodd" d="M12 23C18.0751 23 23 18.0751 23 12C23 5.92487 18.0751 1 12 1C5.92487 1 1 5.92487 1 12C1 18.0751 5.92487 23 12 23ZM12 24C18.6274 24 24 18.6274 24 12C24 5.37258 18.6274 0 12 0C5.37258 0 0 5.37258 0 12C0 18.6274 5.37258 24 12 24Z" fill="black"/>
</svg>
