<svg width="12" height="12" viewBox="0 0 12 12" fill="none" xmlns="http://www.w3.org/2000/svg">
<path d="M8.62671 3.98555H7.42144V4.38731H8.62671V3.98555Z" fill="#95BB54"/>
<path d="M10.4345 6.99875C10.4327 6.99875 10.4313 6.99978 10.4297 6.99978H5.61576L5.61335 6.99875H0.591249L0.892548 6.59698H11.1376L11.439 6.99875V6.99978H11.2425C11.2407 6.99978 11.2391 6.99875 11.2372 6.99875H10.4345Z" fill="#95BB54"/>
<path d="M4.60889 4.78906H3.40342V5.39173H4.60889V4.78906Z" fill="#95BB54"/>
<path d="M4.60889 3.98555H3.40355V4.38731H4.60889V3.98555Z" fill="#95BB54"/>
<path d="M1.39478 7.40058H0.992965V10.4138H1.39478V7.40058Z" fill="#95BB54"/>
<path d="M3.40356 7.40058H1.79655V8.80674H3.40356V7.40058Z" fill="#95BB54"/>
<path d="M8.62671 4.78906H7.42116V5.39173H8.62671V4.78906Z" fill="#95BB54"/>
<path d="M5.90639 0.400999C5.97396 0.35726 6.06123 0.358702 6.12729 0.40457L6.84448 0.972286H5.18563L5.90639 0.400999Z" fill="#95BB54"/>
<path d="M5.81421 1.37404H4.8098V2.57937H5.81421V1.37404Z" fill="#95BB54"/>
<path d="M2.39917 9.2085H1.79657V10.4138H2.39917V9.2085Z" fill="#95BB54"/>
<path d="M7.22046 1.37404H6.21603V2.57937H7.22046V1.37404Z" fill="#95BB54"/>
<path d="M11.0371 3.98555V6.19524H0.992903V3.98555H3.00174V5.39173C3.00174 5.61358 3.18164 5.79349 3.4035 5.79349H4.60883C4.83069 5.79349 5.01059 5.61358 5.01059 5.39173V3.98555H7.0195V5.39173C7.0195 5.61358 7.19926 5.79349 7.42125 5.79349H8.62651C8.84844 5.79349 9.02827 5.61358 9.02827 5.39173V3.98555H11.0371Z" fill="#95BB54"/>
<path d="M7.22042 3.58379H0.977394L4.40807 1.71234V2.57936C4.40807 2.80122 4.58797 2.98112 4.80982 2.98112H7.22042C7.44241 2.98112 7.62217 2.80122 7.62217 2.57936V1.71234L11.053 3.58379H7.22042Z" fill="#95BB54"/>
<path d="M8.62671 7.40058H7.42144V8.80674H8.62671V7.40058Z" fill="#95BB54"/>
<path d="M3.40356 9.2085H2.80097V10.4138H3.40356V9.2085Z" fill="#95BB54"/>
<path d="M8.62671 9.2085H8.22495V10.4138H8.62671V9.2085Z" fill="#95BB54"/>
<path d="M9.43018 9.2085H9.02842V10.4138H9.43018V9.2085Z" fill="#95BB54"/>
<path d="M7.823 9.2085H7.42124V10.4138H7.823V9.2085Z" fill="#95BB54"/>
<path d="M10.2336 9.2085H9.83189V10.4138H10.2336V9.2085Z" fill="#95BB54"/>
<path d="M11.0371 7.40058H10.6354V10.4138H11.0371V7.40058Z" fill="#95BB54"/>
<path d="M10.2336 7.40058H9.02831V8.80674H10.2336V7.40058Z" fill="#95BB54"/>
<path d="M3.80526 10.4138V7.40058H5.41235V10.4138H3.80526ZM4.20709 8.80676C4.09613 8.80676 4.00618 8.89671 4.00618 9.0076C4.00618 9.11863 4.09613 9.20851 4.20709 9.20851C4.31798 9.20851 4.40793 9.11863 4.40793 9.0076C4.40793 8.89671 4.31798 8.80676 4.20709 8.80676Z" fill="#95BB54"/>
<path d="M7.01953 7.40058H5.81412V8.80674H7.01953V7.40058Z" fill="#95BB54"/>
<path d="M1.59558 10.8155H11.238V11.6192H0.791868L0.792074 10.8155H1.59558Z" fill="#95BB54"/>
<path d="M6.21606 9.2085H5.8143V10.4138H6.21606V9.2085Z" fill="#95BB54"/>
<path d="M7.01953 9.2085H6.61764V10.4138H7.01953V9.2085Z" fill="#95BB54"/>
</svg>
