<svg width="24" height="24" viewBox="0 0 24 24" fill="none" xmlns="http://www.w3.org/2000/svg">
<path d="M19.0711 3.51415C19.4617 3.12363 20.0948 3.12363 20.4853 3.51415C20.8759 3.90468 20.8759 4.53784 20.4853 4.92837L4.929 20.4847C4.53847 20.8752 3.90531 20.8752 3.51478 20.4847C3.12426 20.0942 3.12426 19.461 3.51478 19.0705L19.0711 3.51415Z" fill="#95BB54"/>
<path d="M20.4854 19.0703C20.8759 19.4608 20.8759 20.094 20.4854 20.4845C20.0949 20.875 19.4617 20.875 19.0712 20.4845L3.51486 4.92816C3.12434 4.53764 3.12434 3.90447 3.51486 3.51395C3.90538 3.12342 4.53855 3.12342 4.92907 3.51395L20.4854 19.0703Z" fill="#95BB54"/>
</svg>
