<svg width="12" height="12" viewBox="0 0 12 12" fill="none" xmlns="http://www.w3.org/2000/svg">
<g clip-path="url(#clip0)">
<path d="M3.8787 0.878692C2.70713 2.05026 2.70713 3.94975 3.8787 5.12132C5.05026 6.29289 6.94976 6.29289 8.12133 5.12132C9.29289 3.94975 9.29289 2.05026 8.12133 0.878692C6.94976 -0.292897 5.05026 -0.292897 3.8787 0.878692" fill="#95BB54"/>
<path d="M1.3982 8.16217C4.13306 6.31427 7.86695 6.31427 10.6018 8.16217C11.0076 8.4361 11.25 8.89899 11.25 9.4007V12.0001H0.750011V9.4007C0.750011 8.89899 0.992452 8.4361 1.3982 8.16217V8.16217Z" fill="#95BB54"/>
</g>
<defs>
<clipPath id="clip0">
<rect width="12" height="12" transform="matrix(-1 0 0 1 12 0)" fill="white"/>
</clipPath>
</defs>
</svg>
