<svg width="12" height="12" viewBox="0 0 12 12" fill="none" xmlns="http://www.w3.org/2000/svg">
<path fill-rule="evenodd" clip-rule="evenodd" d="M11.9653 0.226274C11.9052 0.0881212 11.7771 0 11.6363 0H0.363715C0.222941 0 0.0948241 0.0881212 0.0347417 0.226274C-0.0252921 0.364427 -0.00647696 0.527728 0.0830889 0.645573L4.41644 6.34762V11.6054C4.41644 11.742 4.48146 11.8687 4.58834 11.9407C4.64692 11.9801 4.7134 12 4.78013 12C4.83527 12 4.8906 11.9864 4.94161 11.959L7.37633 10.6498C7.50003 10.5833 7.5783 10.4465 7.57849 10.2968L7.58313 6.44436L7.58324 6.34778L7.69071 6.20637L11.9168 0.645521C12.0064 0.527727 12.0253 0.364375 11.9653 0.226274ZM6.85144 10.0513L6.8561 6.20536C6.85619 6.11393 6.88558 6.02538 6.93917 5.95489L10.865 0.789092H1.13494L5.0608 5.95489C5.11453 6.02554 5.14387 6.11429 5.14387 6.20589V10.9695L6.85144 10.0513Z" fill="white"/>
</svg>
