<svg width="36" height="36" viewBox="0 0 36 36" fill="none" xmlns="http://www.w3.org/2000/svg">
<path d="M25.4688 10.5938C25.469 10.5938 25.4668 10.5937 25.4628 10.5929C25.4612 10.5926 25.4594 10.5922 25.4576 10.5916C25.4551 10.5909 25.4525 10.59 25.4499 10.5889C25.4407 10.585 25.4328 10.5796 25.4266 10.5734C25.4204 10.5672 25.415 10.5593 25.4111 10.5501C25.4092 10.5455 25.4078 10.541 25.4071 10.5372C25.4063 10.5336 25.4063 10.5315 25.4063 10.5313C25.4062 10.5315 25.4063 10.5293 25.4071 10.5253C25.4078 10.5215 25.4092 10.517 25.4111 10.5124C25.415 10.5032 25.4204 10.4953 25.4266 10.4891C25.4328 10.4829 25.4407 10.4775 25.4499 10.4736C25.4545 10.4717 25.459 10.4703 25.4628 10.4696C25.4668 10.4688 25.469 10.4688 25.4688 10.4688C25.4685 10.4688 25.4707 10.4688 25.4747 10.4696C25.4785 10.4703 25.483 10.4717 25.4876 10.4736C25.4968 10.4775 25.5047 10.4829 25.5109 10.4891C25.5171 10.4953 25.5225 10.5032 25.5264 10.5124C25.5283 10.517 25.5297 10.5215 25.5304 10.5253C25.5312 10.5293 25.5312 10.5315 25.5312 10.5312C25.5312 10.5315 25.5312 10.5336 25.5304 10.5372C25.5301 10.5387 25.5297 10.5403 25.5293 10.542C25.5285 10.5446 25.5276 10.5473 25.5264 10.5501C25.5225 10.5593 25.5171 10.5672 25.5109 10.5734C25.5047 10.5796 25.4968 10.585 25.4876 10.5889C25.483 10.5908 25.4785 10.5922 25.4747 10.5929C25.4707 10.5937 25.4685 10.5938 25.4688 10.5938Z" stroke="url(#paint0_linear)" stroke-width="3.5"/>
<defs>
<linearGradient id="paint0_linear" x1="4" y1="4" x2="32.946" y2="5.01475" gradientUnits="userSpaceOnUse">
<stop stop-color="#FEDA75"/>
<stop offset="0.286458" stop-color="#FA7E1E"/>
<stop offset="0.53125" stop-color="#D62976"/>
<stop offset="0.765625" stop-color="#962FBF"/>
<stop offset="1" stop-color="#4F5BD5"/>
</linearGradient>
</defs>
</svg>
