<svg width="70" height="70" viewBox="0 0 24 24" fill="none" xmlns="http://www.w3.org/2000/svg">
<path fill-rule="evenodd" clip-rule="evenodd" d="M12.4243 0.0485442C16.7741 0.505839 20.2122 4.42207 19.9866 8.66234C19.835 11.5108 16.5003 17.5474 11.5419 23.9493C11.4021 24.1299 7.66012 18.7645 6.12243 16.1786C3.66771 12.0506 2.80887 9.61207 3.06107 7.48632C3.60953 2.8628 7.76854 -0.440921 12.4243 0.0485442ZM10.375 2.31752C5.25636 3.13949 3.21058 9.50178 6.88628 13.1675C10.9588 17.2291 17.903 14.3836 17.903 8.65332C17.903 4.61192 14.4075 1.66999 10.375 2.31752ZM11.6117 4.09261C11.8178 4.15513 11.9993 4.26868 12.0886 4.39092C12.173 4.50651 12.1817 4.50888 12.2604 4.43788C12.7306 4.01344 13.5716 4.28148 13.74 4.90955C13.7875 5.08655 13.8071 5.10596 13.9828 5.15008C14.4967 5.27915 14.8253 5.9546 14.5917 6.40147C14.5 6.57669 14.5089 6.63586 14.6311 6.6665C14.909 6.73602 15.1422 7.20925 15.0561 7.52837C14.8143 8.42388 13.5543 8.20657 13.5543 7.26939C13.5543 7.06908 13.476 6.95655 13.2137 6.78005C12.9068 6.57351 12.8357 6.55609 12.5953 6.62878C12.272 6.72665 11.9876 6.71088 11.7095 6.5797C11.4532 6.45877 11.2291 6.45928 11.1279 6.58097C10.9278 6.82138 10.4801 6.87758 10.088 6.71143C9.94233 6.64968 9.72375 6.57432 9.60233 6.54397C8.41866 6.24812 8.50094 4.70881 9.70662 4.59255C9.85112 4.57864 9.9926 4.53613 10.0439 4.49133C10.1959 4.35833 10.4083 4.27165 10.5826 4.27148C10.6749 4.27135 10.8481 4.22185 10.9676 4.16136C11.1844 4.05167 11.4007 4.02861 11.6117 4.09261ZM11.6718 6.83147C11.9145 6.95909 12.2631 6.98592 12.5334 6.89776C12.8233 6.80315 12.8226 6.80307 13.0613 6.9682C13.1746 7.04657 13.2765 7.11693 13.2879 7.1246C13.3564 7.17089 13.3916 7.94391 13.4161 9.94497C13.4461 12.3867 13.44 12.3304 13.6731 12.3304C13.8221 12.3304 13.5952 12.6663 13.3543 12.8024C13.1814 12.9 13.1561 12.9014 11.5711 12.9021L9.96332 12.9029L9.78236 12.7971C9.55634 12.665 9.34384 12.3304 9.48596 12.3304C9.71737 12.3304 9.7127 12.3829 9.7127 9.77623C9.7127 7.17377 9.71695 7.22213 9.48877 7.22213C9.42514 7.22213 9.40377 7.19149 9.40423 7.101C9.40593 6.75301 9.49654 6.713 9.87998 6.89102C10.3995 7.13223 10.7526 7.12579 11.1339 6.86809C11.3582 6.71648 11.4424 6.71075 11.6718 6.83147ZM12.1217 7.32C12.0012 7.49158 12.0196 12.1209 12.1413 12.2423C12.2486 12.3494 12.3935 12.3555 12.5021 12.2575C12.6177 12.1532 12.6285 7.40613 12.5134 7.29131C12.4105 7.18861 12.2033 7.20378 12.1217 7.32ZM10.5516 7.31021C10.4655 7.39608 10.4633 7.45699 10.4633 9.77623C10.4633 12.0955 10.4655 12.1564 10.5516 12.2423C10.659 12.3494 10.8039 12.3555 10.9125 12.2575C11.0312 12.1504 11.0385 7.43308 10.9201 7.30266C10.8242 7.19696 10.6619 7.20026 10.5516 7.31021ZM12.4504 9.77623V12.2041L12.329 12.1902L12.2075 12.1763V9.77623V7.37625L12.329 7.3623L12.4504 7.34836V9.77623ZM10.8608 9.77623V12.2041L10.7393 12.1902L10.6179 12.1763V9.77623V7.37625L10.7393 7.3623L10.8608 7.34836V9.77623ZM9.58023 9.77932V12.2044L9.4809 12.1903L9.38154 12.1763V9.82027C9.38154 7.25163 9.37674 7.35421 9.49663 7.35421C9.57763 7.35421 9.58023 7.42927 9.58023 9.77932ZM13.6757 8.11311L13.775 8.21861V10.2084C13.775 12.1791 13.7742 12.1983 13.6853 12.1983C13.5505 12.1983 13.5525 12.2337 13.5648 10.0479L13.5763 8.00766L13.6757 8.11311ZM9.13869 8.43312V8.58724H8.91791C8.52567 8.58724 8.52049 8.60194 8.52049 9.71019C8.52049 10.8184 8.52567 10.8331 8.91791 10.8331H9.13869V10.9873V11.1414H8.68386C8.07318 11.1414 8.12307 11.2687 8.12307 9.71019C8.12307 8.15164 8.07318 8.27901 8.68386 8.27901H9.13869V8.43312Z" fill="#CB6B4C"/>
</svg>
