<svg width="20" height="20" viewBox="0 0 20 20" fill="none" xmlns="http://www.w3.org/2000/svg">
<path fill-rule="evenodd" clip-rule="evenodd" d="M10 18C14.4183 18 18 14.4183 18 10C18 5.58172 14.4183 2 10 2C5.58172 2 2 5.58172 2 10C2 14.4183 5.58172 18 10 18ZM10 20C15.5228 20 20 15.5228 20 10C20 4.47715 15.5228 0 10 0C4.47715 0 0 4.47715 0 10C0 15.5228 4.47715 20 10 20Z" fill="#E1E1E1"/>
<path fill-rule="evenodd" clip-rule="evenodd" d="M15.7071 6.29289C16.0976 6.68342 16.0976 7.31658 15.7071 7.70711L9 14.4142L5.29289 10.7071C4.90237 10.3166 4.90237 9.68342 5.29289 9.29289C5.68342 8.90237 6.31658 8.90237 6.70711 9.29289L9 11.5858L14.2929 6.29289C14.6834 5.90237 15.3166 5.90237 15.7071 6.29289Z" fill="#E1E1E1"/>
</svg>
