<svg width="16" height="16" viewBox="0 0 16 16" fill="none" xmlns="http://www.w3.org/2000/svg">
<g clip-path="url(#clip0)">
<path d="M3.58626 16.0003H5.49573L2.48279 14.0692L0.00622559 12.6221C0.114382 14.5031 1.67866 16.0003 3.58626 16.0003Z" fill="#FDE494"/>
<path d="M10.4827 14.8968L8.32631 14.3451H3.58622C2.52147 14.3451 1.65519 13.4788 1.65519 12.414V11.3554L0.827594 10.4673L0 10.6136V12.414C0 12.4839 0.00225 12.5532 0.0061875 12.622L5.49569 16.0002H12.0197L10.4827 14.8968Z" fill="#FEA150"/>
<path d="M13.8017 13.7544C13.4503 14.1181 12.9582 14.3448 12.4138 14.3448H8.32629L12.0196 16H12.4138C13.7013 16 14.8324 15.3179 15.465 14.296L14.6206 13.7931L13.8017 13.7544Z" fill="#FF5D4A"/>
<path d="M14.3449 10.188V12.4139C14.3449 12.9342 14.1376 13.4068 13.8018 13.7545L15.4651 14.2961C15.8041 13.7486 16.0001 13.1037 16.0001 12.4138V10.4512L15.1439 9.97021L14.3449 10.188Z" fill="#E45261"/>
<path d="M16 4.66202L15.1187 4.45215L14.3448 4.91546V10.1878L16 10.451V4.66202Z" fill="#FF4D95"/>
<path d="M16 3.58604C16 1.785 14.6653 0.290004 12.9332 0.0375977L10.7634 0.940473L9.66394 1.655H12.4138C13.4785 1.655 14.3448 2.52129 14.3448 3.58604V4.91544L16 4.662V3.58604Z" fill="#CB319C"/>
<path d="M9.92916 0L7.8766 0.769875L6.25769 1.65519H9.664L12.9333 0.03775C12.7636 0.0130312 12.5903 0 12.4138 0H9.92916Z" fill="#8A3293"/>
<path d="M8.00011 12.6896C8.5738 12.6896 9.12367 12.5859 9.63218 12.3965L6.94404 11.1763L4.09473 10.5933C4.93592 11.8559 6.37239 12.6896 8.00011 12.6896Z" fill="#FF5D4A"/>
<path d="M10.2861 9.54222C9.78973 10.2755 8.9502 10.7584 8.00005 10.7584C6.74151 10.7584 5.67792 9.91097 5.34795 8.75697L4.60789 8.29443L3.33142 8.43625C3.40495 9.22828 3.67561 9.96397 4.0947 10.593L9.63214 12.3963C10.8291 11.9506 11.7958 11.0289 12.3027 9.86293L11.3104 9.36028L10.2861 9.54222Z" fill="#E45261"/>
<path d="M5.24133 8.00015C5.24133 7.31646 5.4919 6.69055 5.9053 6.20808L4.72849 6.04346L3.53318 6.57133C3.38865 7.02202 3.3103 7.50209 3.3103 8.00015C3.3103 8.1474 3.31793 8.29281 3.33127 8.43659L5.34783 8.75728C5.27899 8.51653 5.24133 8.26275 5.24133 8.00015Z" fill="#FF4D95"/>
<path d="M12.6896 8.00033C12.6896 6.99602 12.3721 6.06452 11.8325 5.30064L10.6638 5.13477L9.46326 5.66342C10.2405 6.15189 10.7586 7.01648 10.7586 8.00033C10.7586 8.57127 10.5842 9.10223 10.286 9.54277L12.3026 9.86345C12.551 9.29202 12.6896 8.6622 12.6896 8.00033Z" fill="#FF4D95"/>
<path d="M7.99998 5.24109C8.5373 5.24109 9.0388 5.39606 9.4633 5.66281L11.8325 5.30003C10.9826 4.09712 9.58158 3.31006 7.99998 3.31006C5.91217 3.31006 4.13892 4.68159 3.5332 6.57084L5.90533 6.20759C6.41164 5.61665 7.16258 5.24109 7.99998 5.24109Z" fill="#CB319C"/>
<path d="M12.4137 4.6893C13.0222 4.6893 13.5172 4.1943 13.5172 3.58586C13.5172 2.97742 13.0222 2.48242 12.4137 2.48242C11.8053 2.48242 11.3103 2.97742 11.3103 3.58586C11.3103 4.1943 11.8053 4.6893 12.4137 4.6893Z" fill="#CB319C"/>
<path d="M1.65519 9.79877L0.858437 9.40136L0 9.25977V10.6133L1.65519 11.3551V9.79877Z" fill="#FF5D4A"/>
<path d="M0 7.90681V9.26L1.65519 9.799V8.17003L0.795187 7.86084L0 7.90681Z" fill="#E45261"/>
<path d="M1.65519 6.85876L0.804656 6.85107L0 7.11223V7.90673L1.65519 8.16995V6.85876Z" fill="#FF4D95"/>
<path d="M1.65519 5.61768L0.778469 5.70661L0 6.43658V7.11246L1.65519 6.85899V5.61768Z" fill="#CB319C"/>
<path d="M0 6.43672L1.65519 5.61781V3.73047L0.684375 3.82331L0 4.47669V6.43672Z" fill="#8A3293"/>
<path d="M6.40809 0L2.63144 1.45253L0.0433437 3.029C0.0149062 3.21066 0 3.39672 0 3.58622V4.47628L1.65519 3.73009V3.58619C1.65519 2.52144 2.52147 1.65516 3.58622 1.65516H6.25769L9.92912 0H6.40809Z" fill="#523494"/>
<path d="M3.58621 0C1.79827 0 0.311804 1.31525 0.043335 3.029L6.40809 0H3.58621Z" fill="#2D2D87"/>
</g>
<defs>
<clipPath id="clip0">
<rect width="16" height="16" fill="white"/>
</clipPath>
</defs>
</svg>
