<svg width="12" height="12" viewBox="0 0 12 12" fill="none" xmlns="http://www.w3.org/2000/svg">
<g clip-path="url(#clip0)">
<path d="M5.78558 12C4.86793 11.8694 4.06348 10.9097 3.55727 9.49246C4.28905 9.32825 5.0358 9.24011 5.78558 9.22961V12Z" fill="#95BB54"/>
<path d="M4.31946 11.7746C4.26522 11.7588 4.21118 11.743 4.15757 11.7256C4.11233 11.711 4.06772 11.6952 4.02311 11.6796C3.97033 11.6614 3.91776 11.6426 3.8654 11.6226C3.82079 11.6056 3.7766 11.5876 3.73231 11.5695C3.6812 11.548 3.63021 11.5266 3.57973 11.5051C3.53565 11.4857 3.49187 11.4654 3.4481 11.4449C3.39857 11.4215 3.34925 11.3977 3.30034 11.3729C3.25741 11.351 3.21458 11.3286 3.17164 11.3057C3.12358 11.2798 3.07583 11.2535 3.02839 11.2264C2.98546 11.2021 2.94409 11.1776 2.90231 11.1525C2.85582 11.1238 2.80953 11.0952 2.76356 11.0665C2.7224 11.0403 2.68135 11.0136 2.64083 10.9861C2.59559 10.9556 2.55098 10.9238 2.50658 10.892C2.46668 10.8634 2.42699 10.8348 2.38804 10.8061C2.3451 10.7729 2.30112 10.7386 2.25808 10.7042C2.21986 10.6737 2.18174 10.6433 2.14415 10.612C2.10132 10.5763 2.06027 10.5394 2.0187 10.5024C1.98226 10.47 1.94561 10.4379 1.91 10.4046C1.86906 10.3663 1.82916 10.3267 1.78926 10.2873C1.7547 10.2531 1.71973 10.2194 1.6859 10.1844C1.67962 10.1779 1.67365 10.1709 1.66716 10.1641C2.13494 9.92208 2.62763 9.73205 3.13667 9.59753C3.4014 10.4435 3.87252 11.2101 4.50732 11.8277C4.48994 11.8232 4.47256 11.8195 4.45517 11.815C4.40931 11.8021 4.36428 11.7879 4.31946 11.7746Z" fill="#95BB54"/>
<path d="M-2.38419e-05 6.21484H2.57144C2.58118 7.22089 2.72685 8.22096 3.00446 9.18786C2.43835 9.33938 1.89203 9.55721 1.37682 9.83684C0.530899 8.81527 0.0466807 7.54155 -2.38419e-05 6.21484Z" fill="#95BB54"/>
<path d="M5.78558 5.78509H3.00038C3.01127 4.81462 3.15338 3.85013 3.42261 2.91785C4.19815 3.09507 4.99025 3.18971 5.78558 3.20021V5.78509Z" fill="#95BB54"/>
<path d="M5.78558 0V2.77041C5.0358 2.75981 4.28905 2.67177 3.55727 2.50756C4.06348 1.0903 4.86793 0.130635 5.78558 0Z" fill="#95BB54"/>
<path d="M5.78558 8.79975C4.99025 8.81035 4.19815 8.90499 3.42261 9.08222C3.15338 8.14993 3.01127 7.18532 3.00038 6.21484H5.78558V8.79975Z" fill="#95BB54"/>
<path d="M1.37682 2.16315C1.89203 2.44278 2.43835 2.66061 3.00446 2.81212C2.72685 3.77903 2.58118 4.7791 2.57144 5.78515H-2.38419e-05C0.0467854 4.45855 0.531004 3.18483 1.37682 2.16315Z" fill="#95BB54"/>
<path d="M1.66657 1.83689C1.67286 1.83049 1.67883 1.82356 1.68501 1.81695C1.71893 1.78191 1.75412 1.74812 1.78868 1.71402C1.82847 1.67467 1.86816 1.6349 1.90921 1.59671C1.94471 1.56355 1.98146 1.53218 2.01791 1.49913C2.05948 1.46219 2.10105 1.42494 2.14378 1.38927C2.18085 1.35789 2.21886 1.32788 2.25656 1.29777C2.29949 1.26293 2.34347 1.22831 2.38767 1.19505C2.42641 1.16577 2.46568 1.13744 2.50516 1.10911C2.54998 1.07679 2.59501 1.04458 2.64067 1.01384C2.68077 0.986764 2.72151 0.960322 2.76224 0.934405C2.80863 0.904501 2.85492 0.875226 2.90215 0.846896C2.94351 0.822028 2.98529 0.797475 3.02718 0.773656C3.07514 0.746165 3.12321 0.719513 3.17169 0.693491C3.21463 0.671981 3.25746 0.648582 3.30039 0.627072C3.34971 0.602099 3.39946 0.578071 3.45045 0.554462C3.49339 0.534001 3.53695 0.514065 3.58114 0.494653C3.63193 0.472094 3.68324 0.451738 3.73445 0.430228C3.77864 0.41218 3.82262 0.394342 3.86723 0.377344C3.91928 0.357408 3.97206 0.338731 4.02483 0.320473C4.06944 0.304734 4.11405 0.2891 4.15929 0.27441C4.21291 0.256992 4.26652 0.241148 4.32161 0.225199C4.36622 0.212083 4.41103 0.198757 4.45617 0.186795C4.47345 0.182074 4.49104 0.178401 4.50842 0.173889C3.87362 0.791494 3.4026 1.55799 3.13776 2.40402C2.6282 2.26951 2.13477 2.07938 1.66657 1.83689Z" fill="#95BB54"/>
<path d="M12 5.78515H9.42855C9.41881 4.7791 9.27315 3.77903 8.99565 2.81212C9.56165 2.66071 10.108 2.44288 10.6232 2.16315C11.4691 3.18472 11.9533 4.45855 12 5.78515Z" fill="#95BB54"/>
<path d="M6.2144 12V9.22961C6.96418 9.24021 7.71092 9.32825 8.44269 9.49246C7.93659 10.9097 7.13204 11.8694 6.2144 12Z" fill="#95BB54"/>
<path d="M6.21446 6.21484H8.99963C8.98874 7.18532 8.84675 8.14993 8.57741 9.08222C7.80187 8.90489 7.00989 8.81024 6.21446 8.79975V6.21484Z" fill="#95BB54"/>
<path d="M6.2144 0C7.13204 0.130635 7.93659 1.0903 8.44269 2.50756C7.71092 2.67188 6.96418 2.75991 6.2144 2.77041V0Z" fill="#95BB54"/>
<path d="M6.21446 3.20021C7.00979 3.18971 7.80187 3.09507 8.57741 2.91785C8.84675 3.85013 8.98874 4.81462 8.99963 5.78509H6.21446V3.20021Z" fill="#95BB54"/>
<path d="M7.49324 0.173706C7.51063 0.178218 7.52801 0.18189 7.54539 0.186402C7.59084 0.198574 7.63566 0.21211 7.6809 0.225226C7.73472 0.240965 7.78813 0.256809 7.84216 0.274017C7.88771 0.288812 7.93253 0.304551 7.97735 0.320185C8.02982 0.338757 8.08238 0.357225 8.13432 0.376951C8.17914 0.394159 8.22333 0.411997 8.26773 0.430254C8.31873 0.451764 8.36983 0.473275 8.4202 0.49468C8.46439 0.514092 8.50806 0.534448 8.55183 0.554908C8.60136 0.578307 8.65069 0.602126 8.69959 0.626889C8.74252 0.648819 8.78546 0.671273 8.82829 0.694148C8.87635 0.71996 8.924 0.746401 8.97133 0.773473C9.01427 0.797501 9.05647 0.822159 9.09783 0.847342C9.14443 0.875463 9.19051 0.904528 9.23637 0.933278C9.27763 0.95972 9.31857 0.986371 9.3591 1.01386C9.40434 1.0444 9.44895 1.07619 9.49335 1.10798C9.53325 1.13663 9.57293 1.16517 9.61199 1.19402C9.65587 1.22708 9.69776 1.26149 9.74195 1.2958C9.78006 1.32634 9.8185 1.35666 9.85578 1.38824C9.89871 1.42371 9.93944 1.46043 9.98081 1.49716C10.0175 1.5299 10.0544 1.56169 10.0902 1.59558C10.131 1.63367 10.1707 1.67323 10.2105 1.71247C10.245 1.74668 10.2802 1.78046 10.3141 1.81561C10.3203 1.82212 10.3263 1.82926 10.3328 1.83587C9.8651 2.07804 9.37229 2.26806 8.86326 2.40258C8.59854 1.55707 8.12773 0.790996 7.49324 0.173706Z" fill="#95BB54"/>
<path d="M10.2114 10.2858C10.1715 10.3251 10.1318 10.3649 10.0909 10.4032C10.0553 10.4362 10.0186 10.4676 9.98207 10.5007C9.9405 10.5377 9.89893 10.5749 9.8562 10.6105C9.81913 10.6417 9.78133 10.6718 9.74342 10.702C9.70049 10.7369 9.65766 10.7715 9.61221 10.805C9.57357 10.834 9.5343 10.8622 9.49503 10.891C9.45021 10.9232 9.40497 10.9554 9.35932 10.9864C9.31921 11.0135 9.27848 11.0399 9.23774 11.0659C9.19135 11.0957 9.14506 11.125 9.09784 11.1533C9.05647 11.1783 9.01469 11.2028 8.9728 11.2267C8.92484 11.2542 8.87678 11.2808 8.82829 11.3067C8.78546 11.3282 8.74253 11.3516 8.6996 11.3732C8.65027 11.3981 8.60053 11.4222 8.54954 11.4459C8.5066 11.4661 8.46304 11.4861 8.41885 11.5056C8.36806 11.5281 8.31685 11.5485 8.26554 11.57C8.22135 11.588 8.17737 11.6059 8.13276 11.6229C8.08071 11.6429 8.02794 11.6616 7.97516 11.6799C7.93055 11.6955 7.88594 11.7112 7.8407 11.7258C7.78709 11.7432 7.73347 11.7592 7.67839 11.775C7.63378 11.7881 7.58896 11.8015 7.54393 11.8135C7.52655 11.8183 7.50896 11.8219 7.49157 11.8264C8.12637 11.2087 8.59739 10.4422 8.86222 9.59619C9.37126 9.73081 9.86406 9.92084 10.3317 10.1631C10.3254 10.1695 10.3195 10.1764 10.3132 10.1831C10.281 10.2179 10.2464 10.2517 10.2114 10.2858Z" fill="#95BB54"/>
<path d="M10.6232 9.83684C10.108 9.55721 9.56165 9.33938 8.99565 9.18786C9.27315 8.22096 9.41881 7.22089 9.42855 6.21484H12C11.9532 7.54144 11.4691 8.81516 10.6232 9.83684Z" fill="#95BB54"/>
</g>
<defs>
<clipPath id="clip0">
<rect width="12" height="12" transform="matrix(-1 0 0 1 12 0)" fill="white"/>
</clipPath>
</defs>
</svg>
