<svg width="24" height="24" viewBox="0 0 24 24" fill="none" xmlns="http://www.w3.org/2000/svg">
<path d="M7.20575 8.65473H8.48375V14.9997H7.04375V11.6697L5.81975 13.9467H4.75775L3.54275 11.7237L3.53375 14.9997H2.09375V8.65473H3.39875L5.30675 12.2637L7.20575 8.65473Z" fill="black"/>
<path d="M12.2169 15.0807C11.5689 15.0807 11.0049 14.9487 10.5249 14.6847C10.0509 14.4147 9.68492 14.0367 9.42692 13.5507C9.16892 13.0587 9.03992 12.4827 9.03992 11.8227C9.03992 11.1627 9.16892 10.5897 9.42692 10.1037C9.68492 9.61173 10.0509 9.23373 10.5249 8.96973C11.0049 8.70573 11.5689 8.57373 12.2169 8.57373C12.8649 8.57373 13.4259 8.70573 13.8999 8.96973C14.3799 9.23373 14.7459 9.61173 14.9979 10.1037C15.2559 10.5897 15.3849 11.1627 15.3849 11.8227C15.3849 12.4827 15.2559 13.0587 14.9979 13.5507C14.7399 14.0367 14.3709 14.4147 13.8909 14.6847C13.4169 14.9487 12.8589 15.0807 12.2169 15.0807ZM12.2169 13.8117C12.6969 13.8117 13.0719 13.6437 13.3419 13.3077C13.6119 12.9657 13.7469 12.4707 13.7469 11.8227C13.7469 11.1747 13.6089 10.6827 13.3329 10.3467C13.0629 10.0107 12.6909 9.84273 12.2169 9.84273C11.7369 9.84273 11.3619 10.0107 11.0919 10.3467C10.8219 10.6767 10.6869 11.1687 10.6869 11.8227C10.6869 12.4767 10.8219 12.9717 11.0919 13.3077C11.3619 13.6437 11.7369 13.8117 12.2169 13.8117Z" fill="black"/>
<path d="M20.028 8.65473H21.576V14.9997H20.352L17.454 11.3727V14.9997H15.915V8.65473H17.121L20.028 12.2817V8.65473Z" fill="black"/>
<path fill-rule="evenodd" clip-rule="evenodd" d="M12 23C18.0751 23 23 18.0751 23 12C23 5.92487 18.0751 1 12 1C5.92487 1 1 5.92487 1 12C1 18.0751 5.92487 23 12 23ZM12 24C18.6274 24 24 18.6274 24 12C24 5.37258 18.6274 0 12 0C5.37258 0 0 5.37258 0 12C0 18.6274 5.37258 24 12 24Z" fill="black"/>
</svg>
