<svg width="17" height="24" viewBox="0 0 17 24" fill="none" xmlns="http://www.w3.org/2000/svg">
<path d="M7.80087 11.6697L8.4632 11.3028L8.24242 11.8899L8.75758 12.1835L8.97835 12.9174L9.34632 12.6972L9.71429 12.1835L10.2294 11.8899V12.4771L10.5238 12.6972L10.2294 12.9174V13.6514L10.5238 14.2385L9.71429 14.7523L8.97835 15.7798L8.4632 16.0734V16.6605L8.75758 17.0275L8.97835 17.3945L8.4632 17.6881H7.80087L6.84416 18.055L6.25541 18.4954V19.0826V19.6697L5.96104 20.2569L5.66667 20.844V21.4312L5.00433 22.0183L4.2684 22.5321H3.53247H2.57576H2.1342L1.47186 22.0183H0.662338L0 21.211L0.662338 20.2569L1.47186 19.4495L2.1342 18.4954L2.57576 18.055L3.31169 17.6881L4.2684 17.0275L5.2987 16.4404L5.66667 15.7798L6.47619 15.2661V14.7523V13.945L6.84416 13.6514L7.35931 13.2844V12.6972L7.80087 11.6697Z" fill="white"/>
<path d="M12.8052 12.6972L12.1429 13.6514L11.2597 12.9174V12.4771L11.8485 11.8899V11.3028L11.6277 10.4954L11.2597 10.055L10.2294 9.61468L9.71429 9.3945L10.2294 8.95413L10.7446 8.44037L11.2597 7.85321L11.6277 6.97248V6.16514L11.2597 5.43119L10.7446 4.69725V4.0367L9.71429 2.56881L8.97835 1.68807V0.733945L8.75758 0H9.34632V0.733945L9.71429 1.24771L10.5238 1.46789L11.2597 1.98165V2.78899V3.15596L11.6277 3.74312V4.0367L11.8485 4.69725L12.5108 5.13761L12.8052 4.0367L13.1732 5.13761L13.3939 5.79816V6.53211H14.1299L14.8658 7.26605L15.8225 6.53211L16.2641 6.16514L16.5584 6.53211L17 6.97248L16.5584 7.26605V7.85321V8.44037H16.0433V8.73394V8.95413L15.8225 9.3945L15.6017 8.95413H14.8658L14.4242 9.3945V10.055V10.7156L13.9091 11.3028L13.3939 12.1835L12.8052 12.6972Z" fill="white"/>
<path d="M2.1342 24L2.57576 23.5596L2.1342 23.0459H1.69264V23.5596L1.47186 24H2.1342Z" fill="white"/>
</svg>
