<svg width="24" height="24" viewBox="0 0 24 24" fill="none" xmlns="http://www.w3.org/2000/svg">
<path d="M5.8708 15.0807C5.3968 15.0807 4.9288 15.0177 4.4668 14.8917C4.0048 14.7657 3.6298 14.5977 3.3418 14.3877L3.8548 13.2177C4.1608 13.4097 4.4878 13.5567 4.8358 13.6587C5.1838 13.7607 5.5348 13.8117 5.8888 13.8117C6.2488 13.8117 6.5218 13.7637 6.7078 13.6677C6.8998 13.5657 6.9958 13.4247 6.9958 13.2447C6.9958 13.0827 6.9088 12.9507 6.7348 12.8487C6.5668 12.7467 6.2428 12.6447 5.7628 12.5427C5.1688 12.4167 4.7038 12.2667 4.3678 12.0927C4.0318 11.9187 3.7948 11.7147 3.6568 11.4807C3.5248 11.2467 3.4588 10.9587 3.4588 10.6167C3.4588 10.2267 3.5668 9.87873 3.7828 9.57273C4.0048 9.26073 4.3138 9.01773 4.7098 8.84373C5.1118 8.66373 5.5708 8.57373 6.0868 8.57373C6.5428 8.57373 6.9838 8.63973 7.4098 8.77173C7.8418 8.89773 8.1778 9.06273 8.4178 9.26673L7.9138 10.4367C7.3378 10.0407 6.7318 9.84273 6.0958 9.84273C5.7898 9.84273 5.5438 9.90273 5.3578 10.0227C5.1718 10.1367 5.0788 10.2897 5.0788 10.4817C5.0788 10.5957 5.1118 10.6887 5.1778 10.7607C5.2438 10.8327 5.3668 10.9047 5.5468 10.9767C5.7268 11.0427 5.9938 11.1117 6.3478 11.1837C6.9238 11.3097 7.3768 11.4627 7.7068 11.6427C8.0368 11.8167 8.2708 12.0207 8.4088 12.2547C8.5468 12.4887 8.6158 12.7677 8.6158 13.0917C8.6158 13.7157 8.3758 14.2047 7.8958 14.5587C7.4158 14.9067 6.7408 15.0807 5.8708 15.0807Z" fill="black"/>
<path d="M14.2799 14.9997L13.7129 13.6857H10.9049L10.3379 14.9997H8.67289L11.6339 8.65473H12.9479L15.9179 14.9997H14.2799ZM11.4359 12.4437H13.1819L12.3089 10.4097L11.4359 12.4437Z" fill="black"/>
<path d="M16.8984 14.9997V9.99573H14.9994V8.65473H20.4714V9.99573H18.5724V14.9997H16.8984Z" fill="black"/>
<path fill-rule="evenodd" clip-rule="evenodd" d="M12 23C18.0751 23 23 18.0751 23 12C23 5.92487 18.0751 1 12 1C5.92487 1 1 5.92487 1 12C1 18.0751 5.92487 23 12 23ZM12 24C18.6274 24 24 18.6274 24 12C24 5.37258 18.6274 0 12 0C5.37258 0 0 5.37258 0 12C0 18.6274 5.37258 24 12 24Z" fill="black"/>
</svg>
