<svg width="64" height="64" viewBox="0 0 64 64" fill="none" xmlns="http://www.w3.org/2000/svg">
<path d="M40.908 39.3156C38.4452 41.4757 35.2824 42.6665 31.9998 42.6665C28.716 42.6665 25.5571 41.481 23.1053 39.3293L21.1014 37.5708L17.5825 41.5786L19.5864 43.3371C23.0116 46.3436 27.4198 47.9998 31.9998 47.9998C36.5786 47.9998 40.9907 46.3384 44.425 43.3241L46.4289 41.5649L42.9106 37.5571L40.908 39.3156Z" fill="#95BB54"/>
<path d="M32 0C14.3548 0 0 14.3548 0 32C0 49.6452 14.3548 64 32 64C49.6452 64 64 49.6452 64 32C64 14.3548 49.6452 0 32 0ZM32 58.6667C17.2962 58.6667 5.33333 46.7038 5.33333 32C5.33333 17.2962 17.2962 5.33333 32 5.33333C46.7038 5.33333 58.6667 17.2962 58.6667 32C58.6667 46.7038 46.7038 58.6667 32 58.6667Z" fill="#95BB54"/>
<path d="M18.6665 24H23.9998V29.3333H18.6665V24Z" fill="#95BB54"/>
<path d="M40 24H45.3333V29.3333H40V24Z" fill="#95BB54"/>
</svg>
