<svg width="24" height="24" viewBox="0 0 24 24" fill="none" xmlns="http://www.w3.org/2000/svg">
<path d="M5.3708 15.0807C4.8968 15.0807 4.4288 15.0177 3.9668 14.8917C3.5048 14.7657 3.1298 14.5977 2.8418 14.3877L3.3548 13.2177C3.6608 13.4097 3.9878 13.5567 4.3358 13.6587C4.6838 13.7607 5.0348 13.8117 5.3888 13.8117C5.7488 13.8117 6.0218 13.7637 6.2078 13.6677C6.3998 13.5657 6.4958 13.4247 6.4958 13.2447C6.4958 13.0827 6.4088 12.9507 6.2348 12.8487C6.0668 12.7467 5.7428 12.6447 5.2628 12.5427C4.6688 12.4167 4.2038 12.2667 3.8678 12.0927C3.5318 11.9187 3.2948 11.7147 3.1568 11.4807C3.0248 11.2467 2.9588 10.9587 2.9588 10.6167C2.9588 10.2267 3.0668 9.87873 3.2828 9.57273C3.5048 9.26073 3.8138 9.01773 4.2098 8.84373C4.6118 8.66373 5.0708 8.57373 5.5868 8.57373C6.0428 8.57373 6.4838 8.63973 6.9098 8.77173C7.3418 8.89773 7.6778 9.06273 7.9178 9.26673L7.4138 10.4367C6.8378 10.0407 6.2318 9.84273 5.5958 9.84273C5.2898 9.84273 5.0438 9.90273 4.8578 10.0227C4.6718 10.1367 4.5788 10.2897 4.5788 10.4817C4.5788 10.5957 4.6118 10.6887 4.6778 10.7607C4.7438 10.8327 4.8668 10.9047 5.0468 10.9767C5.2268 11.0427 5.4938 11.1117 5.8478 11.1837C6.4238 11.3097 6.8768 11.4627 7.2068 11.6427C7.5368 11.8167 7.7708 12.0207 7.9088 12.2547C8.0468 12.4887 8.1158 12.7677 8.1158 13.0917C8.1158 13.7157 7.8758 14.2047 7.3958 14.5587C6.9158 14.9067 6.2408 15.0807 5.3708 15.0807Z" fill="black"/>
<path d="M11.3744 15.0807C10.4564 15.0807 9.75736 14.8467 9.27736 14.3787C8.80336 13.9107 8.56636 13.2267 8.56636 12.3267V8.65473H10.1864V12.3897C10.1864 12.8457 10.2884 13.1967 10.4924 13.4427C10.6964 13.6887 10.9904 13.8117 11.3744 13.8117C11.7584 13.8117 12.0524 13.6887 12.2564 13.4427C12.4604 13.1967 12.5624 12.8457 12.5624 12.3897V8.65473H14.1914V12.3267C14.1914 13.2207 13.9484 13.9047 13.4624 14.3787C12.9824 14.8467 12.2864 15.0807 11.3744 15.0807Z" fill="black"/>
<path d="M18.9714 8.65473H20.5194V14.9997H19.2954L16.3974 11.3727V14.9997H14.8584V8.65473H16.0644L18.9714 12.2817V8.65473Z" fill="black"/>
<path fill-rule="evenodd" clip-rule="evenodd" d="M12 23C18.0751 23 23 18.0751 23 12C23 5.92487 18.0751 1 12 1C5.92487 1 1 5.92487 1 12C1 18.0751 5.92487 23 12 23ZM12 24C18.6274 24 24 18.6274 24 12C24 5.37258 18.6274 0 12 0C5.37258 0 0 5.37258 0 12C0 18.6274 5.37258 24 12 24Z" fill="black"/>
</svg>
