<svg width="24" height="24" viewBox="0 0 24 24" fill="none" xmlns="http://www.w3.org/2000/svg">
<path d="M4.0074 14.9998V9.99578H2.1084V8.65479H7.5804V9.99578H5.6814V14.9998H4.0074Z" fill="black"/>
<path d="M12.4749 8.65479H14.0949V14.9998H12.4749V12.4348H9.88292V14.9998H8.26292V8.65479H9.88292V11.1208H12.4749V8.65479Z" fill="black"/>
<path d="M18.0222 15.0808C17.1042 15.0808 16.4052 14.8468 15.9252 14.3788C15.4512 13.9108 15.2142 13.2268 15.2142 12.3268V8.65479H16.8342V12.3898C16.8342 12.8458 16.9362 13.1968 17.1402 13.4428C17.3442 13.6888 17.6382 13.8118 18.0222 13.8118C18.4062 13.8118 18.7002 13.6888 18.9042 13.4428C19.1082 13.1968 19.2102 12.8458 19.2102 12.3898V8.65479H20.8392V12.3268C20.8392 13.2208 20.5962 13.9048 20.1102 14.3788C19.6302 14.8468 18.9342 15.0808 18.0222 15.0808Z" fill="black"/>
<path fill-rule="evenodd" clip-rule="evenodd" d="M12 23C18.0751 23 23 18.0751 23 12C23 5.92487 18.0751 1 12 1C5.92487 1 1 5.92487 1 12C1 18.0751 5.92487 23 12 23ZM12 24C18.6274 24 24 18.6274 24 12C24 5.37258 18.6274 0 12 0C5.37258 0 0 5.37258 0 12C0 18.6274 5.37258 24 12 24Z" fill="black"/>
</svg>
