<svg width="24" height="24" viewBox="0 0 24 24" fill="none" xmlns="http://www.w3.org/2000/svg">
<path d="M5.0074 14.9998V9.99578H3.1084V8.65479H8.5804V9.99578H6.6814V14.9998H5.0074Z" fill="black"/>
<path d="M12.0349 15.0808C11.1169 15.0808 10.4179 14.8468 9.93792 14.3788C9.46392 13.9108 9.22692 13.2268 9.22692 12.3268V8.65479H10.8469V12.3898C10.8469 12.8458 10.9489 13.1968 11.1529 13.4428C11.3569 13.6888 11.6509 13.8118 12.0349 13.8118C12.4189 13.8118 12.7129 13.6888 12.9169 13.4428C13.1209 13.1968 13.2229 12.8458 13.2229 12.3898V8.65479H14.8519V12.3268C14.8519 13.2208 14.6089 13.9048 14.1229 14.3788C13.6429 14.8468 12.9469 15.0808 12.0349 15.0808Z" fill="black"/>
<path d="M15.969 14.9998V8.65479H20.478V9.93279H17.58V11.1388H20.298V12.4078H17.58V13.7218H20.478V14.9998H15.969Z" fill="black"/>
<path fill-rule="evenodd" clip-rule="evenodd" d="M12 23C18.0751 23 23 18.0751 23 12C23 5.92487 18.0751 1 12 1C5.92487 1 1 5.92487 1 12C1 18.0751 5.92487 23 12 23ZM12 24C18.6274 24 24 18.6274 24 12C24 5.37258 18.6274 0 12 0C5.37258 0 0 5.37258 0 12C0 18.6274 5.37258 24 12 24Z" fill="black"/>
</svg>
