<svg width="24" height="24" viewBox="0 0 24 24" fill="none" xmlns="http://www.w3.org/2000/svg">
<path d="M9.9064 8.65479H11.4724L9.2044 14.9998H7.8904L6.5494 11.1928L5.1904 14.9998H3.8674L1.6084 8.65479H3.2914L4.6054 12.6778L6.0274 8.65479H7.1704L8.5294 12.7498L9.9064 8.65479Z" fill="black"/>
<path d="M11.7162 14.9998V8.65479H16.2252V9.93279H13.3272V11.1388H16.0452V12.4078H13.3272V13.7218H16.2252V14.9998H11.7162Z" fill="black"/>
<path d="M16.6364 8.65479H19.2194C19.9214 8.65479 20.5244 8.78078 21.0284 9.03278C21.5384 9.28478 21.9284 9.65079 22.1984 10.1308C22.4684 10.6048 22.6034 11.1688 22.6034 11.8228C22.6034 12.4828 22.4684 13.0528 22.1984 13.5328C21.9344 14.0068 21.5474 14.3698 21.0374 14.6218C20.5334 14.8738 19.9274 14.9998 19.2194 14.9998H16.6364V8.65479ZM19.1024 13.6678C19.7264 13.6678 20.1914 13.5148 20.4974 13.2088C20.8034 12.9028 20.9564 12.4408 20.9564 11.8228C20.9564 11.2048 20.8034 10.7458 20.4974 10.4458C20.1914 10.1398 19.7264 9.98678 19.1024 9.98678H18.2924V13.6678H19.1024Z" fill="black"/>
<path fill-rule="evenodd" clip-rule="evenodd" d="M12 23C18.0751 23 23 18.0751 23 12C23 5.92487 18.0751 1 12 1C5.92487 1 1 5.92487 1 12C1 18.0751 5.92487 23 12 23ZM12 24C18.6274 24 24 18.6274 24 12C24 5.37258 18.6274 0 12 0C5.37258 0 0 5.37258 0 12C0 18.6274 5.37258 24 12 24Z" fill="black"/>
</svg>
