<svg width="24" height="24" viewBox="0 0 24 24" fill="none" xmlns="http://www.w3.org/2000/svg">
<g clip-path="url(#clip0)">
<path d="M11.6757 0C15.8271 0 19.9142 1.91192 19.9142 6.48506C19.9142 10.7023 15.0816 12.3241 14.0437 13.848C13.2646 14.9815 13.5248 16.5743 11.384 16.5743C9.98952 16.5743 9.30833 15.44 9.30833 14.4021C9.30833 10.54 14.9829 9.66598 14.9829 6.48582C14.9829 4.7354 13.8179 3.69755 11.8708 3.69755C7.7194 3.69755 9.34048 7.97755 6.1963 7.97755C5.06124 7.97755 4.08691 7.29636 4.08691 5.99981C4.08615 2.81889 7.71787 0 11.6757 0ZM11.5142 18.6798C12.9714 18.6798 14.1738 19.8784 14.1738 21.3403C14.1738 22.8022 12.9737 24.0008 11.5142 24.0008C10.0546 24.0008 8.8537 22.8037 8.8537 21.3403C8.8537 19.8792 10.0546 18.6798 11.5142 18.6798Z" fill="white"/>
</g>
<defs>
<clipPath id="clip0">
<rect width="24" height="24" fill="white"/>
</clipPath>
</defs>
</svg>
