<?xml version="1.0" standalone="no"?>
<!DOCTYPE svg PUBLIC "-//W3C//DTD SVG 1.1//EN" "http://www.w3.org/Graphics/SVG/1.1/DTD/svg11.dtd" >
<svg xmlns="http://www.w3.org/2000/svg">
<metadata>Generated by IcoMoon</metadata>
<defs>
<font id="icomoon" horiz-adv-x="1024">
<font-face units-per-em="1024" ascent="960" descent="-64" />
<missing-glyph horiz-adv-x="1024" />
<glyph unicode="&#x20;" horiz-adv-x="512" d="" />
<glyph unicode="&#xe900;" d="M950.857 496.762c0-242.374-196.483-438.857-438.857-438.857s-438.857 196.483-438.857 438.857c0 242.374 196.483 438.857 438.857 438.857s438.857-196.483 438.857-438.857z" />
<glyph unicode="&#xe901;" d="M347.090 565.389c7.514 6.149 19.519 5.998 26.814-0.336l138.096-119.918 138.096 119.918c7.295 6.334 19.3 6.485 26.814 0.336 7.517-6.146 7.695-16.267 0.4-22.601l-165.31-143.55-165.31 143.55c-7.295 6.334-7.117 16.455 0.4 22.601z" />
<glyph unicode="&#xe902;" glyph-name="icon-arrow" d="M79.107 628.149c19.727 16.14 51.241 15.745 70.389-0.883l362.504-314.786 362.502 314.786c19.149 16.628 50.662 17.023 70.387 0.883 19.731-16.14 20.198-42.703 1.050-59.33l-433.939-376.819-433.94 376.819c-19.148 16.627-18.679 43.19 1.048 59.33z" />
<glyph unicode="&#xe903;" glyph-name="icon-bus" d="M933.099 709.609c-8.363 81.74-21.679 145.384-42.752 170.4-86.878 102.857-695.461 110.385-764.559 0-16.902-27.044-28.756-90.462-36.712-170.535-25.67-3.020-45.659-24.633-45.659-51.091v-100.131c0-22.266 14.108-41.039 33.805-48.365-4.665-157.709-0.879-322.253 6.108-404.083 0-63.168 42.437-52.689 42.437-52.689h39.777v-68.198c0-27.042 27.878-48.926 62.224-48.926 34.391 0 62.269 21.884 62.269 48.926v68.198h462.771v-68.198c0-27.042 27.853-48.926 62.246-48.926 34.342 0 62.221 21.884 62.221 48.926v68.198h13.073c0 0 49.941-6.852 53.141 22.895 0 81.609 5.137 262.464 0.9 433.178 20.937 6.562 36.215 25.852 36.215 49.065v100.131c0.026 27.089-20.937 49.062-47.505 51.226zM274.418 865.338h467.299v-70.698h-467.299v70.698zM281.089 133.641c-36.69 0-66.416 29.747-66.416 66.436 0 36.668 29.726 66.394 66.416 66.394s66.438-29.726 66.438-66.394c0-36.689-29.726-66.436-66.438-66.436zM739.213 133.641c-36.663 0-66.458 29.747-66.458 66.436 0 36.668 29.769 66.394 66.458 66.394 36.693 0 66.419-29.726 66.419-66.394 0.021-36.689-29.726-66.436-66.419-66.436zM823.659 424.363h-631.184v331.064h631.184v-331.064z" />
<glyph unicode="&#xe904;" glyph-name="icon-chat" d="M1024.017 267.004c0 127.070-72.9 240.478-182.080 295.642-3.392-243.64-200.922-441.174-444.562-444.561 55.165-109.18 168.568-182.080 295.642-182.080 59.575 0 117.513 15.868 168.418 46.016l161.135-44.57-44.57 161.131c30.148 50.91 46.016 108.847 46.016 168.422zM781.999 569c0 215.601-175.398 391-390.999 391s-391-175.398-391-391c0-70.265 18.703-138.681 54.219-198.743l-52.781-190.814 190.82 52.774c60.063-35.516 128.477-54.217 198.742-54.217 215.601 0 390.999 175.398 390.999 390.999zM331 660h-60c0 66.172 53.828 120 120 120s120.002-53.828 120.002-120c0-33.586-14.221-65.867-39.023-88.555l-50.979-46.658v-46.788h-60v73.212l70.467 64.5c12.595 11.523 19.533 27.25 19.533 44.289 0 33.086-26.914 60-60 60s-60-26.914-60-60zM361 418.001h60v-60.002h-60v60.002z" />
<glyph unicode="&#xe905;" glyph-name="icon-close-1" d="M724.965 703.574c11.764 11.762 30.831 11.762 42.592 0 11.764-11.762 11.764-30.831 0-42.593l-468.519-468.52c-11.762-11.761-30.831-11.761-42.593 0s-11.762 30.831 0 42.592l468.52 468.521zM767.56 235.059c11.761-11.761 11.761-30.831 0-42.592s-30.831-11.761-42.592 0l-468.52 468.52c-11.762 11.762-11.762 30.831 0 42.593s30.831 11.762 42.593 0l468.52-468.521z" />
<glyph unicode="&#xe906;" glyph-name="icon-close" d="M233.373 726.627c12.497 12.497 32.758 12.497 45.254 0l249.373-249.372 249.37 249.372c12.499 12.497 32.762 12.497 45.261 0 12.493-12.497 12.493-32.758 0-45.254l-249.375-249.373 249.375-249.37c12.493-12.499 12.493-32.762 0-45.261-12.499-12.493-32.762-12.493-45.261 0l-249.37 249.375-249.373-249.375c-12.497-12.493-32.758-12.493-45.254 0-12.497 12.499-12.497 32.762 0 45.261l249.372 249.37-249.372 249.373c-12.497 12.497-12.497 32.758 0 45.254z" />
<glyph unicode="&#xe907;" d="M950.857 496.762c0-242.374-196.483-438.857-438.857-438.857s-438.857 196.483-438.857 438.857c0 242.374 196.483 438.857 438.857 438.857s438.857-196.483 438.857-438.857z" />
<glyph unicode="&#xe908;" d="M609.509 691.729l-50.586 0.080c-56.832 0-93.559-37.681-93.559-96.002v-44.264h-50.861c-4.396 0-7.956-3.564-7.956-7.958v-64.134c0-4.396 3.562-7.956 7.956-7.956h50.861v-161.829c0-4.393 3.56-7.953 7.953-7.953h66.363c4.393 0 7.953 3.562 7.953 7.953v161.829h59.47c4.393 0 7.953 3.56 7.953 7.956l0.024 64.134c0 2.109-0.839 4.13-2.328 5.625-1.49 1.492-3.518 2.333-5.63 2.333h-59.49v37.522c0 18.035 4.298 27.19 27.792 27.19l34.077 0.012c4.391 0 7.948 3.564 7.948 7.956v59.55c0 4.389-3.555 7.946-7.941 7.956z" />
<glyph unicode="&#xe909;" glyph-name="icon-facebook" d="M637.198 714h73.913v126c-13.577 1.556-55.811 6.222-107.099 6.222-104.078 0-176.484-66.889-176.484-188.223v-110.444h-114.64v-141.557h114.64v-356.221h141.793v356.221h111.622l18.102 141.557h-129.724v96.444c0 42.001 12.066 70.001 67.877 70.001z" />
<glyph unicode="&#xe90a;" glyph-name="icon-google" d="M900.742 429.343c0 24.468-3.109 42.82-6.218 62.7h-366.825v-129.988h217.609c-7.771-56.585-65.283-163.632-217.609-163.632-132.119 0-239.369 107.048-239.369 240.097 0 212.568 254.913 310.441 391.694 180.454l105.697 99.401c-66.839 61.171-155.435 99.403-258.022 99.403-214.5 0-385.476-169.748-385.476-379.258 0-211.041 170.977-379.261 385.476-379.261 222.271 0 373.043 152.929 373.043 370.085z" />
<glyph unicode="&#xe90b;" d="M950.857 496.762c0-242.374-196.483-438.857-438.857-438.857s-438.857 196.483-438.857 438.857c0 242.374 196.483 438.857 438.857 438.857s438.857-196.483 438.857-438.857z" />
<glyph unicode="&#xe90c;" d="M585.143 691.81h-146.286c-67.316 0-121.905-54.589-121.905-121.905v-146.286c0-67.316 54.589-121.905 121.905-121.905h146.286c67.316 0 121.905 54.589 121.905 121.905v146.286c0 67.316-54.589 121.905-121.905 121.905zM670.476 423.619c0-47.055-38.278-85.333-85.333-85.333h-146.286c-47.055 0-85.333 38.278-85.333 85.333v146.286c0 47.055 38.278 85.333 85.333 85.333h146.286c47.055 0 85.333-38.278 85.333-85.333v-146.286z" />
<glyph unicode="&#xe90d;" d="M512 594.286c-53.858 0-97.524-43.666-97.524-97.524s43.666-97.524 97.524-97.524c53.858 0 97.524 43.666 97.524 97.524s-43.666 97.524-97.524 97.524zM512 435.81c-33.597 0-60.952 27.355-60.952 60.952 0 33.621 27.355 60.952 60.952 60.952s60.952-27.331 60.952-60.952c0-33.597-27.355-60.952-60.952-60.952z" />
<glyph unicode="&#xe90e;" d="M616.828 588.605c7.178 0 12.995 5.817 12.995 12.995s-5.817 12.995-12.995 12.995c-7.178 0-12.995-5.817-12.995-12.995s5.817-12.995 12.995-12.995z" />
<glyph unicode="&#xe90f;" glyph-name="icon-instagram" d="M706.554 513.957c6.983-20.483 10.78-42.374 10.78-65.070 0-113.778-92.444-204.442-204.447-204.442-113.778 0-204.442 90.664-204.442 204.442 0 112.003 90.664 204.447 204.442 204.447 22.696 0 44.587-3.797 65.070-10.78 60.117-20.503 108.095-68.48 128.597-128.597zM735.662 613.743c8.988 2.122 16.967 6.744 23.179 13.102 8.434 8.636 13.602 20.471 13.602 33.601 0 0.714-0.014 1.425-0.046 2.13-0.014 0.344-0.031 0.686-0.054 1.027-1.508 23.617-19.809 42.388-43.21 44.619-0.506 0.048-1.015 0.089-1.53 0.122-1.044 0.067-2.096 0.1-3.157 0.1-13.13 0-24.966-5.171-33.601-13.604-6.357-6.211-10.98-14.192-13.102-23.179-0.85-3.595-1.3-7.35-1.3-11.216 0-26.67 21.333-48.003 48.003-48.003 3.866 0 7.62 0.449 11.216 1.3zM672.475 772.109c0.037-0.003 0.071-0.005 0.108-0.008 18.904-1.482 36.685-3.72 51.863-7.055 8.636-1.898 16.43-4.151 23.108-6.823 17.038-6.276 32.265-16.623 44.999-29.67 12.513-12.823 22.619-28.254 29.668-44.997 2.674-6.679 4.927-14.474 6.824-23.11 3.337-15.178 5.575-32.959 7.054-51.863 0.003-0.037 0.006-0.071 0.009-0.108 1.067-13.628 1.741-27.836 2.148-42.075 0.893-31.11 0.521-62.359 0.216-87.984-0.131-11.039-0.247-21.035-0.247-29.528 0-8.812 0.119-19.112 0.25-30.427 0.447-38.124 1.027-87.765-2.409-130.933-0.003-0.037-0.006-0.071-0.009-0.108-2.335-29.244-6.514-55.509-13.835-73.199-6.292-17.98-16.68-33.69-29.778-46.663-0.321-0.321-0.646-0.64-0.973-0.956-12.604-12.231-27.639-21.973-43.915-28.823-18.415-7.367-45.309-11.554-74.971-13.878-0.037-0.003-0.071-0.006-0.108-0.009-43.395-3.396-92.703-2.81-130.059-2.364-11.039 0.131-21.035 0.247-29.528 0.247-8.812 0-19.112-0.119-30.427-0.25-38.124-0.447-87.765-1.027-130.933 2.409-0.037 0.003-0.071 0.006-0.108 0.009-29.244 2.335-55.509 6.514-73.198 13.835-17.33 6.932-32.549 16.819-45.244 29.252-0.655 0.643-1.304 1.291-1.946 1.946-12.434 12.695-22.322 27.915-29.255 45.244-7.319 17.69-11.499 43.955-13.833 73.199-0.003 0.037-0.006 0.071-0.009 0.108-3.437 43.167-2.857 92.809-2.411 130.933 0.132 11.315 0.253 21.615 0.253 30.427 0 8.494-0.119 18.489-0.25 29.528-0.444 37.356-1.030 86.665 2.364 130.059 0.003 0.037 0.005 0.071 0.008 0.108 2.325 29.662 6.512 56.556 13.878 74.972 6.91 16.412 16.759 31.146 29.137 43.588 0.323 0.324 0.647 0.647 0.973 0.968 12.911 12.718 28.505 22.979 46.334 30.11 17.688 7.319 43.954 11.499 73.198 13.833 0.037 0.003 0.071 0.006 0.108 0.009 43.167 3.437 92.809 2.857 130.933 2.411 11.315-0.132 21.615-0.253 30.427-0.253 8.494 0 18.489 0.119 29.528 0.25 25.626 0.305 56.875 0.676 87.984-0.216 14.239-0.408 28.447-1.082 42.075-2.148zM907.554 612.443c-1.937 34.884-7.043 67.654-18.773 97.736-0.156 0.401-0.313 0.802-0.472 1.202-9.779 24.65-24.061 47.481-44.754 68.174-21.029 21.029-44.265 35.435-69.376 45.226-0.612 0.239-1.226 0.475-1.84 0.708-29.577 11.228-61.722 16.168-95.895 18.066-32.74 1.77-98.074 2.659-163.556 2.667-66.071 0.008-132.295-0.881-165.33-2.667-34.529-1.918-66.469-6.941-96.101-18.418-0.265-0.103-0.53-0.206-0.795-0.309-24.994-9.792-48.344-24.21-70.217-45.273-20.693-20.693-34.973-43.524-44.753-68.174-0.159-0.4-0.316-0.801-0.473-1.202-11.73-30.082-16.836-62.852-18.774-97.736-1.77-32.74-2.659-98.074-2.667-163.556-0.008-66.071 0.881-132.295 2.667-165.33 1.918-34.529 6.941-66.469 18.418-96.1 0.103-0.267 0.206-0.532 0.309-0.796 9.792-24.994 24.21-48.344 45.273-70.215 21.873-21.063 45.222-35.482 70.217-45.275 0.265-0.102 0.53-0.205 0.795-0.31 29.632-11.474 61.572-16.498 96.101-18.415 33.035-1.786 99.26-2.677 165.33-2.668 65.482 0.009 130.816 0.896 163.556 2.668 34.884 1.937 67.655 7.043 97.735 18.773 0.401 0.156 0.802 0.313 1.203 0.472 24.65 9.779 47.482 24.061 68.173 44.754 21.063 21.871 35.482 45.221 45.275 70.215 0.486 1.246 0.964 2.495 1.428 3.749 10.687 28.797 15.442 59.762 17.297 93.147 1.786 33.035 2.677 99.26 2.668 165.33-0.009 65.482-0.896 130.816-2.668 163.556zM379.557 448.887c0-74.667 60.444-133.33 133.33-133.33 72.892 0 131.556 58.664 131.556 133.33 0 72.892-58.664 131.556-131.556 131.556-74.667 0-133.33-58.664-133.33-131.556z" />
<glyph unicode="&#xe910;" glyph-name="icon-new-south-wales" d="M0 361.944v459.47h604.869c20.769 0 41.198 5.3 59.348 15.398 5.27 3.85 18.187 11.549 27.674 11.549 2.9 0 6.122-0.24 9.348-0.61 12.021-1.378 24.349-0.727 35.515 3.932l0.856 0.356c6.36 2.654 13.184 4.021 20.074 4.021h7.395c8.843 0 17.342-3.453 23.68-9.624l1.96-1.909c5.080-4.947 11.889-7.715 18.981-7.715 10.203 0 19.602-5.81 24.261-14.885 2.717-5.294 7.109-9.62 12.46-12.225l1.287-0.626c13.016-6.337 28.668-3.083 38.082 7.915l1.748 2.043c1.357 1.584 2.567 3.285 3.624 5.083l14.23 24.245c6.934 15.758 23.859 24.61 40.759 21.32l6.378-1.242c2.834-0.552 5.712-0.829 8.598-0.829h26.203c3.299 0 6.532 0.906 9.348 2.62 11.981 7.291 27.323-1.333 27.323-15.358v-31.465c0-6.346-1.693-12.578-4.904-18.051l-6.634-11.299c-2.842-4.848-5.193-9.969-7.014-15.286l-6.184-18.068c-4.564-13.329-6.894-27.321-6.894-41.409v-1.076c0-18.233-4.048-36.238-11.86-52.714-7.808-16.476-11.86-34.481-11.86-52.714v-29.695c0-7.884-1.302-15.713-3.858-23.172l-4.443-12.979c-2.304-6.739-6.806-12.51-12.782-16.389-9.044-5.87-14.501-15.918-14.501-26.699v-1.96c0-16.903-8.199-32.753-21.99-42.522l-21.5-15.225-25.509-17.386c-9.168-6.246-16.395-14.943-20.868-25.099l-1.145-2.6c-2.556-5.808-3.877-12.087-3.877-18.432s-1.32-12.624-3.877-18.432l-7.984-18.139-19.942-36.063c-5.135-9.285-9.070-19.182-11.707-29.458l-2.169-8.448c-1.174-4.564-1.766-9.256-1.766-13.967v-0.607c0-14.768-5.968-28.906-16.545-39.208-4.747-4.619-8.613-10.061-11.414-16.059l-15.532-33.273-5.72-16.713c-4.089-11.941-7.303-24.163-9.618-36.568l-3.566-19.094c-0.574-3.072-0.863-6.192-0.863-9.315v-8.704c0-32.077-31.184-44.343-63.258-44.343-2.428 0-8.419 2.64-15.7 6.404-23.943 12.372-42.203 33.211-54.513 57.183l-1.042 2.030c-2.575 5.010-4.78 10.2-6.605 15.532l-9.893 28.895c-2.063 6.023-6.085 11.176-11.421 14.643-9.417 6.111-21.46 5.91-31.547 0.973-7.069-3.456-14.508-6.323-19.518-6.323h-49.236c-6.605 0-13.1-1.686-18.871-4.897l-6.235-3.467c-7.859-4.374-17.419-4.374-25.278 0l-3.251 1.807c-7.146 3.975-15.974 3.295-22.426-1.73-5.661-4.411-13.224-5.515-19.913-2.911l-22.707 8.847c-4.020 1.565-7.869 3.536-11.487 5.884l-2.282 1.481c-10.508 6.821-19.198 16.099-25.321 27.026-9.274 16.556-24.319 29.115-42.265 35.28l-23.65 8.13c-10.426 3.58-20.48 8.496-29.727 14.501-21.644 14.047-47.148 21.691-72.952 21.691h-16.201c-8.521 0-15.428 6.905-15.428 15.426 0 4.831-2.263 9.384-6.114 12.303l-15.12 11.447c-9.311 7.051-20.67 10.869-32.349 10.869h-4.484c-6.044 0-12.036 1.126-17.668 3.317-18.7 7.285-31.015 25.296-31.015 45.363z" />
<glyph unicode="&#xe911;" glyph-name="icon-phone" d="M778.547 282.59c-33.459 33.033-75.226 33.033-108.467 0-25.361-25.143-50.718-50.291-75.652-75.861-6.818-7.031-12.57-8.525-20.881-3.836-16.41 8.951-33.882 16.196-49.651 25.997-73.519 46.242-135.104 105.698-189.657 172.608-27.063 33.246-51.143 68.83-67.978 108.894-3.41 8.098-2.77 13.427 3.836 20.032 25.359 24.506 50.077 49.651 75.010 74.796 34.735 34.948 34.735 75.862-0.213 111.023-19.818 20.031-39.636 39.636-59.454 59.667-20.457 20.457-40.701 41.128-61.372 61.372-33.456 32.604-75.223 32.604-108.466-0.213-25.572-25.145-50.078-50.93-76.076-75.649-24.080-22.801-36.226-50.717-38.784-83.321-4.049-53.061 8.95-103.139 27.276-151.938 37.505-101.009 94.615-190.72 163.871-272.977 93.55-111.236 205.212-199.245 335.841-262.75 58.816-28.553 119.761-50.5 186.031-54.127 45.606-2.556 85.239 8.951 116.992 44.54 21.734 24.294 46.242 46.455 69.257 69.683 34.095 34.522 34.308 76.288 0.427 110.383-40.491 40.7-81.19 81.19-121.89 121.677zM737.788 452.416l78.635 13.423c-12.361 72.24-46.455 137.661-98.24 189.656-54.763 54.766-124.019 89.287-200.311 99.942l-11.081-79.059c59.029-8.311 112.73-34.948 155.136-77.354 40.064-40.062 66.274-90.779 75.861-146.609zM860.762 794.231c-90.778 90.779-205.636 148.102-332.429 165.789l-11.085-79.059c109.534-15.343 208.836-64.995 287.258-143.201 74.368-74.371 123.17-168.346 140.855-271.7l78.635 13.427c-20.672 119.76-77.141 228.439-163.234 314.743z" />
<glyph unicode="&#xe912;" glyph-name="icon-placeholder" d="M511.979 960c-204.49 0-370.854-166.364-370.854-370.852 0-253.775 331.878-626.332 346.009-642.072 13.269-14.78 36.442-14.754 49.69 0 14.131 15.74 346.010 388.297 346.010 642.072-0.004 204.488-166.366 370.852-370.854 370.852zM511.979 402.56c-102.884 0-186.583 83.703-186.583 186.588s83.702 186.584 186.583 186.584c102.882 0 186.581-83.702 186.581-186.586s-83.699-186.586-186.581-186.586z" />
<glyph unicode="&#xe913;" glyph-name="icon-quensland" d="M128 119.667v523.32l30.975-7.63c5.755-1.417 11.714 1.402 14.269 6.75 1.769 3.703 5.241 6.301 9.292 6.954l20.716 3.336c2.604 0.419 5.27-0.19 7.433-1.7 5.537-3.864 5.836-11.953 0.6-16.216l-9.651-7.858c-1.019-0.829-1.951-1.759-2.783-2.775l-2.439-2.979c-6.241-7.622-6.241-18.588 0-26.21 2.413-2.947 5.593-5.171 9.19-6.426l5.073-1.771c7.218-2.519 15.010-2.903 22.441-1.108l2.051 0.495c11.452 2.767 21.445 9.739 27.994 19.533l3.565 5.331c2.046 3.060 3.821 6.292 5.306 9.659l5.379 12.202c4.533 10.281 8.257 20.899 11.139 31.759l5.785 21.803c1.263 4.76 3.143 9.334 5.591 13.607 6.911 12.058 9.136 26.239 6.25 39.834l-3.060 14.413c-1.378 6.491-2.073 13.109-2.073 19.745v40.338l-3.175 28.25c-1.050 9.348 1.4 18.753 6.878 26.4 3.872 5.405 6.26 11.731 6.925 18.346l2.987 29.704c0.525 5.219 2.577 10.168 5.9 14.226l0.895 1.093c11.181 13.655 32.489 12.211 41.725-2.829 1.818-2.961 3.016-6.26 3.521-9.698l1.804-12.271c1.48-10.071 4.734-19.8 9.611-28.735l3.007-5.509c5.858-10.732 9.914-22.352 12.006-34.398l0.284-1.637c0.907-5.222 1.363-10.513 1.363-15.813v-20.817c0-7.428 2.519-14.637 7.145-20.448l10.131-12.726c3.923-4.928 10.791-6.379 16.371-3.458l5.847 3.060c8.222 4.303 18.156 3.671 25.765-1.64 1.354-0.945 2.61-2.022 3.75-3.216l6.768-7.085c9.981-10.449 15.551-24.343 15.551-38.794 0-5.095 0.693-10.166 2.061-15.074l11.074-39.745c2.422-8.694 6.951-16.656 13.184-23.182l9.347-9.785c7.681-8.041 10.519-19.553 7.456-30.243-1.484-5.179-1.606-10.653-0.355-15.893l5.301-22.199 2.402-13.829c1.579-9.090 5.378-17.649 11.059-24.92l4.545-5.815c5.434-6.955 13.212-11.695 21.882-13.346 8.388-1.596 15.953-6.093 21.363-12.702l3.174-3.878c1.907-2.33 4.023-4.484 6.319-6.438l30.848-26.236c2.419-2.061 5.952-2.129 8.448-0.166 2.927 2.295 7.168 1.758 9.429-1.199l12.245-16.026c1.655-2.163 1.489-5.21-0.393-7.181-2.159-2.257-2.018-5.85 0.303-7.936l10.603-9.515c1.31-1.173 2.453-2.522 3.396-4.006l13.001-20.407 2.522-5.282c3.085-6.46 4.685-13.53 4.685-20.693v-17.583c0-2.697 1.169-5.265 3.2-7.036 5.193-4.527 13.329-2.069 15.142 4.578l0.887 3.243c1.92 5.030 8.823 5.568 11.503 0.896l0.119-0.209c0.26-0.457 0.576-0.879 0.939-1.259l6.895-7.215c2.594-2.718 6.831-3.021 9.788-0.7 2.598 2.039 6.238 2.082 8.883 0.107l5.692-4.258c4.186-3.132 6.652-8.051 6.652-13.278v-22.848c0-10.688 3.733-24.196 14.421-24.196 3.081 0 3.554-2.876 2.961-6.323-0.99-5.747-1.306-11.806 1.485-16.926l2.214-4.053c1.818-3.332 5.316-5.406 9.114-5.406 2.24 0 4.42-0.725 6.217-2.069l14.059-10.513c14.212-11.571 25.442-26.385 32.738-43.196l0.909-2.091 1.267-2.121c4.599-7.701 15.923-7.177 19.789 0.917l0.286 0.593c0.192 0.405 0.337 0.832 0.431 1.271 1.22 5.769 9.34 6.080 11.004 0.422l2.462-8.38c0.525-1.788 0.401-3.703-0.35-5.406l-7.369-16.708c-3.866-8.772-5.491-18.364-4.732-27.917l3.038-38.174c0.405-5.090 0.307-10.206-0.299-15.279l-0.375-3.132c-2.249-18.846 2.594-38.417 15.706-52.143 2.697-2.82 0.828-8.277-1.634-12.732-1.869-3.379-4.783-6.003-7.949-8.213-6.276-4.382-13.747-6.729-21.406-6.729h-17.694c-2.752 0-5.466-0.67-7.906-1.946-3.793-1.984-6.699-5.325-8.145-9.357l-4.962-13.858-2.662-6.967c-1.404-3.665-3.814-6.861-6.959-9.212-7.168-5.363-17.143-5.658-23.407 0.734-3.2 3.264-6.157 6.903-7.829 10.411-4.809 10.065-12.019 10.065-14.421 15.1-1.062 2.219-3.149 1.476-5.21-0.196-3.196-2.598-6.848-4.838-10.961-4.838h-1.98c-2.223 0-4.348 0.909-5.884 2.517-1.536 1.604-3.661 2.517-5.884 2.517h-1.425c-1.523 0-3.029-0.303-4.429-0.892l-2.688-1.126c-4.698-1.967-9.873-2.509-14.878-1.553l-5.547 1.054c-8.619 1.638-17.536 0.708-25.63-2.684l-9.207-3.853c-9.523-3.989-19.75-6.046-30.080-6.046h-366.488v163.541h-151.413z" />
<glyph unicode="&#xe914;" glyph-name="icon-south-australia" d="M1024-33.95v993.95h-1024v-448.875h170.191c20.294 0 40.005-6.793 55.993-19.29s35.7-19.29 55.994-19.29h1.829c16.030 0 31.807-4.002 45.897-11.648l12.45-6.758c7.494-4.066 15.606-6.869 24.011-8.303l21.946-3.746c16.491-2.812 29.845-14.95 34.215-31.095 3.281-12.122 11.706-22.199 23.056-27.58l5.666-2.684c8.823-4.177 16.414-10.573 22.029-18.556l11.499-16.341c3.042-4.322 6.899-8.013 11.354-10.859 6.345-4.062 11.439-9.801 14.711-16.585l17.882-37.026c3.26-6.754 0.444-14.869-6.293-18.155-8.243-4.015-10.24-14.865-3.968-21.551l2.436-2.594c0.922-0.981 1.95-1.839 3.089-2.556 11.537-7.279 33.165-19.964 39.42-19.964 3.243 0 9.276 3.405 15.543 7.693 11.887 8.132 20.254 20.271 25.818 33.553 7.846 18.731 21.73 34.249 39.147 44.698 18.257 10.957 36.621 22.643 38.754 26.278 4.113 7.014 12.339 10.522 12.339 28.053 0 13.047 21.346 27.11 34.257 33.711 1.719 0.879 2.953 2.487 3.285 4.386l6.43 36.561c0.576 3.26 5.376 2.837 5.376-0.469 0-0.358 0.073-0.717 0.209-1.045l16.243-38.788c2.223-5.303-0.512-11.383-5.956-13.239-5.602-1.911-8.299-8.265-5.786-13.623l6.208-13.239c3.43-7.313 2.782-15.889-1.719-22.605l-3.806-5.683c-3.529-5.265-8.418-9.481-14.148-12.194l-2.479-1.173c-15.74-7.458-25.779-23.322-25.779-40.742v-8.811c0-3.127 0.653-6.221 1.911-9.084 5.513-12.535-1.318-27.051-14.49-30.797l-6.097-1.732c-3.913-1.109-8.068-1.045-11.942 0.196l-3.789 1.212c-11.456 3.665-23.168-4.885-23.168-16.917 0-9.805 7.953-17.758 17.758-17.758h11.823c2.206 0 4.407 0.247 6.558 0.738l27.213 6.187c18.27 4.156 31.236 20.399 31.236 39.134v2.368c0 2.765 0.448 5.513 1.327 8.137l2.394 7.151c5.457 16.277 26.829 19.951 37.402 6.426l3.238-4.343c14.831-19.87 13.474-47.475-3.238-65.796l-7.957-7.919c-7.991-7.949-5.393-21.457 4.975-25.877 1.967-0.841 4.087-1.271 6.229-1.271h4.894c2.79 0 5.568 0.307 8.311 0.811 11.738 2.15 29.978 4.169 32.9-0.811 0.947-1.617 2.603-3.277 4.612-4.873 9.583-7.612 20.86-12.924 30.571-20.378l14.434-11.081c7.945-6.093 14.404-13.905 18.897-22.848l12.514-24.896c3.281-6.532 2.705-14.345-1.502-20.322-3.477-4.945-4.514-11.2-2.812-16.998l6.14-20.941c2.317-7.906 6.11-15.3 11.183-21.786l3.093-3.959c3.776-4.83 8.030-9.267 12.693-13.244l29.798-25.408c5.436-4.638 12.352-7.185 19.499-7.185 16.597 0 30.050 13.453 30.050 30.050z" />
<glyph unicode="&#xe915;" glyph-name="icon-tasmania" d="M262.244 636.417l-187.317 88.304-74.927-185.437c24.976-38.264 74.927-121.86 74.927-150.118 0-35.32 112.39-167.776 124.878-220.758 9.99-42.385 70.764-111.849 99.902-141.283l137.365-70.644 124.879 70.644 137.368-26.493 62.439 79.475 124.875-79.475v123.625l74.928 97.133 62.439 114.794-62.439 203.1 62.439 185.437c-33.3 58.869-107.397 181.905-137.368 203.098s-62.435 8.83-74.924 0l74.924-123.625v-167.777l-262.242-44.152-187.318-52.982-174.828 97.134z" />
<glyph unicode="&#xe916;" glyph-name="icon-tripadvisor" d="M627.502 737.319c28.578-3.979 56.567-11.046 84.224-19.412 48.276-14.636 93.833-34.969 136.676-61.346 2.984-1.82 6.96-2.975 10.473-2.975 50.324-0.205 100.628-0.134 150.909-0.174 4.053 0 8.084-0.421 12.126-0.646 0-0.97 0.145-1.38-0.023-1.604-2.347-3.561-4.727-7.068-7.086-10.618-17.070-25.774-31.653-52.733-40.266-82.537-0.936-3.2-1.132-5.879 1.070-9.020 44.797-63.332 59.093-132.858 40.371-207.807-16.415-65.735-54.687-116.986-112.845-153.273-41.566-25.947-87.487-38.303-136.542-38.571-20.611-0.122-41.119 2.608-61.255 7.743-49.055 12.53-91.11 36.605-125.767 73.068-4.571 4.787-8.872 9.788-13.744 15.198-18.327-26.889-36.363-53.336-54.835-80.481-18.398 27.062-36.184 53.254-53.928 79.346-1.226-0.634-1.579-0.705-1.818-0.93-0.407-0.327-0.748-0.725-1.070-1.106-41.921-48.734-94.655-78.609-158.899-88.602-35.739-5.575-71.135-3.57-105.844 5.851-49.192 13.306-90.997 38.855-124.772 76.553-33.006 36.861-53.534 79.656-61.243 128.307-8.82 45.412 1.922 89.196 4.602 99.823 7.771 30.888 21.318 59.25 39.914 85.33 1.309 1.852 1.766 5.123 1.143 7.333-7.584 27.381-20.653 52.284-35.956 76.134-3.885 6.067-8.54 11.682-12.841 17.502 0 0.663 0 1.348 0 2.022 0.862-0.1 1.714-0.265 2.556-0.265 51.488-0.020 102.965-0.040 154.453 0.063 2.244 0 4.737 0.91 6.649 2.116 36.175 22.848 74.718 40.951 115.214 55.045 29.204 10.146 59.019 18.062 89.429 23.861 29.443 5.605 59.039 9.552 88.949 11.496 72.92 5.523 131.203-2.076 169.975-7.425zM562.955 402.554c0-111.306 91.733-202.243 204.39-201.813 113.087 0.401 204.405 88.778 204.322 201.313-0.085 115.974-95.642 203.153-208.705 200.895-111.619-2.281-198.989-90.854-200.007-200.394zM256.365 603.713c-109.978 0.942-205.868-89.421-203.946-204.524 1.787-107.338 91.652-198.335 206.232-197.365 112.034 0.942 202.087 91.008 202.294 200.075 0.176 112.057-90.977 201.813-204.58 201.813zM266.505 656.222c62.125-3.732 116.699-25.045 162.804-66.327 46.015-41.196 72.974-92.59 82.77-153.025 10.078 59.719 36.329 110.632 81.482 151.421 45.221 40.829 99.069 62.256 160.176 66.788-72.516 31.736-148.978 45.216-227.686 46.709-89.449 1.728-176.455-11.251-259.547-45.566zM766.919 529.55c69.97 0.114 126.64-55.381 126.64-124.194 0-69.077-55.706-122.476-121.426-124.942-73.398-2.77-132.127 54.801-132.105 124.635 0.063 70.633 59.207 125.668 126.891 124.501zM849.448 405.049c-0.031 44.9-36.901 81.394-82.196 81.394-45.815 0-83.112-36.301-83.3-81.067-0.165-44.572 37.316-81.658 82.708-81.781 45.46-0.174 82.81 36.636 82.788 81.454zM253.665 529.55c69.927 0.071 126.682-55.526 126.506-124.328-0.196-69.641-55.956-121.873-120.522-124.769-73.689-3.314-133.145 54.514-133.010 124.729 0.145 71.134 59.695 125.554 127.026 124.368zM336.102 405.325c-0.137 45.175-37.245 81.186-83.57 81.106-44.683-0.082-82.125-37.208-82.021-81.362 0.114-44.663 37.515-81.391 83.029-81.516 45.234-0.102 82.676 36.983 82.562 81.772zM766.987 446.376c23.191 0.020 42.2-18.708 41.984-41.404-0.23-22.744-18.918-41.176-41.722-41.185-23.481 0-42.357 18.264-42.305 40.9 0.043 23.481 18.378 41.668 42.044 41.688zM253.457 446.737c23.541 0.020 42.459-18.492 42.553-41.597 0.094-22.909-19.001-41.719-42.429-41.771-23.988-0.051-42.491 18.196-42.47 41.936 0 23.307 18.461 41.401 42.346 41.432z" />
<glyph unicode="&#xe917;" d="M950.857 496.762c0-242.374-196.483-438.857-438.857-438.857s-438.857 196.483-438.857 438.857c0 242.374 196.483 438.857 438.857 438.857s438.857-196.483 438.857-438.857z" />
<glyph unicode="&#xe918;" d="M707.048 617.716c-14.507-6.363-29.964-10.581-46.080-12.629 16.579 9.899 29.233 25.454 35.182 44.203-15.458-9.216-32.524-15.726-50.712-19.358-14.677 15.628-35.596 25.307-58.417 25.307-44.276 0-79.921-35.938-79.921-79.994 0-6.339 0.536-12.434 1.853-18.237-66.487 3.243-125.318 35.109-164.84 83.651-6.9-11.971-10.947-25.673-10.947-40.424 0-27.697 14.263-52.248 35.523-66.462-12.849 0.244-25.454 3.974-36.133 9.85 0-0.244 0-0.561 0-0.878 0-38.863 27.721-71.144 64.073-78.58-6.51-1.78-13.605-2.633-20.968-2.633-5.12 0-10.289 0.293-15.141 1.365 10.362-31.671 39.765-54.955 74.728-55.71-27.209-21.285-61.757-34.109-99.157-34.109-6.558 0-12.849 0.293-19.139 1.097 35.426-22.845 77.41-35.889 122.685-35.889 147.163 0 227.621 121.905 227.621 227.572 0 3.535-0.122 6.949-0.293 10.338 15.872 11.264 29.208 25.332 40.082 41.521z" />
<glyph unicode="&#xe919;" glyph-name="icon-victoria-1" d="M213.333-64v765.637l28.444-6.302 22.124 12.603-28.445 25.206 18.963 9.452 9.482 31.508 18.963 9.452 15.802 6.301-15.802 34.659v25.206l28.445 6.302 9.481 22.055h28.445l41.086-3.151h18.963l18.963 12.603v25.206l-37.926 9.452-6.321 22.055 22.124 15.754 41.086-9.452 18.963-22.055 60.049-25.206h50.568l37.926-15.754 28.445 15.754 25.284 18.905 15.799 15.754 28.446 22.055v-37.809l-9.481-18.905 15.804-15.754 18.961-9.452-6.323-22.055-18.961-18.905-12.642-25.206-25.284-3.151v-15.754l28.446-3.151h22.123l6.319-15.754 6.323-18.905 6.319-12.603-22.123-3.151-18.961 3.151-6.323 15.754-12.642 15.754-9.481-15.754-22.123-44.111v-18.905c8.427-5.251 26.547-18.274 31.603-28.357 5.060-10.083 21.073-4.201 28.446 0l12.642-9.452c1.054-3.151 2.53-10.083 0-12.603s-5.269-9.452-6.319-12.603h12.638l9.485 6.301 15.799 12.603 15.804-31.508 31.607-6.302 6.319-25.206v-652.209h-597.333z" />
<glyph unicode="&#xe91a;" glyph-name="icon-victoria" d="M896.051 379.126c32.566-20.131 70.234-43.168 96.499-58.598 15.533-9.126 20.771-31.731 10.048-46.208-4.218-5.693-10.493-9.507-17.485-10.63l-54.595-8.774c-8.544-1.373-17.184-2.064-25.834-2.064h-11.92c-48.218 0-94.131-20.618-126.163-56.656l-61.552-62.95-64.909-52.157c-8.79-7.062-19.325-11.622-30.493-13.194-17.629-2.477-35.478 2.666-49.085 14.147l-26.259 22.154c-12.595 10.63-28.547 16.461-45.030 16.461h-19.789c-10.189 0-19.747 4.931-25.651 13.235-7.766 10.918-7.766 25.562 0 36.48l2.477 3.482c4.512 6.346 6.934 13.936 6.934 21.722v18.928c0 4.47-1.392 8.832-3.984 12.477-8.819 12.403-27.37 11.994-35.632-0.787l-24.675-38.166c-1.898-2.938-4.086-5.68-6.534-8.179l-51.898-53.078c-3.974-4.067-8.317-7.757-12.968-11.030l-9.794-6.886c-17.62-12.387-40.032-15.795-60.539-9.206-4.395 1.414-8.636 3.267-12.659 5.53l-76.572 43.072c-4.598 2.586-9.388 4.816-14.328 6.669l-58.275 21.853c-10.682 4.003-22.716 0.122-29.044-9.37-10.297-15.443-33.349-14.314-42.085 2.064l-9.891 18.547c-2.867 5.376-4.367 11.373-4.367 17.466v578.444c0 16.124 13.071 29.196 29.196 29.196 2.903 0 5.789 0.433 8.564 1.284l5.666 1.738c30.333 9.307 63.095-3.365 79.271-30.661l1.374-2.319c3.074-5.188 6.787-9.97 11.051-14.234l20.199-20.199c15.2-15.201 35.817-23.74 57.314-23.74 17.975 0 35.276-6.842 48.389-19.135l0.757-0.71c8.162-7.652 17.966-13.336 28.662-16.618l45.295-13.897 37.219-13.958c8.726-3.272 16.998-7.64 24.621-12.999l9.296-6.535c15.478-10.884 26.554-26.968 31.213-45.309 8.912-35.090 40.509-59.691 76.71-59.691h4.698c15.2 0 30.080 4.37 42.867 12.59 12.784 8.22 27.664 12.59 42.867 12.59h19.898c8.224 0 16.157-3.044 22.269-8.545 10.963-9.866 27.11-11.343 39.68-3.629l19.072 11.704c13.677 8.392 30.029 11.272 45.75 8.057l7.51-1.536c19.101-3.907 36.205-14.439 48.291-29.736l8.803-11.142c11.35-14.366 19.309-31.11 23.28-48.982l6.15-27.68c6.525-29.354 24.541-54.88 50.118-70.694z" />
<glyph unicode="&#xe91b;" glyph-name="icon-western-australia" d="M1002.667 120.064v789.159h-37.743l-20.322-8.463-5.807 29.62-20.326 16.926-37.743 12.694-49.357-6.347-26.129-12.694-55.164-27.504-37.743-33.851 8.708-25.388 17.421-19.041h-26.129l-11.614 8.463-34.842 19.041-11.614-23.273 29.035-19.041-17.421-4.231 14.515-12.694-14.515-8.463-14.515 27.504-20.326 25.388-40.644-31.735-8.713-21.157 11.614-19.041-2.901-10.578-31.936-16.926v-23.273l-40.649-27.504-40.649-6.347-34.839-12.694-34.84 6.347-29.034-19.041-37.743-4.232-58.067-10.578-34.84 4.231-46.453-25.388-23.227-19.041-43.55-8.463-14.517-16.925-2.903-14.81-20.323-4.231-8.71 35.967-17.42-27.504v-35.967l8.71-19.039-20.324-14.814-5.807-33.847 17.42-14.814v-21.154l17.42-14.81c4.839-9.169 13.356-29.197 8.71-35.968s-1.935-9.873 0-10.577l-26.13-4.233-23.227 23.27-26.13 27.507c2.903-10.581 9.871-32.585 14.517-35.968s25.162-21.158 34.84-29.619l26.13-33.852v-29.619l26.13-19.042 17.42-33.852 11.613-23.27 11.613-55.010 46.454-65.587h-11.613l-8.71-23.27 8.71-25.391v-16.926l-17.42-16.926h-29.033v-27.503c6.775-4.233 23.808-12.271 37.744-10.577 13.936 1.69 25.162-11.989 29.033-19.042 16.452-6.349 54.002-19.042 72.584-19.042h55.164c4.839 5.641 15.098 17.348 17.42 19.042s45.486 9.169 66.777 12.693l-5.807 16.926 26.13 14.81 26.129-6.349 46.455 10.581 72.585-4.233h84.194l29.035 29.619 20.322 29.619 55.168 19.042 40.644 16.926 46.455-16.926 84.194 16.926 46.455 25.387z" />
<glyph unicode="&#xe91c;" glyph-name="cart" d="M329.922 297.99h0.047c0.039 0 0.079 0.011 0.117 0.011h543.915c13.392 0 25.162 8.88 28.843 21.754l120.001 420.003c2.583 9.054 0.774 18.789-4.892 26.304-5.672 7.516-14.541 11.938-23.95 11.938h-733.268l-21.445 96.508c-3.054 13.726-15.226 23.492-29.289 23.492h-180c-16.57 0-30-13.43-30-30s13.43-30 30-30h155.937c3.797-17.101 102.625-461.834 108.312-487.422-31.883-13.858-54.25-45.648-54.25-82.58 0-49.624 40.375-89.998 90-89.998h544.001c16.572 0 29.998 13.431 29.998 29.998 0 16.572-13.426 30.003-29.998 30.003h-544.001c-16.539 0-30 13.46-30 29.998 0 16.521 13.414 29.958 29.922 29.992v0zM954.226 718l-102.861-359.998h-497.303l-80 359.998h680.164zM300 88.001c0-49.624 40.375-89.998 90-89.998s90 40.374 90 89.998c0 49.63-40.375 90.004-90 90.004s-90-40.374-90-90.004zM390 118.005c16.539 0 30-13.46 30-30.003 0-16.538-13.461-29.998-30-29.998s-30 13.46-30 29.998c0 16.543 13.461 30.003 30 30.003zM724.002 88.001c0-49.624 40.374-89.998 89.998-89.998s89.998 40.374 89.998 89.998c0 49.63-40.374 90.004-89.998 90.004s-89.998-40.374-89.998-90.004zM814 118.005c16.538 0 29.998-13.46 29.998-30.003 0-16.538-13.46-29.998-29.998-29.998s-30.003 13.46-30.003 29.998c0 16.543 13.466 30.003 30.003 30.003z" />
<glyph unicode="&#xe91d;" glyph-name="icon-envelope" d="M932.557 45.713c23.023 0 42.965 7.595 59.921 22.605l-290.116 290.127c-6.961-4.984-13.707-9.831-20.080-14.44-21.711-15.996-39.332-28.477-52.863-37.422-13.529-8.965-31.529-18.103-53.998-27.431-22.484-9.341-43.431-13.996-62.863-13.996h-1.138c-19.433 0-40.381 4.653-62.863 13.996-22.483 9.329-40.483 18.466-53.999 27.431-13.529 8.945-31.14 21.425-52.862 37.422-6.054 4.438-12.767 9.307-20.024 14.519l-290.172-290.206c16.953-15.010 36.911-22.605 59.927-22.605h841.13zM57.72 541.139c-21.709 14.473-40.96 31.049-57.72 49.72v-441.404l255.706 255.706c-51.156 35.714-117.067 80.987-197.986 135.977zM966.878 541.139c-77.833-52.681-143.984-98.032-198.461-136.079l255.601-255.615v441.415c-16.384-18.295-35.43-34.86-57.139-49.72zM932.557 850.286h-841.134c-29.344 0-51.905-9.909-67.709-29.706-15.818-19.808-23.713-44.579-23.713-74.286 0-23.996 10.478-49.995 31.425-78.007 20.947-28 43.236-49.994 66.856-65.992 12.949-9.149 51.999-36.297 117.148-81.432 35.169-24.371 65.754-45.614 92.036-63.945 22.403-15.609 41.723-29.127 57.674-40.345 1.831-1.284 4.711-3.344 8.533-6.077 4.118-2.958 9.329-6.711 15.759-11.354 12.379-8.954 22.665-16.191 30.856-21.72 8.18-5.531 18.092-11.709 29.718-18.569 11.618-6.851 22.576-12.003 32.86-15.429 10.287-3.424 19.809-5.142 28.57-5.142h1.137c8.759 0 18.283 1.718 28.571 5.142 10.283 3.426 21.231 8.567 32.858 15.429 11.616 6.86 21.513 13.051 29.72 18.569 8.191 5.529 18.476 12.764 30.858 21.72 6.415 4.642 11.627 8.398 15.745 11.344 3.824 2.744 6.702 4.791 8.544 6.087 12.426 8.647 31.791 22.109 57.827 40.187 47.374 32.916 117.144 81.363 209.605 145.535 27.802 19.422 51.038 42.86 69.709 70.281 18.637 27.42 27.981 56.183 27.981 86.279 0 25.144-9.062 46.66-27.136 64.58-18.108 17.898-39.535 26.851-64.299 26.851z" />
</font>
</defs>
</svg>
