<svg width="129" height="60" viewBox="0 0 129 60" fill="none" xmlns="http://www.w3.org/2000/svg">
<path d="M58.5 30.1918C58.5 45.8363 45.75 58.5009 30 58.5009C14.25 58.5009 1.5 45.8363 1.5 30.1918C1.5 14.5472 14.25 1.88257 30 1.88257C45.75 1.88257 58.5 14.5472 58.5 30.1918Z" fill="url(#paint0_linear)" stroke="white" stroke-width="2.03415"/>
<path d="M58.5 29.8092C58.5 45.4537 45.75 58.1184 30 58.1184C14.25 58.1184 1.5 45.4537 1.5 29.8092C1.5 14.1646 14.25 1.5 30 1.5C45.75 1.5 58.5 14.1646 58.5 29.8092Z" stroke="white" stroke-width="2.68734"/>
<path fill-rule="evenodd" clip-rule="evenodd" d="M39.8695 14.3635C39.8226 13.991 36.1664 14.41 32.557 15.0619C28.9476 15.7137 25.3851 16.5518 25.4789 16.9709C26.0414 19.8577 26.6039 22.6514 27.1664 25.445C27.7289 28.1921 28.2445 30.8927 28.807 33.5932C28.807 34.3382 29.0882 36.061 29.4632 38.0631C29.557 38.6218 30.4945 38.8546 31.7601 38.9012C33.0726 38.9478 34.7601 38.7615 36.4476 38.4821C37.1976 38.3425 37.9476 38.2028 38.6507 38.0165C40.0101 37.6906 41.2757 37.2716 42.1195 36.8525C43.0101 36.4335 43.5257 35.9678 43.4789 35.5022C43.2914 34.152 42.9632 32.1964 42.5882 30.9858C42.1664 28.2853 41.7445 25.5847 41.3226 22.8376C40.8539 20.0439 40.3851 17.2037 39.8695 14.3635Z" fill="white"/>
<path fill-rule="evenodd" clip-rule="evenodd" d="M26.4631 20.044C26.9788 22.5584 27.4475 24.933 27.9163 27.4007C28.4319 29.9616 28.9475 32.569 29.51 35.3161C29.6506 35.968 32.9319 35.6886 36.1663 35.1299C39.4006 34.5246 42.5413 33.5933 42.4475 32.9881C42.0256 30.2409 41.6506 27.6335 41.2756 25.0261C40.9006 22.6049 40.4319 19.9044 40.0569 17.6694C40.01 17.5297 36.635 18.0419 33.2131 18.6472C29.8381 19.2059 26.51 19.8578 26.4631 20.044Z" fill="#BFD457"/>
<path fill-rule="evenodd" clip-rule="evenodd" d="M39.6819 15.4345C39.635 15.1551 36.2131 15.5276 32.7913 16.1329C29.3694 16.7382 25.9944 17.4832 26.0413 17.7626C26.2756 18.8335 26.2756 19.0197 26.51 20.0441C26.4631 19.9044 29.8381 19.206 33.26 18.6007C36.635 17.9954 40.0569 17.4366 40.1038 17.6229C39.8694 16.5985 39.8694 16.5054 39.6819 15.4345Z" fill="white"/>
<path fill-rule="evenodd" clip-rule="evenodd" d="M29.6038 16.738C28.7131 16.9243 27.8694 17.1105 27.26 17.2502L27.7288 19.6248C28.3381 19.4851 29.1819 19.2989 30.0725 19.1592L29.6038 16.738Z" fill="white"/>
<path fill-rule="evenodd" clip-rule="evenodd" d="M28.9946 35.5488C29.0884 36.2938 29.2759 37.1319 29.4165 38.0631C29.5103 38.6219 30.4478 38.8547 31.7134 38.9012C33.0259 38.9478 34.7134 38.7616 36.4009 38.4822C37.1509 38.3425 37.9009 38.2028 38.604 38.0166C39.9634 37.6906 41.229 37.2716 42.0728 36.8525C42.9634 36.4335 43.479 35.9679 43.4321 35.5023C43.3384 34.7573 43.1978 33.8261 43.0103 32.9414C42.7759 33.2208 42.354 33.5001 41.7915 33.7795C40.854 34.1986 39.5884 34.6176 38.1353 34.9901C37.3853 35.1763 36.5884 35.316 35.7915 35.4557C34.0103 35.7816 32.229 35.9213 30.8696 35.9213C30.0728 35.8748 29.4165 35.7816 28.9946 35.5488Z" fill="white"/>
<path fill-rule="evenodd" clip-rule="evenodd" d="M31.4321 38.8548C31.5259 38.8548 31.6196 38.8548 31.7603 38.8548C32.3696 38.8548 33.0727 38.8548 33.8696 38.8082C33.8696 38.8082 33.8696 38.8082 33.8696 38.7616C33.4477 37.6442 33.4009 36.713 33.2603 35.7817C32.4165 35.8749 31.6665 35.8749 31.0103 35.8749C30.9634 35.8749 30.9165 35.8749 30.8696 35.8749C30.9165 36.8526 31.2915 38.6685 31.4321 38.8548Z" fill="white"/>
<path fill-rule="evenodd" clip-rule="evenodd" d="M48.8226 21.2081C49.1507 24.0018 48.5413 27.0283 44.4163 31.6844C43.6663 32.4294 43.6663 33.2675 43.1507 33.2675C42.6351 33.1278 41.9788 29.7754 42.4007 29.4495C42.7757 29.3098 42.9632 30.241 43.4319 29.822C45.9163 27.6336 47.4632 24.2346 47.2288 21.5806C46.9476 18.0885 42.9163 16.5986 41.8851 20.2769C42.1194 22.4653 41.6038 22.6981 41.2288 22.7912C40.7132 21.7669 40.1976 19.5319 40.3851 17.8557C40.6194 17.6229 40.8538 18.3213 41.3226 17.9023C44.2757 15.2949 48.4007 17.2039 48.8226 21.2081Z" fill="white"/>
<path fill-rule="evenodd" clip-rule="evenodd" d="M43.1976 33.5002C43.1976 33.407 43.1507 33.3139 43.1507 33.2674C42.6351 33.1277 41.9789 29.7753 42.4007 29.4493L42.3538 29.0768C42.307 29.0768 42.2601 29.0303 42.2132 29.0768C41.8382 29.1234 41.7445 30.1943 41.9789 31.4515C42.2132 32.7086 42.7288 33.6398 43.1038 33.5933C43.1038 33.5467 43.1507 33.5467 43.1976 33.5002Z" fill="white"/>
<path fill-rule="evenodd" clip-rule="evenodd" d="M40.2914 14.5964C40.3383 14.8292 40.4321 15.5742 40.1039 15.7604C40.0571 15.5742 40.0571 15.3879 40.0102 15.2483C39.9633 15.1086 39.4008 15.1086 38.5102 15.1551C37.0571 15.2948 33.2602 15.7139 31.9477 17.9488C31.2914 19.0663 31.1977 21.2081 29.9789 21.3943C28.6196 21.6271 26.9321 18.0885 26.6508 17.3435C26.0414 17.5298 25.6664 17.716 25.6664 17.8557C25.7133 18.0419 25.7602 18.2282 25.7602 18.4144C25.2446 18.3213 25.1039 17.5763 25.0102 17.3435C24.8696 16.7382 24.9164 16.1329 25.3852 15.6208C25.7133 15.2483 26.2758 14.9223 26.9321 14.5498C27.4008 14.317 28.3383 14.1774 28.9477 13.9446C30.0258 13.5721 31.0102 13.1996 32.1352 13.0133C32.8383 12.8736 33.6352 12.8736 34.4321 12.8271C35.5102 12.734 36.4946 12.5943 37.3383 12.6408C37.9946 12.6874 38.5102 13.0133 38.9321 13.1996C39.6821 13.5255 40.1508 13.7117 40.2914 14.5964Z" fill="white"/>
<path fill-rule="evenodd" clip-rule="evenodd" d="M25.6189 17.809L25.6658 17.9487V17.9953V18.0419V18.0884V18.135V18.2281C25.3845 18.1815 25.197 17.9487 25.1033 17.7159L25.5252 17.6228L25.6189 17.809Z" fill="white"/>
<path fill-rule="evenodd" clip-rule="evenodd" d="M40.104 15.7605C40.2915 15.6674 40.3384 15.388 40.3384 15.1086L40.0103 15.2018C40.0571 15.4346 40.0571 15.5743 40.104 15.7605Z" fill="white"/>
<path fill-rule="evenodd" clip-rule="evenodd" d="M31.2913 19.5784C31.2913 19.6715 31.2444 19.7646 31.2444 19.8577C31.1506 20.3233 30.5881 22.0927 30.6819 22.5583C30.7288 22.8377 30.8694 23.0239 30.8694 23.3033C30.9163 23.5361 30.4475 23.7689 30.4006 23.3498C30.3069 22.9308 30.4475 22.8842 30.3069 22.5117C30.1663 22.1392 29.3225 21.3477 29.135 21.1614C28.9944 21.0218 29.135 21.1614 29.135 21.1614C29.4163 21.3477 29.6975 21.4408 29.9319 21.3943C30.6819 21.2546 31.01 20.463 31.2913 19.5784Z" fill="white"/>
<path fill-rule="evenodd" clip-rule="evenodd" d="M36.4006 16.4588L36.6818 17.9953C36.7756 17.9953 36.9162 17.9487 37.01 17.9487L36.7756 16.5985C36.4944 15.481 36.3069 15.2947 36.4006 16.4588Z" fill="white"/>
<path fill-rule="evenodd" clip-rule="evenodd" d="M38.4164 13.6185C38.6976 13.3392 38.7445 13.246 38.3226 12.9201C38.3226 12.5942 37.8539 12.4545 37.6664 12.5942C37.5257 11.9889 37.3382 11.8958 36.9632 11.8026C36.5882 11.7561 36.0726 11.7095 36.0257 11.9889C35.8382 11.4302 34.9476 11.2439 34.4789 11.8492C34.1507 11.4302 33.0726 11.7561 33.2132 12.2683C32.4632 11.337 31.1039 12.3614 31.4789 12.6407C31.1976 12.1751 30.0257 12.6407 30.2601 13.1995C29.6976 12.6873 29.1351 12.5476 28.4789 13.4323C28.2445 13.2926 27.682 13.6651 27.7757 13.8979C27.0257 13.9445 26.5101 14.0841 26.3695 14.7826C25.9476 14.8291 25.6664 15.0619 26.0414 15.3879C27.0726 15.4344 28.5257 15.481 29.5101 15.5275C30.4007 15.3879 31.2445 15.2947 32.1351 15.155C33.3539 15.0619 34.5726 14.9688 35.7445 14.8291C36.6351 14.4566 37.5257 14.0376 38.4164 13.6185Z" fill="white"/>
<path fill-rule="evenodd" clip-rule="evenodd" d="M37.432 17.9487L38.0882 21.953L38.9789 31.2186L37.1507 22.0926L36.4007 18.3678C36.2601 17.6228 36.4476 17.6693 36.682 17.5297C37.0101 17.4365 37.2914 16.9709 37.432 17.9487Z" fill="white"/>
<path fill-rule="evenodd" clip-rule="evenodd" d="M18.8225 23.0705C18.8694 22.698 22.5256 23.1171 26.135 23.7689C29.7444 24.4208 33.3069 25.2589 33.2131 25.6779C32.6506 28.5647 32.0881 31.3584 31.5256 34.1521C30.9631 36.8992 30.4475 39.5997 29.885 42.3003C29.885 43.0452 29.6038 44.768 29.2288 46.7701C29.135 47.3289 28.1975 47.5617 26.9319 47.6082C25.6194 47.6548 23.9319 47.4685 22.2444 47.1892C21.4944 47.0495 20.7444 46.9098 20.0413 46.7236C18.6819 46.3976 17.4163 45.9786 16.5725 45.5595C15.6819 45.1405 15.1663 44.6749 15.2131 44.2093C15.4006 42.859 15.7288 40.9034 16.1038 39.6928C16.5256 36.9923 16.9475 34.2917 17.3694 31.5446C17.7913 28.751 18.3069 25.9573 18.8225 23.0705Z" fill="white"/>
<path fill-rule="evenodd" clip-rule="evenodd" d="M32.2288 28.7511C31.7132 31.2654 31.2445 33.6866 30.7757 36.1077C30.2601 38.7152 29.7445 41.276 29.182 44.0231C29.0413 44.675 25.7601 44.3956 22.5257 43.8369C19.2914 43.2316 16.1507 42.3004 16.2445 41.6951C16.6664 38.948 17.0414 36.3405 17.4632 33.7331C17.8382 31.3119 18.307 28.6114 18.682 26.3765C18.7289 26.2368 22.1039 26.749 25.5257 27.3542C28.8539 27.913 32.182 28.6114 32.2288 28.7511Z" fill="#BFD457"/>
<path fill-rule="evenodd" clip-rule="evenodd" d="M19.01 24.1415C19.0569 23.8622 22.4788 24.2347 25.9006 24.84C29.3225 25.4452 32.6975 26.1902 32.6506 26.4696C32.4163 27.5405 32.4163 27.7267 32.1819 28.7511C32.2288 28.6114 28.8069 27.913 25.4319 27.3077C22.0569 26.7024 18.635 26.1437 18.5881 26.3299C18.8225 25.3056 18.8225 25.259 19.01 24.1415Z" fill="white"/>
<path fill-rule="evenodd" clip-rule="evenodd" d="M29.0881 25.4917C29.9788 25.6779 30.8225 25.8642 31.4319 26.0039L30.9631 28.3785C30.3538 28.2388 29.51 28.0526 28.6194 27.9129L29.0881 25.4917Z" fill="white"/>
<path fill-rule="evenodd" clip-rule="evenodd" d="M29.6975 44.2559C29.6038 45.0008 29.4163 45.8389 29.2757 46.7702C29.1819 47.3289 28.2444 47.5617 26.9788 47.6083C25.6663 47.6548 23.9788 47.4686 22.2913 47.1892C21.5413 47.0495 20.7913 46.9098 20.0881 46.7236C18.7288 46.3977 17.4632 45.9786 16.6194 45.5596C15.7288 45.1405 15.2131 44.6749 15.26 44.2093C15.3538 43.4643 15.4944 42.5331 15.6819 41.6484C15.9163 41.9278 16.3381 42.2072 16.9006 42.4865C17.8381 42.9521 19.1506 43.3246 20.5569 43.6971C21.3069 43.8834 22.1038 44.0231 22.9006 44.1627C24.6819 44.4887 26.4631 44.6284 27.8225 44.6284C28.5725 44.5818 29.2756 44.4887 29.6975 44.2559Z" fill="white"/>
<path fill-rule="evenodd" clip-rule="evenodd" d="M27.26 47.6082C27.1663 47.6082 27.0725 47.6082 26.9319 47.6082C26.3225 47.6082 25.6194 47.6082 24.8225 47.5616C24.8225 47.5616 24.8225 47.5616 24.8225 47.5151C25.2444 46.3976 25.2913 45.4664 25.4319 44.5352C26.2756 44.6283 27.0256 44.6283 27.6819 44.6283C27.7288 44.6283 27.7756 44.6283 27.8225 44.6283C27.7288 45.5595 27.4006 47.3754 27.26 47.6082Z" fill="white"/>
<path fill-rule="evenodd" clip-rule="evenodd" d="M9.86945 29.9149C9.54132 32.7085 10.1507 35.735 14.2757 40.3911C15.0257 41.1361 15.0257 41.9742 15.5413 41.9742C16.0569 41.8345 16.7132 38.4821 16.2913 38.1562C15.9163 38.0165 15.7288 38.9477 15.2601 38.5287C12.7757 36.3403 11.2288 32.9413 11.4632 30.2873C11.7444 26.7953 15.7757 25.2587 16.8069 28.9836C16.5726 31.172 17.0882 31.4048 17.4632 31.4979C17.9788 30.4736 18.4944 28.2387 18.3069 26.5625C18.0726 26.3296 17.8382 27.0281 17.3694 26.609C14.4163 24.0482 10.2913 25.9572 9.86945 29.9149Z" fill="white"/>
<path fill-rule="evenodd" clip-rule="evenodd" d="M15.4944 42.2538C15.4944 42.1607 15.5413 42.0676 15.5413 42.021C16.0569 41.8813 16.7131 38.5289 16.2913 38.203L16.3381 37.8305C16.385 37.8305 16.4319 37.7839 16.4788 37.8305C16.8538 37.8771 16.9475 38.948 16.7131 40.2051C16.4788 41.4623 15.9631 42.3935 15.5881 42.3469C15.5413 42.3004 15.5413 42.2538 15.4944 42.2538Z" fill="white"/>
<path fill-rule="evenodd" clip-rule="evenodd" d="M18.4008 23.3499C18.3539 23.5827 18.2601 24.3277 18.5883 24.5139C18.6351 24.3277 18.6351 24.1414 18.682 24.0018C18.7289 23.8621 19.2914 23.8621 20.182 23.9086C21.6351 24.0018 25.432 24.4674 26.7445 26.7023C27.4008 27.8198 27.4945 29.9616 28.7133 30.1478C30.0726 30.3806 31.7601 26.842 32.0883 26.097C32.6976 26.2833 33.0726 26.4695 33.0726 26.6092C33.0258 26.7954 32.9789 26.9817 32.9789 27.1679C33.4945 27.0748 33.682 26.3298 33.7289 26.097C33.8695 25.4917 33.8226 24.8864 33.3539 24.3742C33.0258 24.0018 32.4633 23.6758 31.807 23.3499C31.3383 23.1171 30.4008 22.9774 29.7914 22.7446C28.7133 22.3721 27.7289 21.9996 26.6039 21.8134C25.9008 21.6737 25.1039 21.6737 24.307 21.6271C23.2289 21.534 22.2445 21.3943 21.4008 21.4409C20.7445 21.4875 20.2289 21.8134 19.807 21.9996C19.0101 22.279 18.5414 22.4652 18.4008 23.3499Z" fill="white"/>
<path fill-rule="evenodd" clip-rule="evenodd" d="M33.0725 26.5625L33.0256 26.7021V26.7487V26.7953V26.8418V26.8884V26.9815C33.3069 26.935 33.4944 26.7021 33.5881 26.4693L33.1663 26.3762L33.0725 26.5625Z" fill="white"/>
<path fill-rule="evenodd" clip-rule="evenodd" d="M18.5881 24.4673C18.4006 24.3742 18.3538 24.0948 18.3538 23.8154L18.6819 23.9086C18.635 24.1414 18.635 24.281 18.5881 24.4673Z" fill="white"/>
<path fill-rule="evenodd" clip-rule="evenodd" d="M27.4006 28.2854C27.4006 28.3785 27.4475 28.4716 27.4475 28.5648C27.5413 29.0304 28.1038 30.7997 28.01 31.2653C27.9631 31.5447 27.8225 31.7309 27.8225 32.0103C27.7756 32.2431 28.2444 32.4759 28.2913 32.0569C28.385 31.6378 28.2444 31.5912 28.385 31.2188C28.5256 30.8463 29.3694 30.0547 29.5569 29.8685C29.6975 29.6822 29.5569 29.8685 29.5569 29.8685C29.2756 30.0547 28.9944 30.1478 28.76 30.1013C27.9631 30.0082 27.6819 29.1701 27.4006 28.2854Z" fill="white"/>
<path fill-rule="evenodd" clip-rule="evenodd" d="M22.2444 25.1657L21.9631 26.7022C21.8694 26.7022 21.7288 26.6557 21.635 26.6557L21.8694 25.3054C22.1975 24.2345 22.385 24.0483 22.2444 25.1657Z" fill="white"/>
<path fill-rule="evenodd" clip-rule="evenodd" d="M20.2757 22.3256C19.9944 22.0462 19.9476 21.9531 20.3694 21.6271C20.3694 21.3012 20.8382 21.1615 21.0257 21.3012C21.1663 20.6959 21.3538 20.6028 21.7288 20.5097C22.1038 20.4631 22.6194 20.4166 22.7132 20.6959C22.9007 20.1372 23.7913 19.9509 24.2601 20.5562C24.5882 20.1372 25.6663 20.4631 25.4788 20.9753C26.2288 20.0441 27.5882 21.0684 27.2132 21.3478C27.4944 20.8822 28.6663 21.3478 28.4319 21.9065C28.9944 21.3943 29.5569 21.2547 30.2132 22.1393C30.4476 21.9996 31.0101 22.3721 30.9163 22.6049C31.6663 22.6515 32.1819 22.7912 32.3226 23.4896C32.7444 23.5362 33.0257 23.769 32.6507 24.0949C31.6194 24.1414 30.1663 24.188 29.1819 24.2346C28.2913 24.0949 27.4476 24.0018 26.5569 23.8621C25.3382 23.769 24.1194 23.6758 22.9476 23.5362C22.0101 23.2102 21.1663 22.7446 20.2757 22.3256Z" fill="white"/>
<path fill-rule="evenodd" clip-rule="evenodd" d="M21.26 26.6557L20.6038 30.6599L19.7131 39.9256L21.5413 30.7996L22.2913 27.0747C22.4319 26.3297 22.2444 26.3297 22.01 26.2366C21.635 26.1435 21.4006 25.7244 21.26 26.6557Z" fill="white"/>
<path d="M65.2681 16.8555L65.9483 16.7574L68.8455 8.47775H70.801L73.6786 16.7574L74.3588 16.8555V18H71.1149V16.8555L71.7755 16.7378L71.3569 15.4298H68.27L67.8514 16.7378L68.512 16.8555V18H65.2681V16.8555ZM68.7213 14.0237H70.9056L69.8331 10.6686H69.7938L68.7213 14.0237ZM79.2572 17.104C79.0305 17.4354 78.7493 17.6904 78.4136 17.8692C78.0822 18.048 77.7029 18.1373 77.2756 18.1373C76.53 18.1373 75.9458 17.8997 75.5229 17.4245C75.1 16.9449 74.8885 16.2015 74.8885 15.1943V12.271L74.1102 12.0748V10.9237H74.8885H76.7982V15.2074C76.7982 15.7219 76.8832 16.0925 77.0532 16.3192C77.2276 16.5416 77.4849 16.6528 77.825 16.6528C78.1258 16.6528 78.3852 16.6048 78.6032 16.5089C78.8256 16.4086 79.0065 16.2669 79.146 16.0838V12.271L78.3089 12.0748V10.9237H79.146H81.0557V16.6593L81.9125 16.8555V18H79.3815L79.2572 17.104ZM88.4394 13.3566H87.1576L86.9548 12.4737C86.824 12.3691 86.6583 12.2819 86.4578 12.2121C86.2616 12.1423 86.0436 12.1075 85.8038 12.1075C85.468 12.1075 85.2021 12.1838 85.0059 12.3364C84.8097 12.4846 84.7116 12.6721 84.7116 12.8988C84.7116 13.1124 84.8053 13.2912 84.9928 13.4351C85.1803 13.5746 85.5552 13.6989 86.1177 13.8079C86.9941 13.9823 87.6437 14.2395 88.0666 14.5796C88.4895 14.9153 88.701 15.3796 88.701 15.9726C88.701 16.6092 88.4263 17.1302 87.877 17.5357C87.332 17.9368 86.6126 18.1373 85.7187 18.1373C85.1737 18.1373 84.6723 18.0589 84.2145 17.9019C83.7611 17.7406 83.3578 17.5117 83.0046 17.2152L82.985 15.626H84.3192L84.5808 16.5481C84.6941 16.644 84.8489 16.716 85.0451 16.7639C85.2413 16.8075 85.4462 16.8293 85.6599 16.8293C86.0479 16.8293 86.3422 16.7596 86.5428 16.6201C86.7477 16.4805 86.8502 16.2909 86.8502 16.0511C86.8502 15.8418 86.7477 15.6609 86.5428 15.5083C86.3379 15.3557 85.9607 15.2205 85.4114 15.1028C84.5786 14.9327 83.9486 14.682 83.5213 14.3507C83.0984 14.015 82.8869 13.5593 82.8869 12.9838C82.8869 12.3909 83.1311 11.8807 83.6194 11.4535C84.1077 11.0218 84.8031 10.806 85.7057 10.806C86.255 10.806 86.7739 10.8801 87.2622 11.0283C87.7549 11.1766 88.1407 11.3663 88.4198 11.5973L88.4394 13.3566ZM95.3326 13.3566H94.0507L93.848 12.4737C93.7172 12.3691 93.5515 12.2819 93.3509 12.2121C93.1547 12.1423 92.9367 12.1075 92.6969 12.1075C92.3612 12.1075 92.0953 12.1838 91.8991 12.3364C91.7029 12.4846 91.6048 12.6721 91.6048 12.8988C91.6048 13.1124 91.6985 13.2912 91.886 13.4351C92.0735 13.5746 92.4484 13.6989 93.0109 13.8079C93.8872 13.9823 94.5369 14.2395 94.9598 14.5796C95.3827 14.9153 95.5942 15.3796 95.5942 15.9726C95.5942 16.6092 95.3195 17.1302 94.7701 17.5357C94.2251 17.9368 93.5057 18.1373 92.6119 18.1373C92.0669 18.1373 91.5655 18.0589 91.1077 17.9019C90.6543 17.7406 90.251 17.5117 89.8978 17.2152L89.8782 15.626H91.2124L91.474 16.5481C91.5873 16.644 91.7421 16.716 91.9383 16.7639C92.1345 16.8075 92.3394 16.8293 92.5531 16.8293C92.9411 16.8293 93.2354 16.7596 93.436 16.6201C93.6409 16.4805 93.7433 16.2909 93.7433 16.0511C93.7433 15.8418 93.6409 15.6609 93.436 15.5083C93.231 15.3557 92.8539 15.2205 92.3045 15.1028C91.4718 14.9327 90.8418 14.682 90.4145 14.3507C89.9916 14.015 89.7801 13.5593 89.7801 12.9838C89.7801 12.3909 90.0243 11.8807 90.5126 11.4535C91.0009 11.0218 91.6963 10.806 92.5988 10.806C93.1482 10.806 93.667 10.8801 94.1554 11.0283C94.648 11.1766 95.0339 11.3663 95.3129 11.5973L95.3326 13.3566ZM96.392 16.8555L97.3142 16.6593V12.271L96.2939 12.0748V10.9237H99.2239V16.6593L100.139 16.8555V18H96.392V16.8555ZM99.2239 9.22985H97.3142V7.79758H99.2239V9.22985ZM104.155 18.1373C103.135 18.1373 102.319 17.8103 101.709 17.1563C101.099 16.5023 100.793 15.6718 100.793 14.6646V14.403C100.793 13.3522 101.081 12.4868 101.657 11.8066C102.237 11.1264 103.013 10.7885 103.985 10.7929C104.94 10.7929 105.681 11.0807 106.209 11.6562C106.736 12.2317 107 13.01 107 13.991V15.0308H102.775L102.762 15.0701C102.797 15.5366 102.952 15.9203 103.226 16.2211C103.505 16.522 103.883 16.6724 104.358 16.6724C104.781 16.6724 105.132 16.631 105.411 16.5481C105.69 16.4609 105.995 16.3258 106.326 16.1426L106.843 17.3198C106.551 17.5509 106.172 17.7449 105.705 17.9019C105.243 18.0589 104.726 18.1373 104.155 18.1373ZM103.985 12.2644C103.632 12.2644 103.353 12.3996 103.148 12.6699C102.943 12.9402 102.817 13.2956 102.769 13.7359L102.788 13.7686H105.13V13.5986C105.13 13.1931 105.034 12.8705 104.842 12.6307C104.654 12.3865 104.369 12.2644 103.985 12.2644ZM69.5976 25.4777C70.7181 25.4777 71.5923 25.6957 72.2202 26.1317C72.848 26.5677 73.1619 27.2196 73.1619 28.0872C73.1619 28.5276 73.0442 28.9222 72.8088 29.271C72.5777 29.6154 72.2398 29.8748 71.7951 30.0492C72.3662 30.1713 72.7935 30.4329 73.0769 30.834C73.3647 31.2351 73.5086 31.6995 73.5086 32.227C73.5086 33.1383 73.2077 33.8293 72.606 34.3002C72.0044 34.7667 71.152 35 70.0489 35H65.3662V33.8555L66.3799 33.6593V26.825L65.3662 26.6288V25.4777H66.3799H69.5976ZM68.2896 30.7882V33.535H70.0489C70.5546 33.535 70.9405 33.426 71.2065 33.208C71.4724 32.9857 71.6054 32.6587 71.6054 32.227C71.6054 31.7605 71.492 31.4052 71.2653 31.161C71.0386 30.9125 70.6811 30.7882 70.1928 30.7882H68.2896ZM68.2896 29.4672H69.663C70.1731 29.4672 70.5655 29.3625 70.8402 29.1532C71.1149 28.944 71.2522 28.6388 71.2522 28.2376C71.2522 27.7973 71.1127 27.4724 70.8337 27.2632C70.559 27.0539 70.147 26.9492 69.5976 26.9492H68.2896V29.4672ZM74.4111 33.8555L75.3267 33.6593V29.271L74.313 29.0748V27.9237H77.1056L77.1906 28.957C77.3563 28.5908 77.5699 28.3052 77.8315 28.1003C78.0931 27.8954 78.3961 27.7929 78.7406 27.7929C78.8408 27.7929 78.9455 27.8016 79.0545 27.8191C79.1678 27.8321 79.2616 27.8496 79.3357 27.8714L79.133 29.611L78.3482 29.5914C78.0691 29.5914 77.838 29.6459 77.6549 29.7549C77.4718 29.8639 77.3323 30.0187 77.2364 30.2193V33.6593L78.152 33.8555V35H74.4111V33.8555ZM83.1616 35.1373C82.1414 35.1373 81.326 34.8103 80.7156 34.1563C80.1052 33.5023 79.8 32.6718 79.8 31.6646V31.403C79.8 30.3522 80.0878 29.4868 80.6633 28.8066C81.2432 28.1264 82.0193 27.7885 82.9916 27.7929C83.9464 27.7929 84.6876 28.0807 85.2152 28.6562C85.7427 29.2317 86.0065 30.01 86.0065 30.991V32.0308H81.7817L81.7686 32.0701C81.8035 32.5366 81.9582 32.9203 82.2329 33.2211C82.512 33.522 82.8891 33.6724 83.3643 33.6724C83.7873 33.6724 84.1382 33.631 84.4173 33.5481C84.6963 33.4609 85.0015 33.3258 85.3329 33.1426L85.8496 34.3198C85.5574 34.5509 85.1781 34.7449 84.7116 34.9019C84.2494 35.0589 83.7328 35.1373 83.1616 35.1373ZM82.9916 29.2644C82.6384 29.2644 82.3594 29.3996 82.1544 29.6699C81.9495 29.9402 81.8231 30.2956 81.7751 30.7359L81.7947 30.7686H84.1361V30.5986C84.1361 30.1931 84.0401 29.8705 83.8483 29.6307C83.6608 29.3865 83.3752 29.2644 82.9916 29.2644ZM97.0003 29.0748L96.2874 29.1663L94.8094 35H93.2136L91.8991 30.7882H91.8598L90.5453 35H88.9561L87.4715 29.1663L86.7586 29.0748V27.9237H89.9632V29.0748L89.2111 29.2186L89.8782 32.4559H89.9174L91.2385 27.9237H92.5204L93.8545 32.469H93.8938L94.5543 29.2252L93.7957 29.0748V27.9237H97.0003V29.0748ZM101.042 35.1373C100.022 35.1373 99.2064 34.8103 98.596 34.1563C97.9856 33.5023 97.6804 32.6718 97.6804 31.6646V31.403C97.6804 30.3522 97.9682 29.4868 98.5437 28.8066C99.1236 28.1264 99.8997 27.7885 100.872 27.7929C101.827 27.7929 102.568 28.0807 103.096 28.6562C103.623 29.2317 103.887 30.01 103.887 30.991V32.0308H99.6621L99.649 32.0701C99.6839 32.5366 99.8386 32.9203 100.113 33.2211C100.392 33.522 100.769 33.6724 101.245 33.6724C101.668 33.6724 102.019 33.631 102.298 33.5481C102.577 33.4609 102.882 33.3258 103.213 33.1426L103.73 34.3198C103.438 34.5509 103.058 34.7449 102.592 34.9019C102.13 35.0589 101.613 35.1373 101.042 35.1373ZM100.872 29.2644C100.519 29.2644 100.24 29.3996 100.035 29.6699C99.8299 29.9402 99.7035 30.2956 99.6555 30.7359L99.6751 30.7686H102.016V30.5986C102.016 30.1931 101.921 29.8705 101.729 29.6307C101.541 29.3865 101.256 29.2644 100.872 29.2644ZM104.94 33.8555L105.855 33.6593V29.271L104.842 29.0748V27.9237H107.634L107.719 28.957C107.885 28.5908 108.099 28.3052 108.36 28.1003C108.622 27.8954 108.925 27.7929 109.269 27.7929C109.37 27.7929 109.474 27.8016 109.583 27.8191C109.697 27.8321 109.79 27.8496 109.864 27.8714L109.662 29.611L108.877 29.5914C108.598 29.5914 108.367 29.6459 108.184 29.7549C108.001 29.8639 107.861 30.0187 107.765 30.2193V33.6593L108.681 33.8555V35H104.94V33.8555ZM117.876 29.0748L117.215 29.1729L114.613 36.0595C114.408 36.5696 114.133 36.9969 113.788 37.3413C113.448 37.6858 112.934 37.858 112.245 37.858C112.084 37.858 111.931 37.8449 111.787 37.8187C111.648 37.7926 111.482 37.7555 111.29 37.7076L111.513 36.3145C111.574 36.3233 111.637 36.332 111.702 36.3407C111.768 36.3494 111.824 36.3538 111.872 36.3538C112.191 36.3538 112.435 36.2753 112.605 36.1183C112.775 35.9657 112.906 35.7739 112.997 35.5428L113.213 35.0065L110.97 29.1794L110.309 29.0748V27.9237H113.775V29.0748L112.984 29.2056L113.952 32.0308L114.05 32.541L114.089 32.5475L115.208 29.2056L114.41 29.0748V27.9237H117.876V29.0748ZM73.7505 42.4777V45.0153H72.2856L72.2071 43.9492H70.4544V50.6593L71.4746 50.8555V52H67.5244V50.8555L68.5447 50.6593V43.9492H66.7985L66.72 45.0153H65.2616V42.4777H73.7505ZM73.901 48.3965C73.901 47.3413 74.1953 46.4781 74.7839 45.8066C75.3768 45.1308 76.1943 44.7929 77.2364 44.7929C78.2828 44.7929 79.1003 45.1286 79.6889 45.8001C80.2818 46.4715 80.5783 47.337 80.5783 48.3965V48.5338C80.5783 49.5976 80.2818 50.4653 79.6889 51.1367C79.1003 51.8038 78.2871 52.1373 77.2494 52.1373C76.1987 52.1373 75.3768 51.8038 74.7839 51.1367C74.1953 50.4653 73.901 49.5976 73.901 48.5338V48.3965ZM75.8106 48.5338C75.8106 49.1791 75.924 49.6979 76.1507 50.0903C76.3774 50.4784 76.7437 50.6724 77.2494 50.6724C77.7421 50.6724 78.1018 50.4762 78.3285 50.0838C78.5596 49.6914 78.6752 49.1747 78.6752 48.5338V48.3965C78.6752 47.7686 78.5596 47.2563 78.3285 46.8596C78.0975 46.4628 77.7334 46.2644 77.2364 46.2644C76.7393 46.2644 76.3774 46.4628 76.1507 46.8596C75.924 47.2563 75.8106 47.7686 75.8106 48.3965V48.5338ZM86.3597 51.104C86.133 51.4354 85.8517 51.6904 85.516 51.8692C85.1847 52.048 84.8053 52.1373 84.378 52.1373C83.6325 52.1373 83.0482 51.8997 82.6253 51.4245C82.2024 50.9449 81.9909 50.2015 81.9909 49.1943V46.271L81.2127 46.0748V44.9237H81.9909H83.9006V49.2074C83.9006 49.7219 83.9856 50.0925 84.1557 50.3192C84.3301 50.5416 84.5873 50.6528 84.9274 50.6528C85.2283 50.6528 85.4877 50.6048 85.7057 50.5089C85.928 50.4086 86.109 50.2669 86.2485 50.0838V46.271L85.4114 46.0748V44.9237H86.2485H88.1582V50.6593L89.0149 50.8555V52H86.4839L86.3597 51.104ZM89.9109 50.8555L90.8265 50.6593V46.271L89.8128 46.0748V44.9237H92.6054L92.6904 45.957C92.8561 45.5908 93.0697 45.3052 93.3313 45.1003C93.5929 44.8954 93.8959 44.7929 94.2404 44.7929C94.3407 44.7929 94.4453 44.8016 94.5543 44.8191C94.6677 44.8321 94.7614 44.8496 94.8355 44.8714L94.6328 46.611L93.848 46.5914C93.5689 46.5914 93.3379 46.6459 93.1547 46.7549C92.9716 46.8639 92.8321 47.0187 92.7362 47.2193V50.6593L93.6518 50.8555V52H89.9109V50.8555ZM101.179 47.3566H99.8975L99.6948 46.4737C99.564 46.3691 99.3983 46.2819 99.1977 46.2121C99.0015 46.1423 98.7835 46.1075 98.5437 46.1075C98.208 46.1075 97.942 46.1838 97.7458 46.3364C97.5496 46.4846 97.4515 46.6721 97.4515 46.8988C97.4515 47.1124 97.5453 47.2912 97.7327 47.4351C97.9202 47.5746 98.2952 47.6989 98.8576 47.8079C99.734 47.9823 100.384 48.2395 100.807 48.5796C101.229 48.9153 101.441 49.3796 101.441 49.9726C101.441 50.6092 101.166 51.1302 100.617 51.5357C100.072 51.9368 99.3525 52.1373 98.4587 52.1373C97.9137 52.1373 97.4123 52.0589 96.9545 51.9019C96.501 51.7406 96.0977 51.5117 95.7446 51.2152L95.725 49.626H97.0591L97.3207 50.5481C97.4341 50.644 97.5889 50.716 97.7851 50.7639C97.9813 50.8075 98.1862 50.8293 98.3998 50.8293C98.7879 50.8293 99.0822 50.7596 99.2827 50.6201C99.4877 50.4805 99.5901 50.2909 99.5901 50.0511C99.5901 49.8418 99.4877 49.6609 99.2827 49.5083C99.0778 49.3557 98.7007 49.2205 98.1513 49.1028C97.3185 48.9327 96.6885 48.682 96.2612 48.3507C95.8383 48.015 95.6269 47.5593 95.6269 46.9838C95.6269 46.3909 95.871 45.8807 96.3593 45.4535C96.8477 45.0218 97.5431 44.806 98.4456 44.806C98.995 44.806 99.5138 44.8801 100.002 45.0283C100.495 45.1766 100.881 45.3663 101.16 45.5973L101.179 47.3566Z" fill="black"/>
<defs>
<linearGradient id="paint0_linear" x1="30.0078" y1="1.88168" x2="30.0078" y2="58.524" gradientUnits="userSpaceOnUse">
<stop stop-color="#C1D552"/>
<stop offset="0.1986" stop-color="#B9D052"/>
<stop offset="0.4889" stop-color="#A6C553"/>
<stop offset="0.834" stop-color="#8CB655"/>
<stop offset="1" stop-color="#7FAF55"/>
</linearGradient>
</defs>
</svg>
