<svg width="212" height="100" viewBox="0 0 212 100" fill="none" xmlns="http://www.w3.org/2000/svg">
<g clip-path="url(#clip0)">
<path d="M97.0384 49.7942C97.0384 75.9362 75.9782 97.0988 49.9626 97.0988C23.947 97.0988 2.88672 75.9362 2.88672 49.7942C2.88672 23.6521 23.947 2.4895 49.9626 2.4895C75.9782 2.4895 97.0384 23.6521 97.0384 49.7942Z" fill="url(#paint0_linear)" stroke="white" stroke-width="3.37675"/>
<path d="M97.0384 49.1565C97.0384 75.2985 75.9782 96.4611 49.9626 96.4611C23.947 96.4611 2.88672 75.2985 2.88672 49.1565C2.88672 23.0144 23.947 1.85181 49.9626 1.85181C75.9782 1.85181 97.0384 23.0144 97.0384 49.1565Z" stroke="white" stroke-width="4.46106"/>
<path fill-rule="evenodd" clip-rule="evenodd" d="M66.2644 23.3467C66.187 22.7243 60.1476 23.4245 54.1857 24.5138C48.2238 25.603 42.3393 27.0035 42.4942 27.7037C43.4233 32.5275 44.3525 37.1958 45.2816 41.864C46.2107 46.4544 47.0624 50.967 47.9916 55.4796C47.9916 56.7245 48.4561 59.6032 49.0755 62.9488C49.2304 63.8824 50.7789 64.2715 52.8695 64.3493C55.0374 64.4271 57.8248 64.1159 60.6122 63.649C61.851 63.4156 63.0899 63.1822 64.2513 62.871C66.4967 62.3264 68.5872 61.6261 69.9809 60.9259C71.452 60.2257 72.3037 59.4476 72.2263 58.6696C71.9166 56.4133 71.3746 53.1455 70.7552 51.1226C70.0584 46.61 69.3615 42.0974 68.6646 37.507C67.8904 32.8388 67.1161 28.0927 66.2644 23.3467Z" fill="white"/>
<path fill-rule="evenodd" clip-rule="evenodd" d="M44.1201 32.8388C44.9718 37.0402 45.7461 41.0082 46.5204 45.1318C47.3721 49.411 48.2238 53.768 49.1529 58.3584C49.3852 59.4476 54.8051 58.9808 60.1476 58.0472C65.4901 57.0357 70.6777 55.4797 70.5229 54.4682C69.826 49.8778 69.2066 45.5208 68.5872 41.1638C67.9677 37.118 67.1935 32.6054 66.5741 28.8708C66.4966 28.6374 60.9218 29.4932 55.2697 30.5047C49.6949 31.4383 44.1975 32.5276 44.1201 32.8388Z" fill="#BFD457"/>
<path fill-rule="evenodd" clip-rule="evenodd" d="M65.954 25.1363C65.8766 24.6695 60.2244 25.2919 54.5722 26.3033C48.92 27.3148 43.3452 28.5596 43.4227 29.0265C43.8098 30.816 43.8098 31.1272 44.1969 32.8388C44.1195 32.6054 49.6943 31.4384 55.3465 30.4269C60.9213 29.4155 66.5735 28.4818 66.6509 28.7931C66.2638 27.0814 66.2638 26.9258 65.954 25.1363Z" fill="white"/>
<path fill-rule="evenodd" clip-rule="evenodd" d="M49.3079 27.3147C47.8368 27.6259 46.4431 27.9371 45.4365 28.1705L46.2108 32.1385C47.2174 31.9051 48.611 31.5939 50.0822 31.3605L49.3079 27.3147Z" fill="white"/>
<path fill-rule="evenodd" clip-rule="evenodd" d="M48.3008 58.7474C48.4556 59.9923 48.7653 61.3927 48.9976 62.9488C49.1525 63.8824 50.701 64.2715 52.7916 64.3493C54.9595 64.4271 57.7469 64.1158 60.5343 63.649C61.7732 63.4156 63.012 63.1822 64.1734 62.871C66.4188 62.3264 68.5093 61.6261 69.903 60.9259C71.3741 60.2257 72.2258 59.4476 72.1484 58.6696C71.9936 57.4247 71.7613 55.8687 71.4516 54.3904C71.0644 54.8572 70.3676 55.324 69.4384 55.7908C67.8899 56.4911 65.7994 57.1913 63.3991 57.8137C62.1603 58.125 60.844 58.3584 59.5278 58.5918C56.5855 59.1364 53.6433 59.3698 51.3979 59.3698C50.0816 59.292 48.9976 59.1364 48.3008 58.7474Z" fill="white"/>
<path fill-rule="evenodd" clip-rule="evenodd" d="M52.3276 64.2715C52.4824 64.2715 52.6373 64.2715 52.8696 64.2715C53.8761 64.2715 55.0375 64.2715 56.3538 64.1937C56.3538 64.1937 56.3538 64.1937 56.3538 64.1159C55.6569 62.2486 55.5795 60.6925 55.3472 59.1365C53.9535 59.2921 52.7147 59.2921 51.6307 59.2921C51.5533 59.2921 51.4759 59.2921 51.3984 59.2921C51.4759 60.926 52.0953 63.9603 52.3276 64.2715Z" fill="white"/>
<path fill-rule="evenodd" clip-rule="evenodd" d="M81.0527 34.7838C81.5947 39.452 80.5882 44.5093 73.7746 52.2896C72.5357 53.5345 72.5357 54.935 71.684 54.935C70.8323 54.7016 69.7483 49.0997 70.4452 48.5551C71.0646 48.3217 71.3743 49.8777 72.1486 49.1775C76.2522 45.5207 78.8073 39.841 78.4202 35.4062C77.9556 29.571 71.2969 27.0812 69.5935 33.2277C69.9806 36.8845 69.1289 37.2735 68.5095 37.4291C67.6578 35.7175 66.8061 31.9829 67.1158 29.1819C67.5029 28.7929 67.8901 29.96 68.6643 29.2597C73.5423 24.9027 80.3559 28.0927 81.0527 34.7838Z" fill="white"/>
<path fill-rule="evenodd" clip-rule="evenodd" d="M71.7613 55.3239C71.7613 55.1683 71.6838 55.0127 71.6838 54.9349C70.8321 54.7015 69.7482 49.0996 70.445 48.555L70.3676 47.9325C70.2902 47.9325 70.2127 47.8547 70.1353 47.9325C69.5159 48.0103 69.361 49.7998 69.7482 51.9005C70.1353 54.0012 70.987 55.5573 71.6064 55.4795C71.6064 55.4017 71.6838 55.4017 71.7613 55.3239Z" fill="white"/>
<path fill-rule="evenodd" clip-rule="evenodd" d="M66.961 23.7358C67.0385 24.1249 67.1933 25.3697 66.6513 25.6809C66.5739 25.3697 66.5739 25.0585 66.4965 24.8251C66.419 24.5917 65.4899 24.5917 64.0188 24.6695C61.6185 24.9029 55.3469 25.6031 53.179 29.3377C52.095 31.205 51.9401 34.784 49.927 35.0952C47.6816 35.4842 44.8942 29.5711 44.4297 28.3263C43.4231 28.6375 42.8037 28.9487 42.8037 29.1821C42.8811 29.4933 42.9586 29.8045 42.9586 30.1158C42.1068 29.9601 41.8746 28.7153 41.7197 28.3263C41.4874 27.3148 41.5649 26.3034 42.3391 25.4475C42.8811 24.8251 43.8103 24.2805 44.8942 23.658C45.6685 23.269 47.217 23.0356 48.2236 22.6466C50.0044 22.0242 51.6304 21.4017 53.4887 21.0905C54.6501 20.8571 55.9664 20.8571 57.2826 20.7793C59.0634 20.6237 60.6894 20.3903 62.0831 20.4681C63.1671 20.5459 64.0188 21.0905 64.7156 21.4017C65.9545 21.9464 66.7288 22.2576 66.961 23.7358Z" fill="white"/>
<path fill-rule="evenodd" clip-rule="evenodd" d="M42.7274 29.1042L42.8049 29.3376V29.4154V29.4932V29.571V29.6488V29.8044C42.34 29.7266 42.03 29.3376 41.875 28.9486L42.5725 28.793L42.7274 29.1042Z" fill="white"/>
<path fill-rule="evenodd" clip-rule="evenodd" d="M66.6511 25.6808C66.9611 25.5252 67.0386 25.0584 67.0386 24.5916L66.4961 24.7472C66.5736 25.1362 66.5736 25.3696 66.6511 25.6808Z" fill="white"/>
<path fill-rule="evenodd" clip-rule="evenodd" d="M52.0946 32.0605C52.0946 32.2162 52.0172 32.3718 52.0172 32.5274C51.8623 33.3054 50.9332 36.2619 51.088 37.04C51.1655 37.5068 51.3977 37.818 51.3977 38.2848C51.4752 38.6739 50.7009 39.0629 50.6235 38.3626C50.4686 37.6624 50.7009 37.5846 50.4686 36.9622C50.2363 36.3398 48.8426 35.0171 48.5329 34.7059C48.3006 34.4725 48.5329 34.7059 48.5329 34.7059C48.9975 35.0171 49.462 35.1727 49.8492 35.0949C51.088 34.8615 51.63 33.5388 52.0946 32.0605Z" fill="white"/>
<path fill-rule="evenodd" clip-rule="evenodd" d="M60.5345 26.848L60.9994 29.4156C61.1544 29.4156 61.3869 29.3378 61.5419 29.3378L61.1544 27.0814C60.6894 25.2142 60.3795 24.9029 60.5345 26.848Z" fill="white"/>
<path fill-rule="evenodd" clip-rule="evenodd" d="M63.8643 22.1019C64.3289 21.635 64.4063 21.4794 63.7095 20.9348C63.7095 20.3902 62.9352 20.1568 62.6255 20.3902C62.3932 19.3787 62.0835 19.2231 61.4641 19.0675C60.8447 18.9897 59.993 18.9119 59.9155 19.3787C59.6058 18.4451 58.1347 18.1339 57.3604 19.1453C56.8184 18.4451 55.0376 18.9897 55.2699 19.8456C54.031 18.2895 51.7857 20.0012 52.4051 20.468C51.9405 19.69 50.0048 20.468 50.392 21.4016C49.4628 20.5458 48.5337 20.3124 47.4497 21.7906C47.0626 21.5572 46.1335 22.1797 46.2883 22.5687C45.0495 22.6465 44.1978 22.8799 43.9655 24.047C43.2686 24.1248 42.8041 24.5138 43.4235 25.0584C45.1269 25.1362 47.5272 25.214 49.1531 25.2918C50.6242 25.0584 52.0179 24.9028 53.4891 24.6694C55.5022 24.5138 57.5153 24.3582 59.451 24.1248C60.9221 23.5023 62.3932 22.8021 63.8643 22.1019Z" fill="white"/>
<path fill-rule="evenodd" clip-rule="evenodd" d="M62.2375 29.3376L63.3215 36.0288L64.7926 51.5117L61.7729 36.2622L60.5341 30.0379C60.3018 28.793 60.6115 28.8708 60.9987 28.6374C61.5407 28.4818 62.0052 27.7038 62.2375 29.3376Z" fill="white"/>
<path fill-rule="evenodd" clip-rule="evenodd" d="M31.5 37.896C31.5774 37.2736 37.6167 37.9738 43.5786 39.0631C49.5405 40.1523 55.425 41.5528 55.2702 42.253C54.341 47.0769 53.4119 51.7451 52.4828 56.4133C51.5537 61.0037 50.702 65.5163 49.7728 70.029C49.7728 71.2738 49.3083 74.1526 48.6888 77.4981C48.534 78.4318 46.9854 78.8208 44.8949 78.8986C42.7269 78.9764 39.9396 78.6652 37.1522 78.1984C35.9133 77.9649 34.6745 77.7315 33.5131 77.4203C31.2677 76.8757 29.1771 76.1755 27.7835 75.4752C26.3123 74.775 25.4606 73.997 25.5381 73.2189C25.8478 70.9626 26.3898 67.6948 27.0092 65.672C27.706 61.1593 28.4029 56.6467 29.0997 52.0563C29.7966 47.3881 30.6483 42.7199 31.5 37.896Z" fill="white"/>
<path fill-rule="evenodd" clip-rule="evenodd" d="M53.6444 47.3881C52.7927 51.5895 52.0184 55.6353 51.2441 59.6811C50.3924 64.0381 49.5407 68.3173 48.6116 72.9077C48.3793 73.997 42.9594 73.5301 37.6169 72.5965C32.2744 71.585 27.0868 70.029 27.2417 69.0175C27.9385 64.4271 28.5579 60.0701 29.2548 55.7131C29.8742 51.6673 30.6485 47.1547 31.2679 43.4201C31.3453 43.1867 36.9201 44.0425 42.5723 45.054C48.0696 45.9876 53.567 47.1547 53.6444 47.3881Z" fill="#BFD457"/>
<path fill-rule="evenodd" clip-rule="evenodd" d="M31.8091 39.6856C31.8866 39.2188 37.5388 39.8412 43.191 40.8527C48.8432 41.8641 54.4179 43.109 54.3405 43.5758C53.9534 45.3653 53.9534 45.6765 53.5662 47.3882C53.6437 47.1548 47.9915 45.9877 42.4167 44.9763C36.8419 43.9648 31.1897 43.0312 31.1123 43.3424C31.4994 41.6307 31.4994 41.5529 31.8091 39.6856Z" fill="white"/>
<path fill-rule="evenodd" clip-rule="evenodd" d="M48.4569 41.9419C49.928 42.2531 51.3217 42.5643 52.3283 42.7977L51.554 46.7657C50.5474 46.5323 49.1537 46.2211 47.6826 45.9877L48.4569 41.9419Z" fill="white"/>
<path fill-rule="evenodd" clip-rule="evenodd" d="M49.4628 73.2967C49.308 74.5416 48.9983 75.942 48.766 77.4981C48.6112 78.4317 47.0626 78.8208 44.9721 78.8986C42.8041 78.9764 40.0167 78.6652 37.2293 78.1983C35.9905 77.9649 34.7516 77.7315 33.5902 77.4203C31.3448 76.8757 29.2543 76.1754 27.8606 75.4752C26.3895 74.775 25.5378 73.9969 25.6152 73.2189C25.7701 71.974 26.0024 70.418 26.3121 68.9397C26.6992 69.4065 27.396 69.8733 28.3252 70.3402C29.8737 71.1182 32.0417 71.7406 34.3645 72.3631C35.6033 72.6743 36.9196 72.9077 38.2359 73.1411C41.1781 73.6857 44.1204 73.9191 46.3658 73.9191C47.6046 73.8413 48.766 73.6857 49.4628 73.2967Z" fill="white"/>
<path fill-rule="evenodd" clip-rule="evenodd" d="M45.4364 78.8987C45.2815 78.8987 45.1267 78.8987 44.8944 78.8987C43.8878 78.8987 42.7264 78.8987 41.4102 78.8209C41.4102 78.8209 41.4102 78.8209 41.4102 78.7431C42.107 76.8758 42.1844 75.3197 42.4167 73.7637C43.8104 73.9193 45.0492 73.9193 46.1332 73.9193C46.2106 73.9193 46.2881 73.9193 46.3655 73.9193C46.2107 75.4754 45.6687 78.5097 45.4364 78.8987Z" fill="white"/>
<path fill-rule="evenodd" clip-rule="evenodd" d="M16.7111 49.3331C16.1691 54.0013 17.1756 59.0586 23.9892 66.839C25.2281 68.0838 25.2281 69.4843 26.0798 69.4843C26.9315 69.2509 28.0154 63.649 27.3186 63.1044C26.6992 62.871 26.3895 64.427 25.6152 63.7268C21.5115 60.07 18.9565 54.3904 19.3436 49.9556C19.8082 44.1203 26.4669 41.5528 28.1703 47.777C27.7832 51.4338 28.6349 51.8228 29.2543 51.9784C30.106 50.2668 30.9577 46.5322 30.648 43.7313C30.2608 43.3422 29.8737 44.5093 29.0994 43.8091C24.2215 39.5299 17.4079 42.7198 16.7111 49.3331Z" fill="white"/>
<path fill-rule="evenodd" clip-rule="evenodd" d="M26.0029 69.9513C26.0029 69.7957 26.0804 69.6401 26.0804 69.5623C26.9321 69.3289 28.016 63.727 27.3192 63.1824L27.3966 62.56C27.4741 62.56 27.5515 62.4822 27.6289 62.56C28.2483 62.6378 28.4032 64.4273 28.0161 66.528C27.6289 68.6287 26.7772 70.1847 26.1578 70.1069C26.0804 70.0291 26.0804 69.9513 26.0029 69.9513Z" fill="white"/>
<path fill-rule="evenodd" clip-rule="evenodd" d="M30.8029 38.3629C30.7255 38.7519 30.5707 39.9968 31.1127 40.308C31.1901 39.9968 31.1901 39.6855 31.2675 39.4521C31.3449 39.2187 32.2741 39.2187 33.7452 39.2965C36.1454 39.4521 42.4171 40.2302 44.585 43.9647C45.669 45.832 45.8239 49.411 47.837 49.7222C50.0824 50.1112 52.8698 44.1982 53.4118 42.9533C54.4183 43.2645 55.0377 43.5757 55.0377 43.8091C54.9603 44.1204 54.8829 44.4316 54.8829 44.7428C55.7346 44.5872 56.0443 43.3423 56.1217 42.9533C56.354 41.9418 56.2766 40.9304 55.5023 40.0746C54.9603 39.4521 54.0312 38.9075 52.9472 38.3629C52.1729 37.9739 50.6244 37.7404 49.6178 37.3514C47.837 36.729 46.211 36.1066 44.3527 35.7954C43.1913 35.5619 41.8751 35.5619 40.5588 35.4841C38.778 35.3285 37.152 35.0951 35.7583 35.1729C34.6743 35.2507 33.8226 35.7954 33.1258 36.1066C31.8095 36.5734 31.0352 36.8846 30.8029 38.3629Z" fill="white"/>
<path fill-rule="evenodd" clip-rule="evenodd" d="M55.0374 43.7314L54.96 43.9648V44.0426V44.1204V44.1982V44.276V44.4316C55.4249 44.3538 55.7349 43.9648 55.8899 43.5758L55.1924 43.4202L55.0374 43.7314Z" fill="white"/>
<path fill-rule="evenodd" clip-rule="evenodd" d="M31.1131 40.2301C30.8031 40.0745 30.7256 39.6077 30.7256 39.1409L31.268 39.2965C31.1905 39.6855 31.1905 39.9189 31.1131 40.2301Z" fill="white"/>
<path fill-rule="evenodd" clip-rule="evenodd" d="M45.6689 46.6101C45.6689 46.7657 45.7464 46.9213 45.7464 47.0769C45.9012 47.855 46.8303 50.8115 46.6755 51.5895C46.5981 52.0564 46.3658 52.3676 46.3658 52.8344C46.2884 53.2234 47.0626 53.6124 47.1401 52.9122C47.2949 52.212 47.0626 52.1342 47.2949 51.5117C47.5272 50.8893 48.9209 49.5666 49.2306 49.2554C49.4629 48.9442 49.2306 49.2554 49.2306 49.2554C48.766 49.5666 48.3015 49.7223 47.9143 49.6445C46.5981 49.4888 46.1335 48.0884 45.6689 46.6101Z" fill="white"/>
<path fill-rule="evenodd" clip-rule="evenodd" d="M37.1529 41.3974L36.688 43.9649C36.533 43.9649 36.3005 43.8871 36.1455 43.8871L36.533 41.6308C37.0754 39.8413 37.3854 39.5301 37.1529 41.3974Z" fill="white"/>
<path fill-rule="evenodd" clip-rule="evenodd" d="M33.8996 36.6512C33.435 36.1844 33.3576 36.0288 34.0545 35.4841C34.0545 34.9395 34.8287 34.7061 35.1384 34.9395C35.3707 33.9281 35.6804 33.7724 36.2999 33.6168C36.9193 33.539 37.771 33.4612 37.9258 33.9281C38.2355 32.9944 39.7067 32.6832 40.4809 33.6946C41.0229 32.9944 42.8038 33.539 42.494 34.3949C43.7329 32.8388 45.9783 34.5505 45.3589 35.0173C45.8234 34.2393 47.7591 35.0173 47.372 35.9509C48.3011 35.0951 49.2302 34.8617 50.3142 36.34C50.7013 36.1066 51.6305 36.729 51.4756 37.118C52.7145 37.1958 53.5662 37.4292 53.7984 38.5963C54.4953 38.6741 54.9598 39.0631 54.3404 39.6077C52.637 39.6855 50.2368 39.7633 48.6108 39.8411C47.1397 39.6077 45.746 39.4521 44.2749 39.2187C42.2618 39.0631 40.2487 38.9075 38.313 38.6741C36.7644 38.1295 35.3707 37.3514 33.8996 36.6512Z" fill="white"/>
<path fill-rule="evenodd" clip-rule="evenodd" d="M35.5258 43.887L34.4418 50.5781L32.9707 66.0611L35.9904 50.8115L37.2292 44.5872C37.4615 43.3424 37.1518 43.3424 36.7646 43.1868C36.1452 43.0312 35.7581 42.3309 35.5258 43.887Z" fill="white"/>
</g>
<path d="M106.596 27.7666L107.725 27.6037L112.534 13.8593H115.78L120.557 27.6037L121.686 27.7666V29.6665H116.301V27.7666L117.398 27.5712L116.703 25.3999H111.579L110.884 27.5712L111.98 27.7666V29.6665H106.596V27.7666ZM112.328 23.0657H115.954L114.173 17.4963H114.108L112.328 23.0657ZM129.818 28.1791C129.441 28.7292 128.975 29.1526 128.417 29.4494C127.867 29.7461 127.238 29.8945 126.528 29.8945C125.291 29.8945 124.321 29.5 123.619 28.7111C122.917 27.915 122.566 26.6809 122.566 25.009V20.1561L121.274 19.8304V17.9197H122.566H125.736V25.0307C125.736 25.8848 125.877 26.5 126.159 26.8764C126.449 27.2455 126.876 27.43 127.44 27.43C127.94 27.43 128.37 27.3504 128.732 27.1912C129.101 27.0247 129.402 26.7895 129.633 26.4855V20.1561L128.244 19.8304V17.9197H129.633H132.803V27.4409L134.226 27.7666V29.6665H130.024L129.818 28.1791ZM145.06 21.9583H142.933L142.596 20.4927C142.379 20.319 142.104 20.1742 141.771 20.0584C141.445 19.9426 141.083 19.8847 140.685 19.8847C140.128 19.8847 139.686 20.0114 139.361 20.2647C139.035 20.5108 138.872 20.822 138.872 21.1984C138.872 21.553 139.028 21.8497 139.339 22.0886C139.65 22.3202 140.273 22.5265 141.206 22.7074C142.661 22.9969 143.74 23.424 144.442 23.9885C145.144 24.5458 145.495 25.3166 145.495 26.301C145.495 27.3577 145.039 28.2226 144.127 28.8957C143.222 29.5616 142.028 29.8945 140.544 29.8945C139.639 29.8945 138.807 29.7642 138.047 29.5037C137.294 29.2359 136.625 28.8559 136.039 28.3637L136.006 25.7256H138.221L138.655 27.2563C138.843 27.4156 139.1 27.535 139.426 27.6146C139.752 27.687 140.092 27.7232 140.446 27.7232C141.091 27.7232 141.579 27.6074 141.912 27.3758C142.252 27.1442 142.422 26.8293 142.422 26.4312C142.422 26.0838 142.252 25.7835 141.912 25.5301C141.572 25.2768 140.946 25.0524 140.034 24.857C138.651 24.5748 137.606 24.1586 136.896 23.6085C136.194 23.0512 135.843 22.2949 135.843 21.3395C135.843 20.3552 136.249 19.5083 137.059 18.799C137.87 18.0825 139.024 17.7242 140.522 17.7242C141.434 17.7242 142.296 17.8473 143.106 18.0934C143.924 18.3394 144.565 18.6543 145.028 19.0379L145.06 21.9583ZM156.503 21.9583H154.375L154.039 20.4927C153.822 20.319 153.547 20.1742 153.214 20.0584C152.888 19.9426 152.526 19.8847 152.128 19.8847C151.571 19.8847 151.129 20.0114 150.804 20.2647C150.478 20.5108 150.315 20.822 150.315 21.1984C150.315 21.553 150.471 21.8497 150.782 22.0886C151.093 22.3202 151.716 22.5265 152.649 22.7074C154.104 22.9969 155.182 23.424 155.884 23.9885C156.587 24.5458 156.938 25.3166 156.938 26.301C156.938 27.3577 156.482 28.2226 155.57 28.8957C154.665 29.5616 153.471 29.8945 151.987 29.8945C151.082 29.8945 150.25 29.7642 149.49 29.5037C148.737 29.2359 148.068 28.8559 147.481 28.3637L147.449 25.7256H149.664L150.098 27.2563C150.286 27.4156 150.543 27.535 150.869 27.6146C151.194 27.687 151.535 27.7232 151.889 27.7232C152.533 27.7232 153.022 27.6074 153.355 27.3758C153.695 27.1442 153.865 26.8293 153.865 26.4312C153.865 26.0838 153.695 25.7835 153.355 25.5301C153.015 25.2768 152.389 25.0524 151.477 24.857C150.094 24.5748 149.048 24.1586 148.339 23.6085C147.637 23.0512 147.286 22.2949 147.286 21.3395C147.286 20.3552 147.691 19.5083 148.502 18.799C149.313 18.0825 150.467 17.7242 151.965 17.7242C152.877 17.7242 153.739 17.8473 154.549 18.0934C155.367 18.3394 156.008 18.6543 156.471 19.0379L156.503 21.9583ZM158.262 27.7666L159.793 27.4409V20.1561L158.099 19.8304V17.9197H162.963V27.4409L164.483 27.7666V29.6665H158.262V27.7666ZM162.963 15.1078H159.793V12.7302H162.963V15.1078ZM171.149 29.8945C169.455 29.8945 168.102 29.3517 167.089 28.266C166.075 27.1803 165.569 25.8016 165.569 24.1296V23.6954C165.569 21.9511 166.046 20.5144 167.002 19.3853C167.964 18.2562 169.253 17.6953 170.867 17.7025C172.452 17.7025 173.682 18.1802 174.558 19.1356C175.434 20.091 175.871 21.3829 175.871 23.0114V24.7376H168.858L168.836 24.8027C168.894 25.5772 169.151 26.2141 169.607 26.7135C170.07 27.2129 170.697 27.4626 171.485 27.4626C172.187 27.4626 172.77 27.3939 173.233 27.2563C173.697 27.1116 174.203 26.8872 174.753 26.5832L175.611 28.5374C175.126 28.921 174.496 29.2431 173.722 29.5037C172.955 29.7642 172.097 29.8945 171.149 29.8945ZM170.867 20.1453C170.28 20.1453 169.817 20.3696 169.477 20.8184C169.137 21.2671 168.927 21.857 168.847 22.588L168.88 22.6423H172.767V22.36C172.767 21.6869 172.607 21.1513 172.289 20.7532C171.978 20.3479 171.504 20.1453 170.867 20.1453ZM113.783 41.8593C115.643 41.8593 117.094 42.2212 118.136 42.9449C119.178 43.6687 119.699 44.7508 119.699 46.1911C119.699 46.9221 119.504 47.5771 119.113 48.1561C118.73 48.7279 118.169 49.1585 117.43 49.4481C118.379 49.6507 119.088 50.085 119.558 50.7508C120.036 51.4167 120.275 52.1875 120.275 53.0633C120.275 54.576 119.775 55.7232 118.777 56.5048C117.778 57.2793 116.363 57.6665 114.532 57.6665H106.758V55.7666L108.441 55.4409V44.0957L106.758 43.7701V41.8593H108.441H113.783ZM111.611 50.6749V55.2346H114.532C115.371 55.2346 116.012 55.0537 116.453 54.6918C116.895 54.3227 117.116 53.7798 117.116 53.0633C117.116 52.2889 116.927 51.699 116.551 51.2937C116.175 50.8811 115.581 50.6749 114.771 50.6749H111.611ZM111.611 48.4818H113.891C114.738 48.4818 115.389 48.3081 115.845 47.9607C116.301 47.6133 116.529 47.1066 116.529 46.4408C116.529 45.7098 116.298 45.1706 115.834 44.8231C115.379 44.4757 114.695 44.302 113.783 44.302H111.611V48.4818ZM121.773 55.7666L123.293 55.4409V48.1561L121.61 47.8304V45.9197H126.246L126.387 47.635C126.662 47.027 127.017 46.553 127.451 46.2128C127.885 45.8726 128.388 45.7025 128.96 45.7025C129.127 45.7025 129.3 45.717 129.481 45.746C129.669 45.7677 129.825 45.7966 129.948 45.8328L129.612 48.7207L128.309 48.6881C127.846 48.6881 127.462 48.7786 127.158 48.9595C126.854 49.1405 126.622 49.3974 126.463 49.7303V55.4409L127.983 55.7666V57.6665H121.773V55.7666ZM136.299 57.8945C134.606 57.8945 133.252 57.3517 132.239 56.266C131.226 55.1803 130.719 53.8016 130.719 52.1296V51.6954C130.719 49.9511 131.197 48.5144 132.152 47.3853C133.115 46.2562 134.403 45.6953 136.017 45.7025C137.602 45.7025 138.832 46.1802 139.708 47.1356C140.584 48.091 141.022 49.3829 141.022 51.0114V52.7376H134.008L133.987 52.8027C134.045 53.5772 134.302 54.2141 134.758 54.7135C135.221 55.2129 135.847 55.4626 136.636 55.4626C137.338 55.4626 137.92 55.3939 138.384 55.2563C138.847 55.1116 139.354 54.8872 139.904 54.5832L140.761 56.5374C140.276 56.921 139.647 57.2431 138.872 57.5037C138.105 57.7642 137.247 57.8945 136.299 57.8945ZM136.017 48.1453C135.431 48.1453 134.967 48.3696 134.627 48.8184C134.287 49.2671 134.077 49.857 133.998 50.588L134.03 50.6423H137.917V50.36C137.917 49.6869 137.758 49.1513 137.439 48.7532C137.128 48.3479 136.654 48.1453 136.017 48.1453ZM159.272 47.8304L158.088 47.9824L155.635 57.6665H152.986L150.804 50.6749H150.738L148.556 57.6665H145.918L143.454 47.9824L142.27 47.8304V45.9197H147.59V47.8304L146.342 48.0693L147.449 53.4433H147.514L149.707 45.9197H151.835L154.05 53.465H154.115L155.211 48.0801L153.952 47.8304V45.9197H159.272V47.8304ZM165.981 57.8945C164.287 57.8945 162.934 57.3517 161.921 56.266C160.907 55.1803 160.401 53.8016 160.401 52.1296V51.6954C160.401 49.9511 160.879 48.5144 161.834 47.3853C162.797 46.2562 164.085 45.6953 165.699 45.7025C167.284 45.7025 168.514 46.1802 169.39 47.1356C170.266 48.091 170.704 49.3829 170.704 51.0114V52.7376H163.69L163.669 52.8027C163.727 53.5772 163.984 54.2141 164.439 54.7135C164.903 55.2129 165.529 55.4626 166.318 55.4626C167.02 55.4626 167.602 55.3939 168.066 55.2563C168.529 55.1116 169.035 54.8872 169.586 54.5832L170.443 56.5374C169.958 56.921 169.329 57.2431 168.554 57.5037C167.787 57.7642 166.929 57.8945 165.981 57.8945ZM165.699 48.1453C165.113 48.1453 164.649 48.3696 164.309 48.8184C163.969 49.2671 163.759 49.857 163.68 50.588L163.712 50.6423H167.599V50.36C167.599 49.6869 167.44 49.1513 167.121 48.7532C166.81 48.3479 166.336 48.1453 165.699 48.1453ZM172.452 55.7666L173.972 55.4409V48.1561L172.289 47.8304V45.9197H176.925L177.066 47.635C177.341 47.027 177.695 46.553 178.13 46.2128C178.564 45.8726 179.067 45.7025 179.639 45.7025C179.805 45.7025 179.979 45.717 180.16 45.746C180.348 45.7677 180.504 45.7966 180.627 45.8328L180.29 48.7207L178.987 48.6881C178.524 48.6881 178.141 48.7786 177.837 48.9595C177.533 49.1405 177.301 49.3974 177.142 49.7303V55.4409L178.662 55.7666V57.6665H172.452V55.7666ZM193.926 47.8304L192.83 47.9933L188.509 59.4253C188.168 60.2721 187.712 60.9814 187.141 61.5532C186.576 62.1249 185.722 62.4108 184.578 62.4108C184.311 62.4108 184.057 62.3891 183.819 62.3457C183.587 62.3023 183.312 62.2408 182.993 62.1611L183.363 59.8487C183.464 59.8632 183.569 59.8776 183.677 59.8921C183.786 59.9066 183.88 59.9138 183.96 59.9138C184.488 59.9138 184.893 59.7835 185.176 59.523C185.458 59.2697 185.675 58.9512 185.827 58.5676L186.185 57.6774L182.461 48.0041L181.365 47.8304V45.9197H187.119V47.8304L185.805 48.0476L187.412 52.7376L187.575 53.5844L187.64 53.5953L189.497 48.0476L188.172 47.8304V45.9197H193.926V47.8304ZM120.677 69.8593V74.0717H118.245L118.114 72.302H115.205V83.4409L116.898 83.7666V85.6665H110.341V83.7666L112.035 83.4409V72.302H109.136L109.006 74.0717H106.585V69.8593H120.677ZM120.926 79.6845C120.926 77.933 121.415 76.4999 122.392 75.3853C123.376 74.2635 124.733 73.7025 126.463 73.7025C128.2 73.7025 129.557 74.2598 130.534 75.3744C131.519 76.4891 132.011 77.9257 132.011 79.6845V79.9125C132.011 81.6785 131.519 83.1188 130.534 84.2334C129.557 85.3408 128.207 85.8945 126.485 85.8945C124.741 85.8945 123.376 85.3408 122.392 84.2334C121.415 83.1188 120.926 81.6785 120.926 79.9125V79.6845ZM124.096 79.9125C124.096 80.9837 124.285 81.845 124.661 82.4964C125.037 83.1405 125.645 83.4626 126.485 83.4626C127.303 83.4626 127.9 83.1369 128.276 82.4855C128.66 81.8341 128.852 80.9765 128.852 79.9125V79.6845C128.852 78.6423 128.66 77.7918 128.276 77.1332C127.893 76.4746 127.288 76.1453 126.463 76.1453C125.638 76.1453 125.037 76.4746 124.661 77.1332C124.285 77.7918 124.096 78.6423 124.096 79.6845V79.9125ZM141.608 84.1791C141.232 84.7292 140.765 85.1526 140.208 85.4494C139.657 85.7461 139.028 85.8945 138.319 85.8945C137.081 85.8945 136.111 85.5 135.409 84.7111C134.707 83.915 134.356 82.6809 134.356 81.009V76.1561L133.064 75.8304V73.9197H134.356H137.526V81.0307C137.526 81.8848 137.667 82.5 137.949 82.8764C138.239 83.2455 138.666 83.43 139.23 83.43C139.73 83.43 140.161 83.3504 140.522 83.1912C140.892 83.0247 141.192 82.7895 141.423 82.4855V76.1561L140.034 75.8304V73.9197H141.423H144.594V83.4409L146.016 83.7666V85.6665H141.814L141.608 84.1791ZM147.503 83.7666L149.023 83.4409V76.1561L147.34 75.8304V73.9197H151.976L152.117 75.635C152.392 75.027 152.747 74.553 153.181 74.2128C153.615 73.8726 154.118 73.7025 154.69 73.7025C154.857 73.7025 155.03 73.717 155.211 73.746C155.4 73.7677 155.555 73.7966 155.678 73.8328L155.342 76.7207L154.039 76.6881C153.576 76.6881 153.192 76.7786 152.888 76.9595C152.584 77.1405 152.352 77.3974 152.193 77.7303V83.4409L153.713 83.7666V85.6665H147.503V83.7666ZM166.209 77.9583H164.081L163.745 76.4927C163.528 76.319 163.253 76.1742 162.92 76.0584C162.594 75.9426 162.232 75.8847 161.834 75.8847C161.277 75.8847 160.835 76.0114 160.509 76.2647C160.184 76.5108 160.021 76.822 160.021 77.1984C160.021 77.553 160.176 77.8497 160.488 78.0886C160.799 78.3202 161.421 78.5265 162.355 78.7074C163.81 78.9969 164.888 79.424 165.59 79.9885C166.292 80.5458 166.643 81.3166 166.643 82.301C166.643 83.3577 166.187 84.2226 165.275 84.8957C164.371 85.5616 163.177 85.8945 161.693 85.8945C160.788 85.8945 159.956 85.7642 159.196 85.5037C158.443 85.2359 157.774 84.8559 157.187 84.3637L157.155 81.7256H159.369L159.804 83.2563C159.992 83.4156 160.249 83.535 160.575 83.6146C160.9 83.687 161.24 83.7232 161.595 83.7232C162.239 83.7232 162.728 83.6074 163.061 83.3758C163.401 83.1442 163.571 82.8293 163.571 82.4312C163.571 82.0838 163.401 81.7835 163.061 81.5301C162.721 81.2768 162.094 81.0524 161.183 80.857C159.8 80.5748 158.754 80.1586 158.045 79.6085C157.343 79.0512 156.992 78.2949 156.992 77.3395C156.992 76.3552 157.397 75.5083 158.208 74.799C159.018 74.0825 160.173 73.7242 161.671 73.7242C162.583 73.7242 163.444 73.8473 164.255 74.0934C165.073 74.3394 165.713 74.6543 166.177 75.0379L166.209 77.9583Z" fill="white"/>
<defs>
<linearGradient id="paint0_linear" x1="49.9755" y1="2.48802" x2="49.9755" y2="97.1373" gradientUnits="userSpaceOnUse">
<stop stop-color="#C1D552"/>
<stop offset="0.1986" stop-color="#B9D052"/>
<stop offset="0.4889" stop-color="#A6C553"/>
<stop offset="0.834" stop-color="#8CB655"/>
<stop offset="1" stop-color="#7FAF55"/>
</linearGradient>
<clipPath id="clip0">
<rect width="99.5163" height="100" fill="white"/>
</clipPath>
</defs>
</svg>
